<svg width="557" height="516" viewBox="0 0 557 516" fill="none" xmlns="http://www.w3.org/2000/svg">
<g clip-path="url(#clip0_56_2)">
<path d="M-45.71 50.8305V50.4705L-45.09 49.6805L-46.59 48.6705L-46.25 47.8805L-45.83 47.6705L-44.3 47.7205L-44.2 47.3705L-44.31 46.4205L-44.61 45.8305L-44.33 45.4205L-43.36 45.4705L-42.28 46.1705L-40.86 46.2405L-39.86 46.9605L-39.25 47.0505L-34.49 46.7305L-33.07 47.1805L-31.32 45.9805L-29.83 46.0105L-29.22 47.1705L-29.59 47.9705L-29 47.3705L-28.92 47.1105L-29.14 45.8205L-28.93 45.4305L-27.48 44.9105L-26.34 45.3305L-25.62 45.2705L-26.04 45.2205L-26.81 44.6505L-26.93 44.1405L-26.85 40.9705L-26.24 40.0105L-27.88 38.7905L-28.43 38.0105L-28.88 37.7305L-29.7 37.5805L-31.25 37.8405L-32.59 38.5605L-32.8 38.5405L-33.85 37.4905L-34.06 36.7705L-35.2 36.1605L-36.22 36.2505L-36.29 36.1305L-35.1 34.7105L-33.9 34.1605L-32.75 35.2905L-31.93 37.2305L-31.51 37.2705L-31.18 36.6705L-31.65 35.2105L-32.15 34.3105L-31.77 34.2205L-30.74 34.5705L-30.04 34.2005L-28.27 35.6805L-28.16 36.1605L-26.44 38.3605L-25.85 38.4905L-25.35 38.1005L-24.24 36.4405L-23.77 36.4805L-22.92 37.3905L-21.29 40.3405L-20.89 40.6605L-20.15 40.8805L-19.54 40.4705H-19L-18.45 41.2705L-16.91 41.9205L-16.17 41.9405L-15.64 41.7705L-14.59 41.2005L-14.19 40.6605L-13.01 40.8605L-12.89 41.2005L-13.64 41.6305L-13.81 41.8905L-13.76 42.1605L-13.42 42.4805L-12.64 42.8105L-12.04 42.5305L-11.72 42.1105L-11.47 42.0705L-9.99998 43.1905L-10.13 43.4005L-9.98 44.2905L-9.76999 44.4605L-7.99998 44.2005L-7.43999 44.4305L-6.40999 44.5205L-5.50999 44.4105L-4.70999 43.8005L-3.64 43.7405L-2.56 45.2405L-1.18999 45.9505L-0.249985 46.7305L0.930008 46.8405L1.35001 47.0305L1.29001 46.8205L1.73001 45.6805L2.40001 45.0105L2.96001 44.7705L3.59001 45.0505L5.20001 44.8605L6.03001 44.1905L5.78001 44.0505L5.16 44.4205L5.05 44.1505L5.28001 43.3205L6.28001 43.0505L7.02 43.0705L8.40001 41.9705L8.36 41.2005L8.76001 41.2105L9.13 41.6405L8.8 42.1705L6.95001 43.7405L7.41 44.2805L6.16 45.5605L6.11 45.9105L6.32001 46.4305L6.83 46.9105L7.38 46.6705L7.54001 46.2205L8.43001 45.4905L9.94 45.0505L9.02 46.2105L9.39001 46.7705L10.19 46.4005L10.38 46.7305L9.51001 47.9905L9.81001 48.7305L10.13 49.0305L10.58 48.7405L11.4 48.6505L11.55 48.9105L12.3 48.8405L12.88 48.3905L13.64 46.4605L13.35 46.0805L12.32 46.2105L11.66 45.9305L11.61 45.6605L12.74 44.5405L14.58 43.3105L15.79 43.0905L15.54 43.9205L16.22 45.8305L16.99 46.9505L17.48 46.9405L17.9 46.6405L17.87 46.4005L17.16 46.1405L17.22 45.9305L18.1 45.7105L19.2 46.2705L20.31 47.7705L18.42 49.0905L17.78 49.8305L16.68 51.6005L16.43 52.9405L15.06 52.4305L14.95 53.1705L15.62 54.4105L15.61 55.4805L15.43 56.5305L14.67 57.6705L14.57 57.3205L13.69 57.6205L13.73 55.6505L13.56 55.4805L13.22 55.5605L12.79 56.7205L11.86 57.5305L11.42 57.5605L11.27 57.1305L10.74 56.9205L9.61 57.3605L8.89001 57.9505L8.50002 58.6205L8.53001 58.9305L8.97 59.2705L8.68001 59.9205L8.20001 60.3205L8.00002 61.5705L8.47 62.9605L8.89001 63.1905L9.49001 63.0405L9.96001 62.5105L9.90001 63.3405L9.56001 64.5005L8.87001 65.5605L8.57001 67.5705L8.27 68.1505L7.01001 69.0005L5.58 70.8505L4.70001 72.3705L4.68001 73.1805L3.32001 74.1005L2.88 74.0905L3.55 76.0305L4.01001 76.7205L4.73001 77.3305L6.12001 77.8305L8.09001 79.0905L9.10001 80.0105L12.01 81.5205L12.32 81.7905L12.58 83.1605L13.18 83.8605L15.88 85.1505L16.99 86.0705L18 87.1705L20.87 87.2905L22.02 87.8905L24.54 89.6805L25.83 90.2305L26.43 90.2105L27.55 90.5805L28.54 91.0705L29.86 93.1705L31.4 94.4805V204.03L-42.06 204.04L-56.53 204.03L-66.24 204.1L-66.3 102.5V81.5105V75.6105L-65.33 75.9305L-64.29 76.8305L-64.41 78.8705L-64.23 79.0905L-63.52 78.2105L-63.93 75.5005L-63.81 75.2505L-62.69 75.5605L-61.29 76.2705L-59.05 78.7705L-58.96 79.3105L-58.36 79.0805L-59.1 78.1105L-59.5 77.2805L-59.64 76.4505L-59.4 75.9805L-59.28 75.2305L-57.61 75.5205L-56.92 75.2905L-56.05 74.4505L-57.99 75.0605L-58.97 74.4305L-59.75 73.4105L-59.93 72.8905L-59.53 72.6905L-58.67 72.6005L-57.96 72.1005L-57.92 71.8605L-59.14 72.2705L-60.44 72.0305L-61.36 71.5005L-62.41 70.5005L-62.28 69.6105L-61.63 68.3705L-60.96 67.4805L-58.35 65.8405L-57.76 63.0605L-57.82 62.5505L-57.31 60.5405L-56.54 59.7405L-56.44 60.4405L-56.06 60.6605L-55.01 60.4705L-53.68 59.5705L-52.59 58.4205L-52.7 58.0105L-53.38 57.0805L-53.75 56.7705L-54.12 56.6905L-54.21 56.4505L-54.11 54.4905L-53.93 54.0005L-53.48 53.8005L-53.33 54.0805L-53.01 54.2305L-52.6 54.1405L-51.9 53.6405L-51.62 53.0305L-51.72 51.5605L-51.61 51.1905L-49.93 50.4405L-48.93 51.5805L-47.97 51.5105L-48.89 51.2405L-49.2 50.0705L-48.91 49.3605L-48.83 48.4805L-49.16 48.2305L-48.63 48.0105L-47.09 48.5005L-45.71 50.8305ZM-45.03 43.0905L-46.09 42.2105L-48.08 41.3905L-50.08 39.8205L-50.89 37.6905L-51.47 35.5405L-51.39 34.7305L-51.16 34.5505L-49.65 35.8705L-49.2 36.6005L-47.77 37.0505L-46.25 36.6905L-45.66 36.1405L-44.52 36.6305L-43.25 35.6505L-42.92 35.6205L-42.7 36.3705L-42.14 37.1705L-42.09 36.8905L-42.46 35.9605L-42.33 35.4105L-41.61 34.8405L-40.02 35.4805L-38.82 37.0605L-38.73 37.8905L-41.5 40.8005L-41.85 40.8505L-43.19 41.7105L-45.03 43.0905ZM19.56 67.9005L19.73 67.6205L20.2 67.5905L19.92 68.9905L19.35 69.2105L17.85 68.8105L16.56 69.0005L13.8 68.3105L14.18 66.4005L14.1 65.5805L14.35 64.6505L14.66 64.1205L16.13 63.8405L16.48 63.5705L16.17 62.8705L17.08 62.1105L17.55 62.1405L17.47 62.6505L17.05 62.9405L17.45 64.1005L18.48 64.2805L18.84 63.9005L18.73 63.5205L18.93 63.2505L19.29 63.1505L19.61 63.3805L19.69 63.7905L18.62 64.8905L18.05 65.2605L17.38 66.7505L17.4 67.7805L17.71 68.0505L19.16 68.2705L19.56 67.9005ZM-50.09 41.9805L-51.89 41.2905L-54.4 41.9305L-55 41.8105L-55.17 41.5405L-55.25 41.2505L-54.65 40.1605L-54.15 40.4605L-53.74 40.4805L-53.34 40.0905L-53.37 38.5605L-53.55 38.0905L-52.66 36.5405L-51.7 36.3405L-50.1 40.3405L-49.33 40.5405L-48.52 41.2705L-48.77 41.8205L-50.09 41.9805ZM15.16 37.7705L15.2 37.2605L16.67 35.1305L17.6 33.2505L18.09 32.9905L17.56 35.0305L15.79 37.5105L15.55 37.7305L15.16 37.7705ZM-27.26 36.5405L-27.58 36.2005L-27.96 35.1505L-28.28 33.3205L-27.45 33.0005L-26.93 34.7105L-26.95 35.7905L-27.26 36.5405ZM21.14 86.3305L20.52 85.8705L19.84 84.8605L20.04 84.2805L20.66 83.6705L21.15 84.2805L21.56 85.6105L21.28 86.3205L21.14 86.3305ZM11.88 64.3505L11.91 63.9505L11.56 63.3405L11.28 63.5305L11.45 64.0605H10.99L10.82 63.8505L10.92 62.9205L11.87 62.1705L12.33 62.2505L12.81 62.9005L12.66 63.6105L12.3 64.1905L11.88 64.3505ZM11.68 40.3505V39.8405L12.67 39.0505L13.49 39.0105L14.93 37.8905L14.83 38.4405L13.74 39.2705L11.68 40.3505ZM15.39 84.2705L15.11 84.1305L15.33 83.1905L15.95 82.7705L16.26 82.9105L16.07 84.1405L15.39 84.2705Z" fill="#0B2149"/>
<path d="M151.28 329.28L150.02 328.64L148.58 326.49L148.29 325.7L148.31 323.86L148.83 321.3L151.68 319.2L152.95 319.92L153.52 320.59L154.52 320.96L155.19 321.39L154.7 321.83L153.69 321.69L152.88 322.08L152.36 322.8L151.74 325.29L151.98 328.04L151.9 328.43L151.28 329.28Z" fill="#0B2149"/>
<path d="M161.43 350.75L142.18 341.05L141.2 340.97L142.08 339.45L142.19 338.48L141.19 336.44L140.5 335.56L139.94 331.14L138.76 330.39L136.94 329.61L136.01 329.97L134.48 329.68L133.47 329.85L132.46 331.11L131.48 331.2L129.66 331.84L128.2 331.74L125.78 330.98L124.81 330.22L123.69 330.05L123.01 330.14L122.63 330.54L121.49 331.03L119.24 330.83L116.14 330.24L115.38 329.92L114.1 328.69L113.31 328.07L113.04 328.04L112.22 328.22L111.27 328.74L110.32 328.65L109.95 328.35H108.62L107.26 328.7L107.06 328.94L106.68 330.32L106.85 331.68L104.93 332.22L104.51 332.11L103.17 331.33L100.89 328.66L100.33 327.38L100.08 327.12L99.46 326.92L98.36 325.94L97.52 324.78L95.66 323.79L93.99 322.52L93.22 322.24L92.77 322.34L92.1 321.84L91.92 321.56L92.17 320.8L91.75 320.15L90.87 319.93L90.06 319.43L89.56 318.33L89.27 316.68L89.53 315.37L89.54 314.54L89.4 314.33L87.09 313.07L85.47 312.96L84.19 312.44L84.04 312.08L83.36 311.63L82.74 311.84L82.55 312.11L82.2 313.66L81.71 314.28L80.79 314.1L80.42 313.67L80.45 313.41L79.87 311.86L78.93 310.99L78.88 309.11L77.37 306.57L76.5 305.97L75.25 305.4L73.55 305.75L71.94 305.33L70.98 305.7L70.37 306.54L69.84 306.82L69.65 306.56L68.44 305.82L66.66 304.99L64.79 304.85L64.46 304.76L63.95 304.26L64 240.56L65.29 240.55L87.09 240.56H104H117.78H150.31L151.14 240.15L152.41 238.56L155.88 235.61L157.08 235.28L157.36 235.33L157.53 235.69L158.48 235.97L161.82 235.68L163.38 235.08L164.85 234.9L165.15 234.97L165.98 235.83L166.73 236.34L168.54 236.39L170.18 236.05L172.92 237.3L175.69 239.69L175.82 241.57L176.26 242.55L176.5 242.66L177.03 242.53L177.55 241.98L178.53 239.98L180.4 239.15L180.8 239.92L181.47 240.24L183.55 239.24L183.9 237.23L182.92 235.01L183.97 234.18L185.19 233.58L187.35 232.87L187.79 232.57L188.01 232.01L188.63 231.49L189.11 231.56L189.82 232.29L191.6 232.68L193.63 232.47L195.42 232.59L196.25 231.49L197.7 231.22L198.89 230.76L199.7 230.1L200.48 230.81L200.63 231.62L200.28 234.29L200.48 235.69L200.98 236.37L200.78 238.85L199.07 241.09L197.87 244.61L198.17 245.48L196.96 252.37L196.43 254.39L194.41 260.07L194.27 263.42L194.44 264.03L194.82 264.08L195.01 264.85L193.9 268.57L193.69 270.04L192.55 273.81L191.59 275.77L189.39 278.55L188.89 279.85L189.21 281.54L189.08 283.33L187.19 284.93L186.38 285.87L184.71 286.91L184.62 287.46L184.89 288.04L182.81 288.77L181.28 289.56L179.73 291.89L178.7 294.44L178.46 294.64L177.91 294.68L177.4 295.09L177.29 295.68L177.75 296.09L177.4 297.48L176.16 299.14L175.69 302.64L175.43 303.58L175.04 303.88L174.41 303.81L173.56 304.15L174.16 304.31L174.6 304.72L173.72 306.15L172.74 306.88L171.77 308.31L170.75 311.28L171.19 311.82L170.65 314.28L169.95 314.72L169.73 315.48L170.11 316.59L170.87 317.38L170.7 318.26L170.41 318.51L170.05 318.12L170.18 317.85L170.03 317.24L169.74 317.21L169.05 317.64L168.97 318.08L169.25 318.76L168.64 319.44L167.48 320.08L166.89 321.19L166.83 321.75L166.03 324.07L165.48 324.96L163.38 329.56L163.11 331.85L163.09 334.75L162.46 335.57L161.88 338.79L161.26 341.04L160.57 342.78L160.62 344.75L161.7 346L161.84 346.94L161.83 347.39L161.51 347.29L161.05 347.63L161.07 349.21L161.43 350.75ZM151.9 328.43L151.98 328.03L151.74 325.28L152.36 322.8L152.88 322.07L153.7 321.68L154.71 321.82L155.19 321.39L154.52 320.96L153.52 320.6L152.95 319.92L151.68 319.2L148.83 321.3L148.31 323.86L148.29 325.71L148.58 326.5L150.03 328.65L150.29 328.87L151.38 329.24L151.9 328.43Z" fill="#0B2149"/>
<path d="M13.01 306.55L11.93 308.29L11.05 308.68L10.12 310.27L9.00002 310.97L8.33 312.3L7.56001 314.63L7.83 314.76L8.31001 314.7L9.76001 313.68L9.91 314.37L9.74001 316.96L9.22 317.18L8.93001 316.63L8.02 315.62L7.37001 315.22L6.69 315.32L6.21001 316.45L5.82001 316.44L5.41 315.65L3.98001 313.78L2.37001 312.12L1.52 311.44L1.17001 311.33L0.0500031 311.72L0.480011 310.53L1.10001 309.64L1.15001 310.46L2.57001 311.98L3.14001 312.37L4.22 312.02L3.12001 311.58L2.98001 311.17L2.92001 310.83L3.10001 310.43L2.62001 307.73L1.79001 305.52L1.66 304.04L0.930008 302.91L-0.809998 300.95L-2.89999 299.25L-2.59999 298L-2.70999 297.1L-3.24998 295.56L-4.34999 293.29L-5.59 292.81L-7.59999 293.13L-8.45999 293.62L-9.12 292.88L-9.10999 292.55L-9.90999 290.42L-11.23 287.42L-10.36 287.48L-9.92999 287.88L-9.78 288.53L-9.03999 287.52L-8.81999 286.86L-9.03999 285.72L-9.81 284.63L-10.49 284.04L-10.8 283.99L-12.52 284.53L-13.22 285.2L-13.63 285.12L-13.61 284.08L-13.3 283.37L-12.75 283.59L-12.57 283.29L-13.92 281.41L-15.01 280.77L-15.69 280.16L-15.57 279.69L-16.31 279.46L-16.58 279.68L-16.74 280.33L-17.63 280.89L-21.09 280.65L-21.42 280.57L-22.18 279.75L-23.18 279.39L-24.71 277.94L-25.23 277.66L-27.41 277.4L-28.45 277.61L-29.26 278.36L-30.2 278.69L-30.88 278.74L-31.63 278.55L-33.46 276.7L-36.26 274.67L-40.65 272.4L-43 271.52L-43.36 271.56L-44.47 272.46L-46.3 273.17L-46.85 273.24L-52.61 272.81L-53.85 272.85L-56.16 273.03L-57.22 273.3L-63.8 273.86L-66.3 274.27L-66.24 204.09L-56.53 204.02L-42.06 204.03L31.4 204.02H63.97L64 240.57L63.95 304.27L63.67 303.9L63.63 358.3L62.36 358.17L61.5 358.43L60.71 358.4L58.88 357.42L56.99 355.52L55.71 352.93L54.44 351L53.66 350.45L53.05 350.48L51.1 347.86L50.42 346.5L50.76 345.8L50.73 345.25L50.22 343.98L50.42 342.73L51.19 342.09L51.61 341.01L51.6 339.2L51.2 337.77L49.3 333.14L46.3 329.14L44.32 327.01L43.16 326.07L43.69 326.24L46.65 328.83L48.61 331.52L49.44 333.23L49.32 332.3L48.82 330.89L48.41 330.28L47.12 328.79L43.34 325.17L43.32 323.99L43.99 323.72L44.81 324.43L44.71 326.1L44.88 326.33L45.9 326.22L46.18 325.06L46.31 323.29L46.13 322.02L44.57 321.25L43.73 322.08L43.13 322.26L42.49 322.23L41.94 322.47L41.72 323.01L41.83 323.36L42.45 323.56L42.66 323.82L42.17 324.45L39.24 324.2L38.47 324.52L37.82 325.31L37.23 325.72L33.31 325.93L32.42 325.26L33.07 324.11L34.51 323.39L36.17 321.6L36.48 319.85L36.35 319.39L36.46 318.55L36.99 317.39L36.63 315.25L36.88 314.07L36.79 313.49L36.13 312.35L34.39 310.22L33.79 308.06L32.41 305.71L32.15 305.77L31.49 307.31L31.78 307.89L31.62 308.44L30.59 309.5L30.21 310.81L30.06 313.25L28.69 317.71L28.68 318.81L27.88 319.46L26.34 318.76L25.55 318.56L25.13 318.64L23.09 319.41L22.63 320.16L22.37 320.33L20.86 320.1L20.02 320.84L19.4 321.07L19.05 320.9L18.74 320.38L19.14 319.73L19.88 319L20.14 318.37L20.32 316.51L20.83 315.76L21.74 316.12L22.67 315.87L23.63 315.81L23.82 316.11L24.75 316.53L25.29 316.24L25.51 315.69L25.99 312.55L25.8 310.1L25.93 307.67L25.48 306.02L25.64 305.8H26.17L26.49 305.18L27.04 303.36L27.13 302.42L29.03 299.99L30.25 298.79L30.71 298.66L30.89 298.19L30.54 296.66L29.44 294.55L29.77 293.57L30.39 293.13L30.97 292.9L31.67 292.88L31.97 292.64L31.89 291.98L31.56 291.35L30.97 291.1L30.34 288.24L29.77 286.97L29.47 285.42L28.89 284.98L28.8 287.07L29.05 287.21L29.3 287.65L29.37 289.02L29.01 290.88L28.44 290.91L27.06 291.35L25.9 292.61L24.78 294.84L24.72 295.91L24.52 296.51L22.88 299.58L22.14 300.2L20.82 300.25L20.05 299.78L19.34 300.84L19.54 300.98L19.12 301.42L16.04 303.05L14.23 304.47L13.61 305.11L13.55 305.53L13.01 306.55ZM30.44 326.73L32.09 327.18L32.62 327.9L32.63 328.6L31.84 329.31L30.55 328.68L28.81 328.55L27.28 329.27L27.08 329.55L27.22 330.47L26.91 330.78L25.49 331.48L24.43 330.4L23 330.13L22.6 330.26L22.48 330.75L22.17 330.93L20.88 330.81L19.45 331.03L17.41 331.09L17.06 330.51L15.52 329.23L15.47 328.76L15.98 327.26L19.96 326.08L20.81 326.07L21.83 325.83L23.97 324.88L26.24 325.07L26.88 325.68L26.87 326.76L27.02 326.96L28.06 327.1L29.13 327.71L29.77 327.76L30.44 326.73Z" fill="#0B2149"/>
<path d="M157.1 353.79L155.78 354.44L154.18 354.6L148.93 354.63L147.11 354.89L145.32 354.82L143.31 354.96L139.56 356.07L137.34 357.17L134.97 358.97L133.14 360.68L131.41 362.4L128.77 365.47L127.73 366.39L125.3 366.7L122.92 367.3L122.07 367.03L121.08 367.09L120.63 367.28L120.25 367.85L121.46 370.06L122.71 369.18L122.94 368.34L123.33 368.52L123.49 372.28L122.85 373.09L122.51 373.26L122 373.02L121.7 372.57L120.91 370.5L119.77 369.07L118.93 368.71L118.4 368.88L118.25 369.31L117.18 369.22L116.3 367.44L116.56 367.02L116.22 366.38L115.26 366.23L114.51 366.73L113.96 366.82L113.51 366.56L111.88 364.91L112.06 363.62L113.02 363.22L113.4 362.55L112.64 360.81L112.19 360.52L110.14 360.67L109.68 362.21L107.7 364.25L106.74 364.44L106.3 364.37L104.78 362.6H106.07L107.21 362.09L108.8 359.29L108.45 358L107.11 355.93L106.48 355.61L105.47 356.07L104.02 357.46L102.24 358.79L100.71 358.95L100.52 359.14L100.58 359.64L102.08 359.9L102.92 359.61L103.42 359.24L104.17 359.45L104.33 359.85L104.21 360.46L103.65 361.32L103.38 361.52L102.45 361.3L100.78 361.66L100.43 361.87L97.16 364.08L94.78 367.01L93.58 367.34L93.18 367.62L92.94 368.23L91.53 369.27L91.12 369.16L90.45 368.37L89.84 368.01L87.59 367.29L87.08 366.77L86.16 366.2L85.33 366.09L83.5 365.35L80.59 363.1L78.9 362.43L77.7 362.72L77.5 362.95L76.52 362.93L75.46 362.32L74.4 361.44L72.84 361.1L72.08 361.09L71.3 361.31L70.66 361.85V362.28L70.99 362.93L70.13 363.17L68.86 362.55L67.92 361.41L66.03 359.64L65.06 359L63.59 358.32L63.63 303.92L63.91 304.29L64.42 304.79L64.75 304.88L66.62 305.02L68.4 305.85L69.61 306.59L69.8 306.85L70.33 306.57L70.94 305.73L71.9 305.36L73.51 305.78L75.21 305.43L76.46 306L77.33 306.6L78.84 309.14L78.89 311.02L79.83 311.89L80.41 313.44L80.38 313.7L80.75 314.13L81.67 314.31L82.16 313.69L82.51 312.14L82.7 311.87L83.32 311.66L84 312.11L84.15 312.47L85.43 312.99L87.05 313.1L89.36 314.36L89.5 314.57L89.49 315.4L89.23 316.71L89.52 318.36L90.02 319.46L90.83 319.96L91.71 320.18L92.13 320.83L91.88 321.59L92.06 321.87L92.73 322.37L93.18 322.27L93.95 322.55L95.62 323.82L97.48 324.81L98.32 325.97L99.42 326.95L100.04 327.15L100.29 327.41L100.85 328.69L103.13 331.36L104.47 332.14L104.89 332.25L106.81 331.71L106.64 330.35L107.02 328.97L107.22 328.73L108.58 328.38H109.91L110.28 328.68L111.23 328.77L112.18 328.25L113 328.07L113.27 328.1L114.06 328.72L115.34 329.95L116.1 330.27L119.2 330.86L121.45 331.06L122.59 330.57L122.97 330.17L123.65 330.08L124.77 330.25L125.74 331.01L128.16 331.77L129.62 331.87L131.44 331.23L132.42 331.14L133.43 329.88L134.44 329.71L135.97 330L136.9 329.64L138.72 330.42L139.9 331.17L140.46 335.59L141.15 336.47L142.15 338.51L142.04 339.48L141.16 341L142.14 341.08L161.39 350.78L160.54 351.32L159.3 351.43L158.08 353.29L157.1 353.79ZM111.26 363.34L110.48 363.04L110.34 362.41L110.61 361.52L112.35 361.88L112.79 362.4L112.67 362.6L111.97 362.61L111.26 363.34ZM111.24 365.26L110.87 364.81L110.34 364.58L108.66 364.72L108.69 364.57L109.45 363.83L110.46 363.63L110.75 363.82L111.33 365.21L111.24 365.26Z" fill="#0B2149"/>
<path d="M161.43 163.41V163.59L162.1 164.23L161.54 162.3L160.83 160.84L160.84 160.29L161.26 159.18L161.69 158.62L162.17 158.49L162.55 158.65L163.38 159.93L163.87 161.32L165.19 161.86L166.91 163.04L168.14 163.6L167.51 162.11L167.5 161.23L167.8 160.62L168.59 160.76L169.36 161.91L169.04 162.65L169.12 163.22L170.59 165.31L169.9 169.98L170.51 171.24L170.38 172.92L171.1 174.38L171.98 174.86L172.79 174.98L173.1 175.69L173.84 176.25L174.36 177.75L175.13 178.17H175.49L176 178.53L177.15 179.95L177.89 180.17L178.47 180.63L178.3 180.9L178.37 181.23L178.67 181.35L179.2 180.83L179.22 180.19L179.48 179.94L179.96 180.08L181.09 181.38L182.67 182.79L183.5 185.26L184.82 187.42L186.4 188.63L187.93 189.23L188.47 189.85L188.79 190.62L188.9 192.05L190.68 195L192.17 195.45L193.24 195.52L193.66 197.28L193.53 198.34L193.09 198.79L193.15 200.19L193.39 200.86L193.75 201.2L194.08 201.29L194.66 202.71L196.22 203.42L196.26 203.71L195.74 204.84L195.03 207.74L195.23 208.52L195.5 212.09L195.8 212.82L195.95 217.09L195.28 217.3L194.62 218.23L194.95 219.89L196.14 220.81L197.02 221.91L197.7 224.24L198.62 225.53L198.94 226.4L198.7 228.03L199.24 229.39L199.74 230.09L198.93 230.75L197.74 231.21L196.29 231.48L195.46 232.58L193.67 232.46L191.64 232.67L189.86 232.28L189.15 231.55L188.67 231.48L188.05 232L187.83 232.56L187.39 232.86L185.23 233.57L184.01 234.17L182.96 235L183.94 237.22L183.59 239.23L181.51 240.23L180.84 239.91L180.44 239.14L178.57 239.97L177.59 241.97L177.07 242.52L176.54 242.65L176.3 242.54L175.86 241.56L175.73 239.68L172.96 237.29L170.22 236.04L168.58 236.38L166.77 236.33L166.02 235.82L165.19 234.96L164.89 234.89L163.42 235.07L161.86 235.67L158.52 235.96L157.57 235.68L157.4 235.32L157.12 235.27L155.92 235.6L152.45 238.55L151.18 240.14L150.35 240.55H117.82H104H87.1L65.3 240.54L64 240.57L63.98 204.03H31.41V94.4804L33.52 96.2004L34.56 96.6004L36.69 97.1104L38.35 97.0104L38.87 97.3904L40.56 98.1004L42.38 98.3604L43.8 100.33L44.03 101.79L44.58 102.85L45.1 103.36L45.93 103.65L47.02 103.78L48.09 104.49L48.97 105.38L51.12 106L51.86 106.44L52.91 107.38L53.34 107.56L54.57 107.63L57.44 107.11L58.93 106.56L59.86 106.06L61.36 104.9L62.18 104.61L62.75 103.57L63.36 101.21L63.52 99.5204L66.1 96.1704L67.1 93.9104L67.42 92.2704L68.63 89.0904L68.35 87.2004L69 83.0604L70.89 78.7304L71.23 77.3604L70.16 74.4204L69.67 71.2704L69.83 70.3504L70.45 68.7604L70.53 67.5204L70.29 66.6504L69.2 65.3504L69.11 64.0104L69.9 60.7304L71.49 57.6404L71.37 57.1504L70.87 56.5904L70.38 54.6704L70.47 54.3504L70.61 54.1004L71.72 53.4004L72.14 52.8904L72.67 51.4204L73.32 51.6204L73.67 52.2204L73.68 53.1104L74.14 53.8104L74.23 53.3404L73.62 51.5604L73.14 51.2104L71.82 49.2304L72.14 48.9704L71.93 48.8104L71.22 48.7604L71.13 49.4104L71.47 49.8704L70.84 50.0704L70.46 49.9004L70.48 49.6504L71.5 47.4404L72.45 46.1304L72.28 45.7504L72.77 44.3504L73.24 43.6504L73.71 43.4404L73.98 44.7604L75.14 44.5304L75.23 44.2604L74.35 43.4004L74.31 42.9504L74.55 41.6704L76.22 36.8704L76.61 34.4204L76.39 32.4904L76.49 32.2204L76.89 31.9304L78.61 31.6304L79.22 30.8204L79.71 29.5904L80.52 29.5604L81.54 30.0404L81.2 30.5604L80.48 31.2204L80.4 32.2304L81.09 31.3504L81.48 31.3804L82.95 32.6304L83.42 33.6604L84.26 37.0804L83.98 38.4004L84.28 40.6504L84.2 41.9404L85.38 42.9804L86.13 43.0404L86.84 42.7204L87.15 42.8404L87.88 43.6404L86.83 45.3304L86.61 46.2604L86.56 47.4704L87.12 47.6304L87.46 47.5404L88.42 48.0104L88.72 48.3404L88.76 49.5004L89.24 50.0004L89.65 50.0404L90.39 50.6004L89.79 51.9904L89.65 53.1604L90.12 53.4004L91.19 53.2804L91.3 53.5004L91.13 55.9304L91.38 58.2104L91.46 58.6104L91.89 59.0204L92.17 59.6204L92.08 60.6604L91.47 63.2204L92.24 65.2204L93.16 66.1904L93.3 67.9904L93.72 69.4804L94.21 70.5304L94.58 70.9304L95.36 71.3504L96.71 71.3604L98.25 70.1604L101.31 68.7604L101.76 67.7504L102.19 67.8504L102.87 68.8704L102.74 69.9304L103.26 71.3404L103.94 72.1504L105.58 72.7804L106.32 72.8304L107 74.3404L109.68 75.5504L110.87 76.4804L110.8 77.1404L109.98 78.5904L110.02 79.2504L110.45 79.9604L110.59 80.7904L110.15 82.0804L110.76 83.2904L111.35 85.3004V87.3304L111.9 87.8804L112.47 89.2104L112.29 91.5104L111.88 92.0804L111.81 93.2404L111.91 93.5704L112.48 93.9304L116.19 98.5604L116.55 98.2604L117.56 98.0904L117.82 98.4104L116.98 100L117.03 100.35L117.8 101.67L118.65 103.66L119.23 105.79L119.43 107.36L119.23 108.44L119.39 109.6L119.32 110.35L118.32 112.47L118.4 113.56L120.6 116.44L121.92 116.94L121.84 118.21L121.35 119.35L121.21 120.56L121.31 120.94L121.94 121.78L122.89 122.52L123.16 123.04L124.43 123.87L125.4 124.33L126.59 124.36L127.92 125.69L128.66 125.72L129.95 126.14L130.68 126.83L131.92 127.09L133.86 126.94L134.02 126.6L133.53 125.75L134.15 126.46L135.2 128.35L135.63 130.55L135.89 131.08L136.44 131.67L137.03 131.81L137.53 131.69L137.36 130.76L137.44 130.36L138.1 130.37L138.42 130.71L138.55 131.98L139.07 132.47L139.72 132.75L141.08 132.69L142.42 133.08L143.28 134.12L142.93 134.26L143.02 134.57L143.66 135.36L144.52 136.06L145.09 135.81L145.13 135.13L144.79 134.82L144.94 134.42L145.69 134.7L147.33 136.17L148.37 136.36L148.74 136.87L149.43 138.81L149.84 138.92L150.17 139.84L149.56 139.69L149.04 139.16L148.6 138.95L148.07 139.17L147.27 140.16L147.94 141.96L149.25 143.33L150.03 143.87L151.19 144.28L152.63 145.4L153.22 146.15L153.11 147.01L153.49 148.45L154.03 148.91L154.45 150.29L155.07 151.38L155.69 151.97L155.55 154.18L156.54 157.72L157.29 159.54L157.98 160.53L158.45 160.91L158.48 162.1L158.15 162.6L158.88 162.23L159.46 161.75L159.73 161.3L161.43 163.41ZM195.13 201.59L194.66 201.49L194.22 200.9L193.63 198.75L194.21 197.33L194.94 196.12L194.93 195.09L194.78 194.83L195.23 193.89L196.36 192.98L196.86 192L196.95 191.47L196.84 191.06L196.19 190L195.98 189.88L196.39 189.12L197.32 188.51L197.41 190.95L197.66 191.5L198.18 191.84L198.29 192.26L195.64 198.5L195.16 200.07L195.32 201.04L195.13 201.59ZM43.87 96.8004L43.76 96.1404L44.05 94.9904L44.67 94.1304L45.58 93.4404L47.46 93.2104L48.05 92.8904L50.14 93.2304L50.2 93.8904L49.73 94.1104L49.02 94.2604L48.55 93.8804L47.55 94.2804L47.71 94.6304L47.04 95.7404L45.83 96.2004L44.26 96.4904L43.87 96.8004ZM175 177.69L174.41 177.14L173.99 176.21L173.26 175.55L172.84 174.61L172.74 173.79L173.22 173.68L174.74 174.64L174.95 174.99L175.65 176.33L175.78 177.25L175.49 177.6L175 177.69ZM121.4 116.42L120.65 116.13L120.44 115.09L119.96 114.44L119.46 114.2L119.19 113.7L119.64 113.59L121.18 114.31L122.08 115.61L121.76 116.23L121.4 116.42ZM198.66 224.99L198.47 224.57L198.53 223.53L198.95 221.15L199.37 221.05L200.12 221.18L199.4 223.56L199.17 224.93L198.66 224.99ZM198.86 220.51L198.14 218.49V216.85L199.07 216.34L199.31 216.52L198.75 218.64L198.86 220.51ZM76.82 30.2304L76.14 29.6804L76.09 28.9904L76.74 28.5604L77.19 28.4704L77.72 29.2704L77.65 29.6804L77.13 29.8104L76.82 30.2304ZM77.87 24.6904L77.12 24.3704L76.89 24.0104L77.31 23.3704L77.91 23.2604L78.27 23.4304L78.52 23.8704L77.87 24.6904ZM46.91 101.14L46.6 100.49L47.71 99.4504L48.27 99.8504L48.45 100.68L47.17 100.65L46.91 101.14Z" fill="#0B2149"/>
<path d="M128.2 437.76L127.3 438.21L127.1 437.76L125.7 437.54L124.76 436.83L123.84 436.63L121.47 436.51L121.24 436.35L121.08 435.92L120.77 435.83L119.46 436.23L118.68 435.97L117.53 434.16L118.17 433.71L119.37 433.89L119.96 434.21L120.78 434.38L120.8 433.4L120.03 432.76L119.61 433.52L116.72 433.15L116.48 432.98L115.29 430.55L113.86 428.27L113.63 428.04L112.95 428.07L112.39 427.17L111.99 426.32L111.24 423.55L110.77 423.04L110.22 422.88L109.54 418.5L109.62 417.67L109.82 417.41L110.11 417.93L112.02 419.39L112.49 421.57L113.39 419.05L112.82 418.65L112.37 418.69L110.44 416.57L110.23 415.97L110.25 415.09L110.09 414.43L109.4 413.02L107.99 411.69L106.9 409.76L103.98 402.59L104.08 402.08L103.78 400.56L103.45 399.94L103.25 398.5L104.13 397.7L104.15 396.04L104.81 395.6L107.24 395.89L108.66 396.94L110.38 396.66L111.04 397.22L113.25 397.94L116.87 400.09L120.35 401.73L122.65 401.94L123.67 401.63L124.61 402.16L124.56 401.66L125.41 400.76L126.18 400.49L126.75 400.67L126.99 401.62L127.56 401.91L128.47 401.89L128.15 401.43L127.39 401.26L127.17 401.05L127.12 400.36L127.61 399.91L129.27 399.16L130.68 399.63L132.95 399.17L133.61 399.76L134.39 399.29L135.48 397.4L135.72 397.25L136.41 397.08L136.67 397.46L137.8 397.97L138.18 397.95L138.87 397.55L139.22 396.96L139.41 396.09L139.63 395.85L140.09 395.87L140.8 396.2L142.34 397.34L142.91 398.09L143.51 399.44L142.82 401.9L142.9 402.64L143.35 403.23L143.39 404.32L142.92 406.04L142.99 407.27L143.36 408.34L142.82 411.26L143.18 414.46L143.84 415.53L143.9 417.19L143.33 418L142.94 417.67L142.89 417.32L143.18 416.95L143.31 415.99L142.54 413.92L142.07 413.15L140.81 415.65L139.99 421.58L139.5 422.08L139.34 422.92L139.46 424.44L138.68 425.25L138.24 426.73L138.39 426.97L138.86 426.94L138.66 426.51L138.98 426.27L139.67 426.69L139.95 427.24L140.01 428.27L139.6 428.54L139.43 429.83L140.01 431.14L139.91 431.98L139.64 432L138.87 431.32L138.09 431.66L137.68 432.27L136.68 431.03L135.97 429.58L135.83 428.87L136.43 427.8L136.78 427.7L137.04 427.94L137.09 428.3L136.92 428.65L137.59 429.37L138.52 429.3L138.86 429.01L138.06 427.61L135.52 426.06L135.15 426.12L134.55 426.57L134.76 427.58L135.1 428.32L134.81 428.9L133.74 429.25L133.49 428.63L133.7 428.5L133.54 427L132.56 426.37L132.9 427.23L132.66 428.77L132.03 429.54L131.74 430.62L131.96 431.66L131.8 432.63L131.43 432.87L131.05 432.82L130.18 432.26L129.39 431.33L129.24 430.39L129.01 430.3L128.78 430.67L128.77 431.67L130.14 432.92L129.7 434.02L129.13 434.91L128.59 436.48L128.43 437.56L128.2 437.76ZM141.36 389.12L140.38 388.58L140.1 387.52L140.16 387.22L138.92 384.89L137.37 383.51L138.69 381.77L139.62 381.37L141.77 384.24L142.17 384.53L143 384.75L143.09 385.16L143.6 387.95L143.56 388.33L143.26 388.61L141.89 388.86L141.36 389.12ZM95.69 387.17L95.31 386.89L95.17 386.16L95.37 386.01V385.03L94.75 384.22L94.78 383.45L94.97 381.18L95.82 380.55L95.95 380.18L95.84 379.37L96.3 379.24L97.27 379.83L97.72 380.48L97.87 382.77L98.13 384.24L98.03 385.01L97.7 385.75L95.69 387.17ZM143.64 392.37L143.61 391.68L143.42 391.4L140.9 391.72L139.93 391.3L139.95 390.75L140.67 390.16L141.41 390.12L142.17 390.35L143.69 389.58L145.17 391.34L145.15 391.49L144.4 391.78L143.64 392.37ZM132.39 436.2L131.7 435.88L131.01 436.03L130.44 434.84L132.36 432.47L133.06 434.3L132.58 436.04L132.39 436.2ZM133.03 432.47L132.28 430.9L132.98 429.68L133.41 430.34L133.8 432.15L133.77 432.32L133.03 432.47ZM140.12 424.93L140.17 422.97L140.8 422.49L141.36 422.54L141.85 423.5L141.8 423.65L141.04 423.66L140.12 424.93ZM106.19 395.59L106 395.45L105.95 394.76L106.6 393.99L107.58 395.11L106.19 395.59Z" fill="#0B2149"/>
</g>
<rect x="1.5" y="1.5" width="57" height="57" stroke="#0B2149" stroke-width="3"/>
<rect x="58.5" y="1.5" width="57" height="57" stroke="#0B2149" stroke-width="3"/>
<rect x="1.5" y="58.5" width="57" height="57" stroke="#0B2149" stroke-width="3"/>
<rect x="58.5" y="58.5" width="57" height="57" stroke="#0B2149" stroke-width="3"/>
<rect x="115.5" y="1.5" width="57" height="57" stroke="#0B2149" stroke-width="3"/>
<rect x="115.5" y="115.5" width="57" height="57" stroke="#0B2149" stroke-width="3"/>
<rect x="1.5" y="115.5" width="57" height="57" stroke="#0B2149" stroke-width="3"/>
<rect x="172.5" y="115.5" width="57" height="57" stroke="#0B2149" stroke-width="3"/>
<rect x="58.5" y="115.5" width="57" height="57" stroke="#0B2149" stroke-width="3"/>
<rect x="115.5" y="58.5" width="57" height="57" stroke="#0B2149" stroke-width="3"/>
<rect x="115.5" y="172.5" width="57" height="57" stroke="#0B2149" stroke-width="3"/>
<rect x="1.5" y="172.5" width="57" height="57" stroke="#0B2149" stroke-width="3"/>
<rect x="172.5" y="58.5" width="57" height="57" stroke="#0B2149" stroke-width="3"/>
<rect x="172.5" y="172.5" width="57" height="57" stroke="#0B2149" stroke-width="3"/>
<rect x="58.5" y="172.5" width="57" height="57" stroke="#0B2149" stroke-width="3"/>
<rect x="229.5" y="229.5" width="57" height="57" stroke="#0B2149" stroke-width="3"/>
<rect x="229.5" y="286.5" width="57" height="57" stroke="#0B2149" stroke-width="3"/>
<rect x="1.5" y="457.5" width="57" height="57" stroke="#0B2149" stroke-width="3"/>
<rect x="1.5" y="229.5" width="57" height="57" stroke="#0B2149" stroke-width="3"/>
<rect x="58.5" y="229.5" width="57" height="57" stroke="#0B2149" stroke-width="3"/>
<rect x="1.5" y="286.5" width="57" height="57" stroke="#0B2149" stroke-width="3"/>
<rect x="58.5" y="286.5" width="57" height="57" stroke="#0B2149" stroke-width="3"/>
<rect x="115.5" y="229.5" width="57" height="57" stroke="#0B2149" stroke-width="3"/>
<rect x="115.5" y="343.5" width="57" height="57" stroke="#0B2149" stroke-width="3"/>
<rect x="1.5" y="343.5" width="57" height="57" stroke="#0B2149" stroke-width="3"/>
<rect x="172.5" y="229.5" width="57" height="57" stroke="#0B2149" stroke-width="3"/>
<rect x="172.5" y="343.5" width="57" height="57" stroke="#0B2149" stroke-width="3"/>
<rect x="58.5" y="343.5" width="57" height="57" stroke="#0B2149" stroke-width="3"/>
<rect x="115.5" y="286.5" width="57" height="57" stroke="#0B2149" stroke-width="3"/>
<rect x="115.5" y="400.5" width="57" height="57" stroke="#0B2149" stroke-width="3"/>
<rect x="1.5" y="400.5" width="57" height="57" stroke="#0B2149" stroke-width="3"/>
<rect x="172.5" y="286.5" width="57" height="57" stroke="#0B2149" stroke-width="3"/>
<rect x="172.5" y="400.5" width="57" height="57" stroke="#0B2149" stroke-width="3"/>
<rect x="58.5" y="400.5" width="57" height="57" stroke="#0B2149" stroke-width="3"/>
<rect x="57" width="500" height="516" fill="url(#paint0_linear_56_2)"/>
<defs>
<linearGradient id="paint0_linear_56_2" x1="92.5" y1="247" x2="533" y2="249.5" gradientUnits="userSpaceOnUse">
<stop stop-color="#F7EFEE" stop-opacity="0"/>
<stop offset="1" stop-color="#F7EFEE"/>
</linearGradient>
<clipPath id="clip0_56_2">
<rect width="442.489" height="415.551" fill="white" transform="translate(0 23)"/>
</clipPath>
</defs>
</svg>
