<svg width="593" height="223" viewBox="0 0 593 223" fill="none" xmlns="http://www.w3.org/2000/svg">
<rect x="-33" width="626" height="223" rx="21" fill="white"/>
<rect x="-33" width="626" height="223" rx="21" fill="white"/>
<path d="M127.445 42.0286C127.445 43.2166 127.016 44.167 126.158 44.8798C125.313 45.5794 124.197 45.9292 122.811 45.9292C121.307 45.9292 120.059 45.6454 119.069 45.0778V42.5236C120.204 43.342 121.445 43.7512 122.792 43.7512C123.399 43.7512 123.887 43.606 124.257 43.3156C124.626 43.012 124.811 42.6094 124.811 42.1078C124.811 41.8702 124.765 41.659 124.673 41.4742C124.58 41.2894 124.389 41.1046 124.098 40.9198C123.821 40.735 123.603 40.603 123.445 40.5238C123.3 40.4446 122.99 40.2994 122.514 40.0882C122.382 40.0222 122.283 39.976 122.217 39.9496C121.729 39.7252 121.333 39.5272 121.029 39.3556C120.726 39.1708 120.396 38.9266 120.039 38.623C119.683 38.3194 119.412 37.9564 119.228 37.534C119.056 37.1116 118.97 36.6298 118.97 36.0886C118.97 34.9534 119.386 34.0426 120.218 33.3562C121.062 32.6698 122.178 32.3266 123.564 32.3266C124.818 32.3266 125.9 32.5444 126.811 32.98V35.3956C125.821 34.8016 124.765 34.5046 123.643 34.5046C123.023 34.5046 122.534 34.6432 122.178 34.9204C121.835 35.1976 121.663 35.554 121.663 35.9896C121.663 36.4252 121.848 36.7882 122.217 37.0786C122.6 37.3558 123.168 37.666 123.92 38.0092C124.448 38.2468 124.877 38.458 125.207 38.6428C125.537 38.8144 125.894 39.0586 126.276 39.3754C126.672 39.6922 126.963 40.075 127.148 40.5238C127.346 40.9594 127.445 41.461 127.445 42.0286ZM135.079 45.5332C134.617 45.7576 134.023 45.8698 133.297 45.8698C131.132 45.8698 130.05 44.7742 130.05 42.583V37.5142H128.545V35.7322H130.05V33.3166H132.426V35.7322H134.921V37.5142H132.426V42.6226C132.426 43.045 132.538 43.3684 132.763 43.5928C132.987 43.804 133.297 43.9096 133.693 43.9096C134.195 43.9096 134.657 43.771 135.079 43.4938V45.5332ZM146.185 40.7218C146.185 42.2398 145.756 43.4872 144.898 44.464C144.053 45.4408 142.865 45.9292 141.334 45.9292C139.816 45.9292 138.628 45.454 137.77 44.5036C136.925 43.5532 136.503 42.3388 136.503 40.8604C136.503 39.3292 136.945 38.0686 137.829 37.0786C138.714 36.0754 139.882 35.5738 141.334 35.5738C142.878 35.5738 144.073 36.0622 144.918 37.039C145.763 38.0026 146.185 39.2302 146.185 40.7218ZM138.998 40.7812C138.998 41.7052 139.202 42.4774 139.611 43.0978C140.021 43.7182 140.601 44.0284 141.354 44.0284C142.133 44.0284 142.72 43.7248 143.116 43.1176C143.512 42.5104 143.71 41.7382 143.71 40.801C143.71 39.8374 143.519 39.052 143.136 38.4448C142.753 37.8244 142.152 37.5142 141.334 37.5142C140.582 37.5142 140.001 37.8244 139.592 38.4448C139.196 39.0652 138.998 39.844 138.998 40.7812ZM150.609 49.5526H148.233V35.7322H150.609V37.2766C151.322 36.1546 152.345 35.5936 153.678 35.5936C154.985 35.5936 156.021 36.0622 156.787 36.9994C157.565 37.9366 157.955 39.1708 157.955 40.702C157.955 42.2068 157.565 43.4542 156.787 44.4442C156.021 45.421 154.978 45.9094 153.658 45.9094C152.312 45.9094 151.295 45.3616 150.609 44.266V49.5526ZM151.361 38.3854C150.86 38.9002 150.609 39.6658 150.609 40.6822C150.609 41.6986 150.853 42.484 151.342 43.0384C151.83 43.5928 152.417 43.87 153.104 43.87C153.817 43.87 154.397 43.5994 154.846 43.0582C155.295 42.5038 155.519 41.7316 155.519 40.7416C155.519 39.7516 155.295 38.986 154.846 38.4448C154.397 37.8904 153.83 37.6132 153.143 37.6132C152.457 37.6132 151.863 37.8706 151.361 38.3854ZM169.395 45.7708H167.039V35.3956L163.871 37.3162V34.8412L167.296 32.8216H169.395V45.7708ZM181.64 41.5336H176.611V39.5338H181.64V41.5336ZM194.304 45.7708H188.899V32.4256H193.631C195.057 32.4256 196.165 32.7622 196.957 33.4354C197.749 34.1086 198.145 34.9798 198.145 36.049C198.145 36.775 197.947 37.4086 197.551 37.9498C197.155 38.4778 196.647 38.8276 196.027 38.9992C196.74 39.1708 197.327 39.5206 197.789 40.0486C198.251 40.5634 198.482 41.2696 198.482 42.1672C198.482 43.2232 198.112 44.0878 197.373 44.761C196.634 45.4342 195.611 45.7708 194.304 45.7708ZM193.314 34.465H191.394V38.0488H192.898C193.796 38.0488 194.469 37.8706 194.918 37.5142C195.367 37.1578 195.591 36.7024 195.591 36.148C195.591 35.6332 195.4 35.224 195.017 34.9204C194.647 34.6168 194.08 34.465 193.314 34.465ZM193.433 40.0486H191.394V43.7314H193.532C195.129 43.7314 195.928 43.1242 195.928 41.9098C195.928 40.669 195.096 40.0486 193.433 40.0486ZM209.13 45.7708H206.735V44.1274C206.207 45.289 205.177 45.8698 203.646 45.8698C202.629 45.8698 201.837 45.5794 201.27 44.9986C200.702 44.4178 200.418 43.5928 200.418 42.5236V35.7322H202.794V41.9692C202.794 42.6028 202.946 43.0846 203.25 43.4146C203.567 43.7446 203.996 43.9096 204.537 43.9096C205.223 43.9096 205.758 43.6786 206.141 43.2166C206.537 42.7546 206.735 42.055 206.735 41.1178V35.7322H209.13V45.7708ZM213.614 40.801C213.614 41.7118 213.845 42.451 214.307 43.0186C214.769 43.5862 215.343 43.87 216.029 43.87C216.742 43.87 217.336 43.5994 217.811 43.0582C218.286 42.5038 218.524 41.7052 218.524 40.6624C218.524 39.646 218.273 38.887 217.772 38.3854C217.27 37.8706 216.696 37.6132 216.049 37.6132C215.363 37.6132 214.782 37.897 214.307 38.4646C213.845 39.019 213.614 39.7978 213.614 40.801ZM220.9 45.7708H218.524V44.2066C217.838 45.3418 216.821 45.9094 215.475 45.9094C214.155 45.9094 213.105 45.4078 212.327 44.4046C211.561 43.4014 211.178 42.187 211.178 40.7614C211.178 39.1774 211.581 37.9234 212.386 36.9994C213.204 36.0622 214.247 35.5936 215.514 35.5936C216.821 35.5936 217.824 36.1546 218.524 37.2766V31.7722H220.9V45.7708ZM231.132 45.2164C230.432 45.652 229.422 45.8698 228.102 45.8698C226.505 45.8698 225.244 45.3946 224.32 44.4442C223.396 43.4938 222.934 42.2662 222.934 40.7614C222.934 39.1642 223.37 37.9102 224.241 36.9994C225.112 36.0886 226.201 35.6332 227.508 35.6332C228.815 35.6332 229.851 36.0292 230.617 36.8212C231.382 37.6132 231.765 38.7682 231.765 40.2862C231.765 40.6558 231.719 41.131 231.627 41.7118H225.33C225.502 42.4378 225.858 42.9922 226.399 43.375C226.954 43.7578 227.64 43.9492 228.459 43.9492C229.515 43.9492 230.406 43.6852 231.132 43.1572V45.2164ZM227.568 37.4944C227 37.4944 226.505 37.7056 226.083 38.128C225.673 38.5372 225.409 39.1378 225.291 39.9298H229.508V39.6328C229.482 38.986 229.303 38.4712 228.973 38.0884C228.657 37.6924 228.188 37.4944 227.568 37.4944ZM236.325 45.7708H233.929L233.949 35.7322H236.325V37.5142C236.787 36.2734 237.632 35.653 238.86 35.653C239.137 35.653 239.361 35.6728 239.533 35.7124V38.0092C239.229 37.8772 238.893 37.8112 238.523 37.8112C237.876 37.8112 237.348 38.0752 236.939 38.6032C236.53 39.1312 236.325 39.7912 236.325 40.5832V45.7708ZM243.404 45.7708H241.028V35.7322H243.404V45.7708ZM243.642 32.7226C243.642 33.1318 243.503 33.475 243.226 33.7522C242.949 34.0294 242.612 34.168 242.216 34.168C241.82 34.168 241.484 34.0294 241.207 33.7522C240.929 33.475 240.791 33.1318 240.791 32.7226C240.791 32.3266 240.929 31.99 241.207 31.7128C241.484 31.4356 241.82 31.297 242.216 31.297C242.612 31.297 242.949 31.4356 243.226 31.7128C243.503 31.99 243.642 32.3266 243.642 32.7226ZM260.309 45.7708H257.913V39.613C257.913 38.2666 257.398 37.5934 256.369 37.5934C255.854 37.5934 255.392 37.8178 254.983 38.2666C254.587 38.7154 254.389 39.4216 254.389 40.3852V45.7708H251.993V39.613C251.993 38.2666 251.478 37.5934 250.449 37.5934C249.934 37.5934 249.472 37.8178 249.063 38.2666C248.653 38.7154 248.449 39.4216 248.449 40.3852V45.7708H246.073V35.7322H248.449V37.3162C249.016 36.181 249.96 35.6134 251.28 35.6134C252.745 35.6134 253.696 36.247 254.131 37.5142C254.395 36.907 254.791 36.4384 255.319 36.1084C255.847 35.7784 256.448 35.6134 257.121 35.6134C258.138 35.6134 258.923 35.9236 259.477 36.544C260.032 37.1512 260.309 38.0224 260.309 39.1576V45.7708Z" fill="#0B2149"/>
<path d="M336.782 46H334.425V35.6248L331.257 37.5454V35.0704L334.683 33.0508H336.782V46ZM341.145 41.05H344.551V34.5358L341.145 41.05ZM346.927 46H344.551V43.0894H338.789V41.05L343.106 33.031H346.927V41.05H348.63V43.0894H346.927V46ZM352.762 36.9316C353.066 37.222 353.218 37.5784 353.218 38.0008C353.218 38.4232 353.066 38.7862 352.762 39.0898C352.472 39.3802 352.116 39.5254 351.693 39.5254C351.271 39.5254 350.914 39.3802 350.624 39.0898C350.334 38.7862 350.188 38.4232 350.188 38.0008C350.188 37.5784 350.334 37.222 350.624 36.9316C350.914 36.628 351.271 36.4762 351.693 36.4762C352.116 36.4762 352.472 36.628 352.762 36.9316ZM352.762 43.426C353.066 43.7164 353.218 44.0728 353.218 44.4952C353.218 44.9176 353.066 45.274 352.762 45.5644C352.472 45.8548 352.116 46 351.693 46C351.271 46 350.914 45.8548 350.624 45.5644C350.334 45.274 350.188 44.9176 350.188 44.4952C350.188 44.0728 350.334 43.7164 350.624 43.426C350.914 43.1224 351.271 42.9706 351.693 42.9706C352.116 42.9706 352.472 43.1224 352.762 43.426ZM357.388 41.05H360.793V34.5358L357.388 41.05ZM363.169 46H360.793V43.0894H355.031V41.05L359.348 33.031H363.169V41.05H364.872V43.0894H363.169V46ZM369.104 46H366.569L371.737 35.0902H365.639V33.031H374.252V35.0902L369.104 46Z" fill="#0B2149"/>
<path d="M439.049 41.05H442.455V34.5358L439.049 41.05ZM444.831 46H442.455V43.0894H436.693V41.05L441.009 33.031H444.831V41.05H446.534V43.0894H444.831V46ZM457.022 39.466C457.022 41.4988 456.619 43.1224 455.814 44.3368C455.022 45.5512 453.867 46.1584 452.349 46.1584C450.871 46.1584 449.729 45.5512 448.924 44.3368C448.118 43.1224 447.716 41.4988 447.716 39.466C447.716 37.42 448.118 35.803 448.924 34.615C449.729 33.4138 450.871 32.8132 452.349 32.8132C453.841 32.8132 454.989 33.4138 455.794 34.615C456.613 35.803 457.022 37.42 457.022 39.466ZM450.745 36.1396C450.349 36.9052 450.151 38.014 450.151 39.466C450.151 40.918 450.343 42.04 450.725 42.832C451.121 43.6108 451.663 44.0002 452.349 44.0002C453.062 44.0002 453.61 43.6108 453.992 42.832C454.388 42.0532 454.586 40.9312 454.586 39.466C454.586 38.0008 454.382 36.8854 453.973 36.1198C453.577 35.3542 453.035 34.9714 452.349 34.9714C451.676 34.9714 451.141 35.3608 450.745 36.1396ZM467.831 39.466C467.831 41.4988 467.428 43.1224 466.623 44.3368C465.831 45.5512 464.676 46.1584 463.158 46.1584C461.679 46.1584 460.538 45.5512 459.732 44.3368C458.927 43.1224 458.525 41.4988 458.525 39.466C458.525 37.42 458.927 35.803 459.732 34.615C460.538 33.4138 461.679 32.8132 463.158 32.8132C464.649 32.8132 465.798 33.4138 466.603 34.615C467.421 35.803 467.831 37.42 467.831 39.466ZM461.554 36.1396C461.158 36.9052 460.96 38.014 460.96 39.466C460.96 40.918 461.151 42.04 461.534 42.832C461.93 43.6108 462.471 44.0002 463.158 44.0002C463.871 44.0002 464.418 43.6108 464.801 42.832C465.197 42.0532 465.395 40.9312 465.395 39.466C465.395 38.0008 465.191 36.8854 464.781 36.1198C464.385 35.3542 463.844 34.9714 463.158 34.9714C462.485 34.9714 461.95 35.3608 461.554 36.1396ZM484.104 46H481.708V39.8422C481.708 38.4958 481.194 37.8226 480.164 37.8226C479.649 37.8226 479.187 38.047 478.778 38.4958C478.382 38.9446 478.184 39.6508 478.184 40.6144V46H475.788V39.8422C475.788 38.4958 475.273 37.8226 474.244 37.8226C473.729 37.8226 473.267 38.047 472.858 38.4958C472.449 38.9446 472.244 39.6508 472.244 40.6144V46H469.868V35.9614H472.244V37.5454C472.812 36.4102 473.755 35.8426 475.075 35.8426C476.541 35.8426 477.491 36.4762 477.927 37.7434C478.191 37.1362 478.587 36.6676 479.115 36.3376C479.643 36.0076 480.243 35.8426 480.916 35.8426C481.933 35.8426 482.718 36.1528 483.273 36.7732C483.827 37.3804 484.104 38.2516 484.104 39.3868V46ZM495.129 40.357L494.951 40.9312H498.713L498.535 40.3372C498.086 38.9116 497.716 37.717 497.426 36.7534C497.149 35.7766 496.977 35.1628 496.911 34.912L496.832 34.516C496.713 35.176 496.146 37.123 495.129 40.357ZM493.347 46H490.734L495.248 32.6548H498.475L502.99 46H500.297L499.347 42.9706H494.298L493.347 46ZM509.52 46H506.946L503.778 35.9614H506.253L507.164 39.268C507.428 40.2184 507.646 41.0698 507.818 41.8222C508.002 42.5614 508.115 43.063 508.154 43.327L508.233 43.723C508.365 42.9178 508.748 41.4328 509.382 39.268L510.352 35.9614H512.51L513.48 39.268C513.771 40.2448 514.008 41.1094 514.193 41.8618C514.391 42.601 514.517 43.096 514.569 43.3468L514.629 43.7428C514.761 42.964 515.15 41.4724 515.797 39.268L516.747 35.9614H519.123L515.936 46H513.362L512.471 42.7132C512.233 41.8552 512.028 41.0764 511.857 40.3768C511.685 39.664 511.573 39.1756 511.52 38.9116L511.441 38.4958C511.269 39.367 510.926 40.7728 510.411 42.7132L509.52 46ZM524.109 44.317C524.637 44.317 525.046 44.1652 525.336 43.8616C525.64 43.5448 525.792 43.1356 525.792 42.634V41.6836H524.564C523.944 41.6836 523.469 41.8156 523.139 42.0796C522.809 42.3304 522.644 42.6538 522.644 43.0498C522.644 43.8946 523.132 44.317 524.109 44.317ZM525.891 44.7922C525.429 45.6502 524.558 46.0792 523.277 46.0792C522.327 46.0792 521.568 45.802 521 45.2476C520.446 44.6932 520.169 43.9936 520.169 43.1488C520.169 42.1984 520.525 41.4526 521.238 40.9114C521.951 40.3702 522.98 40.0996 524.327 40.0996H525.792V39.4858C525.792 38.9314 525.647 38.509 525.356 38.2186C525.066 37.9282 524.571 37.783 523.871 37.783C522.802 37.783 521.819 38.08 520.921 38.674V36.4762C521.673 36.0142 522.756 35.7832 524.168 35.7832C526.887 35.7832 528.247 37.0504 528.247 39.5848V46H525.891V44.7922ZM535.847 45.7228C534.844 48.4024 533.313 49.7422 531.253 49.7422C530.871 49.7422 530.541 49.7092 530.263 49.6432V47.683C530.475 47.7358 530.699 47.7622 530.937 47.7622C532.138 47.7622 532.989 47.1088 533.491 45.802L529.531 35.9614H532.164L533.332 39.169C533.689 40.1194 533.973 40.918 534.184 41.5648C534.408 42.2116 534.547 42.6208 534.6 42.7924L534.659 43.0696C534.791 42.6076 535.213 41.3074 535.926 39.169L536.976 35.9614H539.47L535.847 45.7228Z" fill="#0B2149"/>
<path d="M457.613 110.436C457.613 111.518 457.21 112.403 456.405 113.089C455.613 113.762 454.498 114.099 453.059 114.099C451.726 114.099 450.591 113.881 449.653 113.446V111.129C450.683 111.683 451.765 111.961 452.901 111.961C453.613 111.961 454.168 111.796 454.564 111.466C454.973 111.122 455.178 110.687 455.178 110.159C455.178 109.01 454.247 108.436 452.386 108.436H451.633V106.436H452.386C453.085 106.436 453.673 106.285 454.148 105.981C454.623 105.677 454.861 105.248 454.861 104.694C454.861 103.585 454.181 103.031 452.821 103.031C451.924 103.031 451.026 103.308 450.129 103.862V101.625C451.026 101.137 451.97 100.892 452.96 100.892C454.32 100.892 455.382 101.222 456.148 101.882C456.927 102.542 457.316 103.387 457.316 104.417C457.316 105.908 456.636 106.925 455.277 107.466C456.016 107.651 456.59 108.001 456.999 108.515C457.408 109.017 457.613 109.657 457.613 110.436ZM462.08 114H459.704V100.239H462.08V108.674L465.624 103.961H468.396L464.713 108.753L468.475 114H465.683L462.08 108.812V114ZM484.285 114H481.889V107.842C481.889 106.496 481.374 105.823 480.344 105.823C479.83 105.823 479.368 106.047 478.958 106.496C478.562 106.945 478.364 107.651 478.364 108.614V114H475.969V107.842C475.969 106.496 475.454 105.823 474.424 105.823C473.909 105.823 473.447 106.047 473.038 106.496C472.629 106.945 472.424 107.651 472.424 108.614V114H470.048V103.961H472.424V105.545C472.992 104.41 473.936 103.843 475.256 103.843C476.721 103.843 477.671 104.476 478.107 105.743C478.371 105.136 478.767 104.668 479.295 104.338C479.823 104.008 480.424 103.843 481.097 103.843C482.113 103.843 482.899 104.153 483.453 104.773C484.007 105.38 484.285 106.252 484.285 107.387V114ZM495.31 108.357L495.131 108.931H498.893L498.715 108.337C498.266 106.912 497.897 105.717 497.606 104.753C497.329 103.777 497.158 103.163 497.092 102.912L497.012 102.516C496.894 103.176 496.326 105.123 495.31 108.357ZM493.528 114H490.914L495.428 100.655H498.656L503.17 114H500.477L499.527 110.971H494.478L493.528 114ZM509.701 114H507.127L503.959 103.961H506.434L507.345 107.268C507.609 108.218 507.826 109.07 507.998 109.822C508.183 110.561 508.295 111.063 508.335 111.327L508.414 111.723C508.546 110.918 508.929 109.433 509.562 107.268L510.532 103.961H512.691L513.661 107.268C513.951 108.245 514.189 109.109 514.374 109.862C514.572 110.601 514.697 111.096 514.75 111.347L514.809 111.743C514.941 110.964 515.331 109.472 515.977 107.268L516.928 103.961H519.304L516.116 114H513.542L512.651 110.713C512.413 109.855 512.209 109.076 512.037 108.377C511.866 107.664 511.753 107.176 511.701 106.912L511.621 106.496C511.45 107.367 511.107 108.773 510.592 110.713L509.701 114ZM524.289 112.317C524.817 112.317 525.226 112.165 525.517 111.862C525.82 111.545 525.972 111.136 525.972 110.634V109.684H524.744C524.124 109.684 523.649 109.816 523.319 110.08C522.989 110.33 522.824 110.654 522.824 111.05C522.824 111.895 523.312 112.317 524.289 112.317ZM526.071 112.792C525.609 113.65 524.738 114.079 523.457 114.079C522.507 114.079 521.748 113.802 521.18 113.248C520.626 112.693 520.349 111.994 520.349 111.149C520.349 110.198 520.705 109.453 521.418 108.911C522.131 108.37 523.16 108.1 524.507 108.1H525.972V107.486C525.972 106.931 525.827 106.509 525.536 106.219C525.246 105.928 524.751 105.783 524.051 105.783C522.982 105.783 521.999 106.08 521.101 106.674V104.476C521.854 104.014 522.936 103.783 524.348 103.783C527.068 103.783 528.427 105.05 528.427 107.585V114H526.071V112.792ZM536.027 113.723C535.024 116.402 533.493 117.742 531.434 117.742C531.051 117.742 530.721 117.709 530.444 117.643V115.683C530.655 115.736 530.879 115.762 531.117 115.762C532.318 115.762 533.169 115.109 533.671 113.802L529.711 103.961H532.344L533.513 107.169C533.869 108.119 534.153 108.918 534.364 109.565C534.588 110.212 534.727 110.621 534.78 110.792L534.839 111.07C534.971 110.608 535.394 109.307 536.106 107.169L537.156 103.961H539.651L536.027 113.723Z" fill="#0B2149"/>
<path d="M457.9 186.476C457.9 187.584 457.471 188.482 456.613 189.168C455.755 189.842 454.653 190.178 453.306 190.178C451.96 190.178 450.871 189.855 450.039 189.208C449.221 188.561 448.812 187.683 448.812 186.575C448.812 185.123 449.492 184.1 450.851 183.506C449.624 182.885 449.01 181.928 449.01 180.635C449.01 179.447 449.419 178.523 450.237 177.863C451.069 177.189 452.092 176.853 453.306 176.853C454.574 176.853 455.616 177.17 456.435 177.803C457.253 178.437 457.662 179.381 457.662 180.635C457.662 181.889 457.068 182.826 455.88 183.446C457.227 183.974 457.9 184.984 457.9 186.476ZM451.208 186.495C451.208 186.984 451.386 187.4 451.742 187.743C452.099 188.073 452.627 188.238 453.326 188.238C454.039 188.238 454.58 188.06 454.95 187.703C455.319 187.347 455.504 186.918 455.504 186.416C455.504 185.888 455.313 185.446 454.93 185.09C454.56 184.733 454.026 184.555 453.326 184.555C452.627 184.568 452.099 184.766 451.742 185.149C451.386 185.519 451.208 185.967 451.208 186.495ZM451.425 180.595C451.425 181.189 451.61 181.644 451.98 181.961C452.349 182.278 452.811 182.436 453.366 182.436C453.907 182.436 454.356 182.278 454.712 181.961C455.082 181.644 455.267 181.189 455.267 180.595C455.267 180.067 455.115 179.638 454.811 179.308C454.508 178.965 454.006 178.793 453.306 178.793C452.699 178.793 452.231 178.971 451.901 179.328C451.584 179.671 451.425 180.093 451.425 180.595ZM462.375 190H459.999V176.239H462.375V184.674L465.919 179.961H468.691L465.009 184.753L468.771 190H465.979L462.375 184.812V190ZM484.58 190H482.184V183.842C482.184 182.496 481.669 181.823 480.64 181.823C480.125 181.823 479.663 182.047 479.254 182.496C478.858 182.945 478.66 183.651 478.66 184.614V190H476.264V183.842C476.264 182.496 475.749 181.823 474.72 181.823C474.205 181.823 473.743 182.047 473.334 182.496C472.924 182.945 472.72 183.651 472.72 184.614V190H470.344V179.961H472.72V181.545C473.287 180.41 474.231 179.843 475.551 179.843C477.016 179.843 477.967 180.476 478.402 181.743C478.666 181.136 479.062 180.668 479.59 180.338C480.118 180.008 480.719 179.843 481.392 179.843C482.409 179.843 483.194 180.153 483.748 180.773C484.303 181.38 484.58 182.252 484.58 183.387V190ZM495.605 184.357L495.427 184.931H499.189L499.011 184.337C498.562 182.912 498.192 181.717 497.902 180.753C497.625 179.777 497.453 179.163 497.387 178.912L497.308 178.516C497.189 179.176 496.621 181.123 495.605 184.357ZM493.823 190H491.209L495.724 176.655H498.951L503.466 190H500.773L499.822 186.971H494.773L493.823 190ZM509.996 190H507.422L504.254 179.961H506.729L507.64 183.268C507.904 184.218 508.122 185.07 508.293 185.822C508.478 186.561 508.59 187.063 508.63 187.327L508.709 187.723C508.841 186.918 509.224 185.433 509.858 183.268L510.828 179.961H512.986L513.956 183.268C514.247 184.245 514.484 185.109 514.669 185.862C514.867 186.601 514.992 187.096 515.045 187.347L515.105 187.743C515.237 186.964 515.626 185.472 516.273 183.268L517.223 179.961H519.599L516.411 190H513.837L512.946 186.713C512.709 185.855 512.504 185.076 512.333 184.377C512.161 183.664 512.049 183.176 511.996 182.912L511.917 182.496C511.745 183.367 511.402 184.773 510.887 186.713L509.996 190ZM524.585 188.317C525.113 188.317 525.522 188.165 525.812 187.862C526.116 187.545 526.268 187.136 526.268 186.634V185.684H525.04C524.42 185.684 523.944 185.816 523.614 186.08C523.284 186.33 523.119 186.654 523.119 187.05C523.119 187.895 523.608 188.317 524.585 188.317ZM526.367 188.792C525.905 189.65 525.033 190.079 523.753 190.079C522.803 190.079 522.044 189.802 521.476 189.248C520.922 188.693 520.644 187.994 520.644 187.149C520.644 186.198 521.001 185.453 521.714 184.911C522.426 184.37 523.456 184.1 524.802 184.1H526.268V183.486C526.268 182.931 526.122 182.509 525.832 182.219C525.542 181.928 525.047 181.783 524.347 181.783C523.278 181.783 522.294 182.08 521.397 182.674V180.476C522.149 180.014 523.232 179.783 524.644 179.783C527.363 179.783 528.723 181.05 528.723 183.585V190H526.367V188.792ZM536.323 189.723C535.319 192.402 533.788 193.742 531.729 193.742C531.346 193.742 531.016 193.709 530.739 193.643V191.683C530.95 191.736 531.175 191.762 531.412 191.762C532.613 191.762 533.465 191.109 533.966 189.802L530.006 179.961H532.64L533.808 183.169C534.164 184.119 534.448 184.918 534.659 185.565C534.884 186.212 535.022 186.621 535.075 186.792L535.135 187.07C535.267 186.608 535.689 185.307 536.402 183.169L537.451 179.961H539.946L536.323 189.723Z" fill="#0B2149"/>
<path d="M127.445 111.147C127.445 112.335 127.016 113.286 126.158 113.998C125.313 114.698 124.197 115.048 122.811 115.048C121.307 115.048 120.059 114.764 119.069 114.196V111.642C120.204 112.461 121.445 112.87 122.792 112.87C123.399 112.87 123.887 112.725 124.257 112.434C124.626 112.131 124.811 111.728 124.811 111.226C124.811 110.989 124.765 110.778 124.673 110.593C124.58 110.408 124.389 110.223 124.098 110.038C123.821 109.854 123.603 109.722 123.445 109.642C123.3 109.563 122.99 109.418 122.514 109.207C122.382 109.141 122.283 109.095 122.217 109.068C121.729 108.844 121.333 108.646 121.029 108.474C120.726 108.289 120.396 108.045 120.039 107.742C119.683 107.438 119.412 107.075 119.228 106.653C119.056 106.23 118.97 105.748 118.97 105.207C118.97 104.072 119.386 103.161 120.218 102.475C121.062 101.788 122.178 101.445 123.564 101.445C124.818 101.445 125.9 101.663 126.811 102.099V104.514C125.821 103.92 124.765 103.623 123.643 103.623C123.023 103.623 122.534 103.762 122.178 104.039C121.835 104.316 121.663 104.673 121.663 105.108C121.663 105.544 121.848 105.907 122.217 106.197C122.6 106.474 123.168 106.785 123.92 107.128C124.448 107.365 124.877 107.577 125.207 107.761C125.537 107.933 125.894 108.177 126.276 108.494C126.672 108.811 126.963 109.194 127.148 109.642C127.346 110.078 127.445 110.58 127.445 111.147ZM135.079 114.652C134.617 114.876 134.023 114.988 133.297 114.988C131.132 114.988 130.05 113.893 130.05 111.702V106.633H128.545V104.851H130.05V102.435H132.426V104.851H134.921V106.633H132.426V111.741C132.426 112.164 132.538 112.487 132.763 112.711C132.987 112.923 133.297 113.028 133.693 113.028C134.195 113.028 134.657 112.89 135.079 112.612V114.652ZM146.185 109.84C146.185 111.358 145.756 112.606 144.898 113.583C144.053 114.559 142.865 115.048 141.334 115.048C139.816 115.048 138.628 114.573 137.77 113.622C136.925 112.672 136.503 111.457 136.503 109.979C136.503 108.448 136.945 107.187 137.829 106.197C138.714 105.194 139.882 104.692 141.334 104.692C142.878 104.692 144.073 105.181 144.918 106.158C145.763 107.121 146.185 108.349 146.185 109.84ZM138.998 109.9C138.998 110.824 139.202 111.596 139.611 112.216C140.021 112.837 140.601 113.147 141.354 113.147C142.133 113.147 142.72 112.843 143.116 112.236C143.512 111.629 143.71 110.857 143.71 109.92C143.71 108.956 143.519 108.171 143.136 107.563C142.753 106.943 142.152 106.633 141.334 106.633C140.582 106.633 140.001 106.943 139.592 107.563C139.196 108.184 138.998 108.963 138.998 109.9ZM150.609 118.671H148.233V104.851H150.609V106.395C151.322 105.273 152.345 104.712 153.678 104.712C154.985 104.712 156.021 105.181 156.787 106.118C157.565 107.055 157.955 108.289 157.955 109.821C157.955 111.325 157.565 112.573 156.787 113.563C156.021 114.54 154.978 115.028 153.658 115.028C152.312 115.028 151.295 114.48 150.609 113.385V118.671ZM151.361 107.504C150.86 108.019 150.609 108.784 150.609 109.801C150.609 110.817 150.853 111.603 151.342 112.157C151.83 112.711 152.417 112.989 153.104 112.989C153.817 112.989 154.397 112.718 154.846 112.177C155.295 111.622 155.519 110.85 155.519 109.86C155.519 108.87 155.295 108.105 154.846 107.563C154.397 107.009 153.83 106.732 153.143 106.732C152.457 106.732 151.863 106.989 151.361 107.504ZM172.722 114.889H164.267V112.989C165.811 111.893 167.145 110.725 168.267 109.484C169.389 108.23 169.95 107.101 169.95 106.098C169.95 105.438 169.758 104.923 169.375 104.554C168.993 104.184 168.438 103.999 167.712 103.999C166.617 103.999 165.567 104.409 164.564 105.227V102.91C165 102.58 165.541 102.31 166.188 102.099C166.834 101.887 167.481 101.782 168.128 101.782C169.395 101.782 170.425 102.132 171.217 102.831C172.022 103.518 172.425 104.488 172.425 105.742C172.425 108.091 170.801 110.461 167.554 112.85H172.722V114.889ZM184.405 110.652H179.376V108.652H184.405V110.652ZM193.921 114.889H191.426L192.495 101.544H195.347L197.168 106.395C197.485 107.214 197.782 108.032 198.059 108.85C198.336 109.656 198.534 110.256 198.653 110.652L198.831 111.266C199.241 109.893 199.808 108.27 200.534 106.395L202.395 101.544H205.247L206.553 114.889H204.059L203.583 109.682L203.227 105.009C202.752 106.369 202.184 107.926 201.524 109.682L199.663 114.691H197.96L196.139 109.682L194.574 105.069C194.574 105.715 194.489 107.253 194.317 109.682L193.921 114.889ZM212.432 113.206C212.96 113.206 213.369 113.055 213.659 112.751C213.963 112.434 214.115 112.025 214.115 111.523V110.573H212.887C212.267 110.573 211.791 110.705 211.461 110.969C211.131 111.22 210.966 111.543 210.966 111.939C210.966 112.784 211.455 113.206 212.432 113.206ZM214.214 113.682C213.752 114.54 212.88 114.969 211.6 114.969C210.65 114.969 209.891 114.691 209.323 114.137C208.769 113.583 208.491 112.883 208.491 112.038C208.491 111.088 208.848 110.342 209.561 109.801C210.273 109.26 211.303 108.989 212.649 108.989H214.115V108.375C214.115 107.821 213.969 107.398 213.679 107.108C213.389 106.818 212.894 106.672 212.194 106.672C211.125 106.672 210.141 106.969 209.244 107.563V105.366C209.996 104.904 211.079 104.673 212.491 104.673C215.21 104.673 216.57 105.94 216.57 108.474V114.889H214.214V113.682ZM221.398 114.889H219.002L219.022 104.851H221.398V106.633C221.86 105.392 222.705 104.772 223.932 104.772C224.209 104.772 224.434 104.791 224.605 104.831V107.128C224.302 106.996 223.965 106.93 223.596 106.93C222.949 106.93 222.421 107.194 222.012 107.722C221.602 108.25 221.398 108.91 221.398 109.702V114.889ZM233.269 114.454C232.569 114.863 231.698 115.068 230.655 115.068C229.111 115.068 227.857 114.579 226.893 113.602C225.943 112.626 225.467 111.391 225.467 109.9C225.481 108.435 225.956 107.2 226.893 106.197C227.843 105.194 229.137 104.692 230.774 104.692C231.751 104.692 232.582 104.877 233.269 105.247V107.346C232.609 106.923 231.856 106.712 231.011 106.712C230.087 106.712 229.342 107.002 228.774 107.583C228.206 108.164 227.916 108.936 227.903 109.9C227.929 110.85 228.213 111.616 228.754 112.197C229.309 112.777 230.054 113.068 230.992 113.068C231.81 113.068 232.569 112.843 233.269 112.395V114.454ZM244.45 109.84C244.45 111.358 244.021 112.606 243.163 113.583C242.318 114.559 241.13 115.048 239.599 115.048C238.081 115.048 236.893 114.573 236.035 113.622C235.19 112.672 234.768 111.457 234.768 109.979C234.768 108.448 235.21 107.187 236.095 106.197C236.979 105.194 238.147 104.692 239.599 104.692C241.144 104.692 242.338 105.181 243.183 106.158C244.028 107.121 244.45 108.349 244.45 109.84ZM237.263 109.9C237.263 110.824 237.467 111.596 237.877 112.216C238.286 112.837 238.867 113.147 239.619 113.147C240.398 113.147 240.985 112.843 241.381 112.236C241.777 111.629 241.975 110.857 241.975 109.92C241.975 108.956 241.784 108.171 241.401 107.563C241.018 106.943 240.418 106.633 239.599 106.633C238.847 106.633 238.266 106.943 237.857 107.563C237.461 108.184 237.263 108.963 237.263 109.9ZM255.646 109.84C255.646 111.358 255.217 112.606 254.359 113.583C253.514 114.559 252.326 115.048 250.795 115.048C249.277 115.048 248.089 114.573 247.231 113.622C246.386 112.672 245.964 111.457 245.964 109.979C245.964 108.448 246.406 107.187 247.29 106.197C248.175 105.194 249.343 104.692 250.795 104.692C252.339 104.692 253.534 105.181 254.379 106.158C255.223 107.121 255.646 108.349 255.646 109.84ZM248.458 109.9C248.458 110.824 248.663 111.596 249.072 112.216C249.481 112.837 250.062 113.147 250.815 113.147C251.593 113.147 252.181 112.843 252.577 112.236C252.973 111.629 253.171 110.857 253.171 109.92C253.171 108.956 252.979 108.171 252.597 107.563C252.214 106.943 251.613 106.633 250.795 106.633C250.042 106.633 249.462 106.943 249.052 107.563C248.656 108.184 248.458 108.963 248.458 109.9ZM260.169 114.889H257.793V100.891H260.169V114.889ZM266.282 113.206C266.81 113.206 267.219 113.055 267.51 112.751C267.813 112.434 267.965 112.025 267.965 111.523V110.573H266.738C266.117 110.573 265.642 110.705 265.312 110.969C264.982 111.22 264.817 111.543 264.817 111.939C264.817 112.784 265.305 113.206 266.282 113.206ZM268.064 113.682C267.602 114.54 266.731 114.969 265.451 114.969C264.5 114.969 263.741 114.691 263.174 114.137C262.619 113.583 262.342 112.883 262.342 112.038C262.342 111.088 262.698 110.342 263.411 109.801C264.124 109.26 265.154 108.989 266.5 108.989H267.965V108.375C267.965 107.821 267.82 107.398 267.53 107.108C267.239 106.818 266.744 106.672 266.045 106.672C264.975 106.672 263.992 106.969 263.094 107.563V105.366C263.847 104.904 264.929 104.673 266.342 104.673C269.061 104.673 270.42 105.94 270.42 108.474V114.889H268.064V113.682Z" fill="#0B2149"/>
<path d="M127.445 186.455C127.445 187.643 127.016 188.594 126.158 189.307C125.313 190.006 124.197 190.356 122.811 190.356C121.307 190.356 120.059 190.072 119.069 189.505V186.95C120.204 187.769 121.445 188.178 122.792 188.178C123.399 188.178 123.887 188.033 124.257 187.742C124.626 187.439 124.811 187.036 124.811 186.535C124.811 186.297 124.765 186.086 124.673 185.901C124.58 185.716 124.389 185.531 124.098 185.347C123.821 185.162 123.603 185.03 123.445 184.951C123.3 184.871 122.99 184.726 122.514 184.515C122.382 184.449 122.283 184.403 122.217 184.376C121.729 184.152 121.333 183.954 121.029 183.782C120.726 183.598 120.396 183.353 120.039 183.05C119.683 182.746 119.412 182.383 119.228 181.961C119.056 181.538 118.97 181.057 118.97 180.515C118.97 179.38 119.386 178.469 120.218 177.783C121.062 177.097 122.178 176.753 123.564 176.753C124.818 176.753 125.9 176.971 126.811 177.407V179.822C125.821 179.228 124.765 178.931 123.643 178.931C123.023 178.931 122.534 179.07 122.178 179.347C121.835 179.624 121.663 179.981 121.663 180.416C121.663 180.852 121.848 181.215 122.217 181.505C122.6 181.783 123.168 182.093 123.92 182.436C124.448 182.674 124.877 182.885 125.207 183.07C125.537 183.241 125.894 183.485 126.276 183.802C126.672 184.119 126.963 184.502 127.148 184.951C127.346 185.386 127.445 185.888 127.445 186.455ZM135.079 189.96C134.617 190.184 134.023 190.297 133.297 190.297C131.132 190.297 130.05 189.201 130.05 187.01V181.941H128.545V180.159H130.05V177.743H132.426V180.159H134.921V181.941H132.426V187.049C132.426 187.472 132.538 187.795 132.763 188.02C132.987 188.231 133.297 188.336 133.693 188.336C134.195 188.336 134.657 188.198 135.079 187.921V189.96ZM146.185 185.149C146.185 186.667 145.756 187.914 144.898 188.891C144.053 189.868 142.865 190.356 141.334 190.356C139.816 190.356 138.628 189.881 137.77 188.93C136.925 187.98 136.503 186.766 136.503 185.287C136.503 183.756 136.945 182.495 137.829 181.505C138.714 180.502 139.882 180.001 141.334 180.001C142.878 180.001 144.073 180.489 144.918 181.466C145.763 182.429 146.185 183.657 146.185 185.149ZM138.998 185.208C138.998 186.132 139.202 186.904 139.611 187.525C140.021 188.145 140.601 188.455 141.354 188.455C142.133 188.455 142.72 188.152 143.116 187.544C143.512 186.937 143.71 186.165 143.71 185.228C143.71 184.264 143.519 183.479 143.136 182.872C142.753 182.251 142.152 181.941 141.334 181.941C140.582 181.941 140.001 182.251 139.592 182.872C139.196 183.492 138.998 184.271 138.998 185.208ZM150.609 193.979H148.233V180.159H150.609V181.703C151.322 180.581 152.345 180.02 153.678 180.02C154.985 180.02 156.021 180.489 156.787 181.426C157.565 182.363 157.955 183.598 157.955 185.129C157.955 186.634 157.565 187.881 156.787 188.871C156.021 189.848 154.978 190.336 153.658 190.336C152.312 190.336 151.295 189.788 150.609 188.693V193.979ZM151.361 182.812C150.86 183.327 150.609 184.093 150.609 185.109C150.609 186.125 150.853 186.911 151.342 187.465C151.83 188.02 152.417 188.297 153.104 188.297C153.817 188.297 154.397 188.026 154.846 187.485C155.295 186.931 155.519 186.158 155.519 185.168C155.519 184.178 155.295 183.413 154.846 182.872C154.397 182.317 153.83 182.04 153.143 182.04C152.457 182.04 151.863 182.297 151.361 182.812ZM172.227 186.634C172.227 187.716 171.824 188.6 171.019 189.287C170.227 189.96 169.111 190.297 167.673 190.297C166.339 190.297 165.204 190.079 164.267 189.643V187.327C165.297 187.881 166.379 188.158 167.514 188.158C168.227 188.158 168.781 187.993 169.177 187.663C169.587 187.32 169.791 186.884 169.791 186.356C169.791 185.208 168.861 184.634 166.999 184.634H166.247V182.634H166.999C167.699 182.634 168.286 182.482 168.762 182.179C169.237 181.875 169.474 181.446 169.474 180.892C169.474 179.783 168.795 179.228 167.435 179.228C166.537 179.228 165.64 179.506 164.742 180.06V177.823C165.64 177.334 166.584 177.09 167.574 177.09C168.933 177.09 169.996 177.42 170.761 178.08C171.54 178.74 171.93 179.585 171.93 180.614C171.93 182.106 171.25 183.122 169.89 183.664C170.629 183.848 171.204 184.198 171.613 184.713C172.022 185.215 172.227 185.855 172.227 186.634ZM183.961 185.96H178.931V183.961H183.961V185.96ZM199.634 178.912H196.248V190.198H193.734V178.912H190.348V176.852H199.634V178.912ZM209.069 189.643C208.37 190.079 207.36 190.297 206.04 190.297C204.443 190.297 203.182 189.821 202.258 188.871C201.334 187.921 200.872 186.693 200.872 185.188C200.872 183.591 201.308 182.337 202.179 181.426C203.05 180.515 204.139 180.06 205.446 180.06C206.753 180.06 207.789 180.456 208.555 181.248C209.32 182.04 209.703 183.195 209.703 184.713C209.703 185.083 209.657 185.558 209.564 186.139H203.268C203.44 186.865 203.796 187.419 204.337 187.802C204.892 188.185 205.578 188.376 206.396 188.376C207.452 188.376 208.343 188.112 209.069 187.584V189.643ZM205.505 181.921C204.938 181.921 204.443 182.132 204.02 182.555C203.611 182.964 203.347 183.565 203.228 184.357H207.446V184.06C207.419 183.413 207.241 182.898 206.911 182.515C206.594 182.119 206.126 181.921 205.505 181.921ZM216.599 190.198H214.025L210.857 180.159H213.332L214.243 183.466C214.507 184.416 214.725 185.267 214.896 186.02C215.081 186.759 215.193 187.261 215.233 187.525L215.312 187.921C215.444 187.115 215.827 185.63 216.461 183.466L217.431 180.159H219.589L220.559 183.466C220.85 184.442 221.087 185.307 221.272 186.059C221.47 186.799 221.595 187.294 221.648 187.544L221.708 187.94C221.84 187.162 222.229 185.67 222.876 183.466L223.826 180.159H226.202L223.014 190.198H220.44L219.549 186.911C219.312 186.053 219.107 185.274 218.936 184.574C218.764 183.862 218.652 183.373 218.599 183.109L218.52 182.693C218.348 183.565 218.005 184.97 217.49 186.911L216.599 190.198ZM231.188 188.515C231.716 188.515 232.125 188.363 232.415 188.059C232.719 187.742 232.871 187.333 232.871 186.832V185.881H231.643C231.023 185.881 230.547 186.013 230.217 186.277C229.887 186.528 229.722 186.851 229.722 187.247C229.722 188.092 230.211 188.515 231.188 188.515ZM232.97 188.99C232.508 189.848 231.636 190.277 230.356 190.277C229.406 190.277 228.647 190 228.079 189.445C227.525 188.891 227.247 188.191 227.247 187.346C227.247 186.396 227.604 185.65 228.317 185.109C229.029 184.568 230.059 184.297 231.405 184.297H232.871V183.683C232.871 183.129 232.725 182.707 232.435 182.416C232.145 182.126 231.65 181.981 230.95 181.981C229.881 181.981 228.897 182.278 228 182.872V180.674C228.752 180.212 229.835 179.981 231.247 179.981C233.966 179.981 235.326 181.248 235.326 183.782V190.198H232.97V188.99ZM246.49 190.198H244.114V184.02C244.114 183.36 243.955 182.865 243.638 182.535C243.322 182.192 242.893 182.02 242.351 182.02C241.731 182.02 241.21 182.264 240.787 182.753C240.365 183.228 240.154 183.914 240.154 184.812V190.198H237.778V180.159H240.154V181.882C240.721 180.654 241.751 180.04 243.242 180.04C244.246 180.04 245.038 180.344 245.618 180.951C246.199 181.558 246.49 182.416 246.49 183.525V190.198ZM254.517 189.96C254.055 190.184 253.461 190.297 252.735 190.297C250.57 190.297 249.488 189.201 249.488 187.01V181.941H247.983V180.159H249.488V177.743H251.864V180.159H254.359V181.941H251.864V187.049C251.864 187.472 251.976 187.795 252.201 188.02C252.425 188.231 252.735 188.336 253.131 188.336C253.633 188.336 254.095 188.198 254.517 187.921V189.96ZM258.951 190.198H256.575V180.159H258.951V190.198ZM259.188 177.149C259.188 177.559 259.05 177.902 258.772 178.179C258.495 178.456 258.159 178.595 257.763 178.595C257.367 178.595 257.03 178.456 256.753 178.179C256.476 177.902 256.337 177.559 256.337 177.149C256.337 176.753 256.476 176.417 256.753 176.14C257.03 175.862 257.367 175.724 257.763 175.724C258.159 175.724 258.495 175.862 258.772 176.14C259.05 176.417 259.188 176.753 259.188 177.149ZM270.331 190.198H267.955V184.02C267.955 183.36 267.796 182.865 267.48 182.535C267.163 182.192 266.734 182.02 266.193 182.02C265.572 182.02 265.051 182.264 264.628 182.753C264.206 183.228 263.995 183.914 263.995 184.812V190.198H261.619V180.159H263.995V181.882C264.562 180.654 265.592 180.04 267.084 180.04C268.087 180.04 268.879 180.344 269.46 180.951C270.04 181.558 270.331 182.416 270.331 183.525V190.198Z" fill="#0B2149"/>
<path d="M336.782 115.119H334.425V104.743L331.257 106.664V104.189L334.683 102.169H336.782V115.119ZM347.363 110.901C347.363 112.221 346.927 113.277 346.056 114.069C345.185 114.861 343.964 115.257 342.393 115.257C341.033 115.257 339.891 115.026 338.967 114.564V112.287C339.839 112.815 340.848 113.079 341.997 113.079C343.937 113.079 344.907 112.333 344.907 110.842C344.907 110.261 344.696 109.806 344.274 109.476C343.865 109.146 343.277 108.981 342.512 108.981C341.508 108.981 340.525 109.205 339.561 109.654V102.15H346.531V104.189H341.898V107.04C342.281 106.961 342.65 106.921 343.007 106.921C344.393 106.921 345.462 107.278 346.214 107.991C346.98 108.703 347.363 109.674 347.363 110.901ZM351.776 106.05C352.08 106.341 352.232 106.697 352.232 107.119C352.232 107.542 352.08 107.905 351.776 108.208C351.486 108.499 351.129 108.644 350.707 108.644C350.285 108.644 349.928 108.499 349.638 108.208C349.347 107.905 349.202 107.542 349.202 107.119C349.202 106.697 349.347 106.341 349.638 106.05C349.928 105.747 350.285 105.595 350.707 105.595C351.129 105.595 351.486 105.747 351.776 106.05ZM351.776 112.545C352.08 112.835 352.232 113.191 352.232 113.614C352.232 114.036 352.08 114.393 351.776 114.683C351.486 114.973 351.129 115.119 350.707 115.119C350.285 115.119 349.928 114.973 349.638 114.683C349.347 114.393 349.202 114.036 349.202 113.614C349.202 113.191 349.347 112.835 349.638 112.545C349.928 112.241 350.285 112.089 350.707 112.089C351.129 112.089 351.486 112.241 351.776 112.545ZM363.411 108.585C363.411 110.617 363.008 112.241 362.203 113.455C361.411 114.67 360.256 115.277 358.738 115.277C357.26 115.277 356.118 114.67 355.313 113.455C354.507 112.241 354.105 110.617 354.105 108.585C354.105 106.539 354.507 104.922 355.313 103.734C356.118 102.532 357.26 101.932 358.738 101.932C360.23 101.932 361.378 102.532 362.183 103.734C363.002 104.922 363.411 106.539 363.411 108.585ZM357.134 105.258C356.738 106.024 356.54 107.133 356.54 108.585C356.54 110.037 356.732 111.159 357.114 111.951C357.51 112.729 358.052 113.119 358.738 113.119C359.451 113.119 359.999 112.729 360.381 111.951C360.777 111.172 360.975 110.05 360.975 108.585C360.975 107.119 360.771 106.004 360.362 105.238C359.966 104.473 359.424 104.09 358.738 104.09C358.065 104.09 357.53 104.479 357.134 105.258ZM374.14 110.921C374.14 112.228 373.744 113.31 372.952 114.168C372.16 115.013 371.085 115.435 369.725 115.435C368.181 115.435 367.006 114.874 366.201 113.752C365.395 112.617 364.993 111.106 364.993 109.218C364.993 107.027 365.567 105.258 366.715 103.912C367.864 102.552 369.362 101.872 371.21 101.872C371.923 101.872 372.57 101.978 373.15 102.189V104.427C372.636 104.163 372.042 104.031 371.368 104.031C370.312 104.031 369.454 104.387 368.794 105.1C368.134 105.813 367.712 106.73 367.527 107.852C368.319 107.126 369.256 106.763 370.339 106.763C371.487 106.763 372.405 107.139 373.091 107.892C373.791 108.644 374.14 109.654 374.14 110.921ZM369.745 113.297C370.339 113.297 370.807 113.086 371.151 112.663C371.507 112.228 371.685 111.654 371.685 110.941C371.685 110.294 371.514 109.779 371.17 109.396C370.827 109.014 370.359 108.822 369.765 108.822C368.907 108.822 368.128 109.185 367.428 109.911C367.507 111.073 367.752 111.931 368.161 112.485C368.583 113.026 369.111 113.297 369.745 113.297Z" fill="#0B2149"/>
<path d="M336.782 190.427H334.425V180.052L331.257 181.972V179.497L334.683 177.478H336.782V190.427ZM347.363 186.209C347.363 187.529 346.927 188.585 346.056 189.377C345.185 190.169 343.964 190.565 342.393 190.565C341.033 190.565 339.891 190.334 338.967 189.872V187.595C339.839 188.123 340.848 188.387 341.997 188.387C343.937 188.387 344.907 187.642 344.907 186.15C344.907 185.569 344.696 185.114 344.274 184.784C343.865 184.454 343.277 184.289 342.512 184.289C341.508 184.289 340.525 184.513 339.561 184.962V177.458H346.531V179.497H341.898V182.348C342.281 182.269 342.65 182.23 343.007 182.23C344.393 182.23 345.462 182.586 346.214 183.299C346.98 184.012 347.363 184.982 347.363 186.209ZM351.776 181.358C352.08 181.649 352.232 182.005 352.232 182.428C352.232 182.85 352.08 183.213 351.776 183.517C351.486 183.807 351.129 183.952 350.707 183.952C350.285 183.952 349.928 183.807 349.638 183.517C349.347 183.213 349.202 182.85 349.202 182.428C349.202 182.005 349.347 181.649 349.638 181.358C349.928 181.055 350.285 180.903 350.707 180.903C351.129 180.903 351.486 181.055 351.776 181.358ZM351.776 187.853C352.08 188.143 352.232 188.5 352.232 188.922C352.232 189.344 352.08 189.701 351.776 189.991C351.486 190.282 351.129 190.427 350.707 190.427C350.285 190.427 349.928 190.282 349.638 189.991C349.347 189.701 349.202 189.344 349.202 188.922C349.202 188.5 349.347 188.143 349.638 187.853C349.928 187.549 350.285 187.397 350.707 187.397C351.129 187.397 351.486 187.549 351.776 187.853ZM356.402 185.477H359.807V178.963L356.402 185.477ZM362.183 190.427H359.807V187.516H354.045V185.477L358.362 177.458H362.183V185.477H363.886V187.516H362.183V190.427ZM367.365 185.477H370.771V178.963L367.365 185.477ZM373.147 190.427H370.771V187.516H365.009V185.477L369.325 177.458H373.147V185.477H374.849V187.516H373.147V190.427Z" fill="#0B2149"/>
<ellipse cx="97.5001" cy="39.7609" rx="6.5" ry="6.70553" fill="#0B2149"/>
<ellipse cx="97.5001" cy="108.879" rx="6.5" ry="6.70553" fill="#0B2149"/>
<ellipse cx="97.5001" cy="184.188" rx="6.5" ry="6.70553" fill="#0B2149"/>
<line x1="97.5" y1="40.2767" x2="97.5" y2="108.364" stroke="#0B2149" stroke-width="3"/>
<line x1="97.5" y1="112.49" x2="97.5" y2="183.672" stroke="#0B2149" stroke-width="3"/>
</svg>
