<?xml version="1.0" encoding="UTF-8" standalone="no"?>
<!-- Created with Inkscape (http://www.inkscape.org/) -->

<svg
   version="1.1"
   id="svg2"
   width="264.58667"
   height="137.65334"
   viewBox="0 0 264.58667 137.65334"
   sodipodi:docname="CardiniaSC_Logo_CMYK.eps"
   xmlns:inkscape="http://www.inkscape.org/namespaces/inkscape"
   xmlns:sodipodi="http://sodipodi.sourceforge.net/DTD/sodipodi-0.dtd"
   xmlns="http://www.w3.org/2000/svg"
   xmlns:svg="http://www.w3.org/2000/svg">
  <defs
     id="defs6" />
  <sodipodi:namedview
     id="namedview4"
     pagecolor="#ffffff"
     bordercolor="#000000"
     borderopacity="0.25"
     inkscape:showpageshadow="2"
     inkscape:pageopacity="0.0"
     inkscape:pagecheckerboard="0"
     inkscape:deskcolor="#d1d1d1" />
  <g
     id="g8"
     inkscape:groupmode="layer"
     inkscape:label="ink_ext_XXXXXX"
     transform="matrix(1.3333333,0,0,-1.3333333,0,137.65333)">
    <g
       id="g10"
       transform="scale(0.1)">
      <path
         d="m 250.957,148.848 c -6.16,-55.9808 -42.441,-86.7191 -81.184,-86.7191 -43.054,0 -89.8121,33.8242 -89.8121,151.3091 0,36.89 4.9219,149.453 87.3361,149.453 62.144,0 76.289,-60.278 83.66,-92.871 l 68.887,7.378 C 305.078,367.203 254.043,422.535 166.699,422.535 49.2188,422.535 0,317.984 0,211.578 0,140.84 26.457,0 164.238,0 229.441,0 303.855,32.6133 319.844,140.84 Z m 351.824,55.347 c 0,38.149 0,62.129 -31.363,89.184 -20.922,17.851 -59.055,22.144 -92.277,22.144 -61.504,0 -125.457,-18.433 -137.161,-86.714 l 58.442,-8.618 c 3.074,13.539 10.457,46.758 70.738,46.758 30.742,0 64.582,-8.008 64.582,-46.758 v -22.75 C 470.535,198.672 332.766,195.582 332.766,93.4922 332.766,43.6719 367.82,0 433.02,0 c 72.578,0 93.503,46.1328 102.722,67.6758 1.836,-24.6289 3.074,-36.9375 11.055,-61.52736 h 65.207 c -3.066,10.45316 -9.223,32.59766 -9.223,61.52736 z m -67.039,-71.343 c 0,-23.989 -12.304,-81.1957 -79.347,-81.1957 -48.59,0 -53.512,34.4531 -53.512,45.5312 0,38.7505 36.277,49.1995 49.812,53.4965 13.543,3.711 39.981,9.839 83.047,9.839 z M 663.059,6.14844 h 68.257 V 129.156 c 0,46.742 11.086,76.899 22.766,90.434 22.141,25.215 47.356,24.59 63.359,24.59 v 73.804 c -64.582,3.086 -85.5,-59.043 -92.878,-81.168 v 72.579 h -61.504 z m 430.541,0 V 416.402 h -68.28 V 268.16 c -19.68,43.695 -51.043,53.52 -81.179,53.52 -92.879,0 -118.719,-100.879 -118.719,-159.907 C 825.422,129.156 834.656,0 940.438,0 c 60.902,0 80.592,46.7344 89.202,67.0508 V 6.14844 Z M 1025.32,133.477 c 0,-48.5942 -33.203,-77.5004 -64.578,-77.5004 -61.504,0 -62.746,80.5624 -62.746,101.4804 0,25.82 3.09,105.781 64.602,105.781 16.601,0 36.281,-7.984 46.742,-22.754 12.31,-17.222 15.98,-28.906 15.98,-55.347 z m 197.44,176.503 h -68.28 V 6.14844 h 68.28 z m 0,106.422 h -68.28 v -71.343 h 68.28 z m 60.9,-410.25356 h 68.26 V 148.223 c 0,103.965 52.27,107.632 67.07,107.632 11.66,0 46.72,-1.207 46.72,-71.328 V 6.14844 h 68.26 V 185.738 c 0,39.985 1.86,129.785 -96.56,129.785 -56.58,0 -79.94,-51.035 -91.62,-76.25 v 70.122 h -62.13 z M 1663.13,309.98 h -68.28 V 6.14844 h 68.28 z m 311.25,-105.785 c 0,38.149 0,62.129 -31.38,89.184 -20.92,17.851 -59.04,22.144 -92.27,22.144 -61.48,0 -125.47,-18.433 -137.15,-86.714 l 58.44,-8.618 c 3.07,13.539 10.43,46.758 70.72,46.758 30.77,0 64.57,-8.008 64.57,-46.758 v -22.75 C 1842.14,198.672 1704.37,195.582 1704.37,93.4922 1704.37,43.6719 1739.42,0 1804.62,0 c 72.56,0 93.48,46.1328 102.69,67.6758 1.88,-24.6289 3.09,-36.9375 11.1,-61.52736 h 65.19 c -3.08,10.45316 -9.22,32.59766 -9.22,61.52736 z m -67.07,-71.343 c 0,-23.989 -12.28,-81.1957 -79.33,-81.1957 -48.58,0 -53.5,34.4531 -53.5,45.5312 0,38.7505 36.27,49.1995 49.83,53.4965 13.51,3.711 39.98,9.839 83,9.839 v -27.671"
         style="fill:#253686;fill-opacity:1;fill-rule:nonzero;stroke:none"
         id="path12" />
      <path
         d="m 1422.88,981.777 c -106.17,-87.812 -148.38,-237.406 -94.04,-371.972 67.19,-166.289 256.48,-246.66 422.79,-179.453 85.51,34.531 148.28,101.367 179.98,180.757"
         style="fill:none;stroke:#fcce06;stroke-width:20.36;stroke-linecap:butt;stroke-linejoin:miter;stroke-miterlimit:4;stroke-dasharray:none;stroke-opacity:1"
         id="path14" />
      <path
         d="m 1625.5,1023.26 c -15.28,-0.27 -30.71,-1.72 -46.21,-4.47 -158.97,-28.009 -265.12,-179.61 -237.07,-338.599 28.02,-158.984 179.61,-265.117 338.59,-237.086 123.18,21.739 214.67,117.657 236.56,233.711"
         style="fill:none;stroke:#fcce06;stroke-width:18.32;stroke-linecap:butt;stroke-linejoin:miter;stroke-miterlimit:4;stroke-dasharray:none;stroke-opacity:1"
         id="path16" />
      <path
         d="M 1584.38,990.02 C 1441.3,964.805 1345.75,828.355 1370.99,685.273 c 25.23,-143.07 161.66,-238.617 304.74,-213.378 104.96,18.496 184.34,96.851 209.22,193.789"
         style="fill:none;stroke:#fcce06;stroke-width:16.5;stroke-linecap:butt;stroke-linejoin:miter;stroke-miterlimit:4;stroke-dasharray:none;stroke-opacity:1"
         id="path18" />
      <path
         d="m 1665.93,965.039 c -24.9,3.828 -50.82,3.672 -76.99,-0.918 -128.77,-22.715 -214.75,-145.512 -192.06,-274.277 22.7,-128.774 145.51,-214.77 274.3,-192.055 70.04,12.348 127.42,54.34 161.53,110.766"
         style="fill:none;stroke:#fcce06;stroke-width:14.84;stroke-linecap:butt;stroke-linejoin:miter;stroke-miterlimit:4;stroke-dasharray:none;stroke-opacity:1"
         id="path20" />
      <path
         d="m 1566.01,934.195 c -100.59,-31.558 -164.59,-133.629 -145.8,-240.254 20.44,-115.875 130.97,-193.281 246.85,-172.832 74.18,13.071 132.58,63.047 159.63,127.715"
         style="fill:none;stroke:#fcce06;stroke-width:13.36;stroke-linecap:butt;stroke-linejoin:miter;stroke-miterlimit:4;stroke-dasharray:none;stroke-opacity:1"
         id="path22" />
      <path
         d="m 1800.79,806.988 c -36.27,40.766 -93.65,60.024 -149.94,44.946 -12.95,-3.457 -25.04,-8.536 -36.13,-14.961"
         style="fill:none;stroke:#253686;stroke-width:14.64;stroke-linecap:butt;stroke-linejoin:miter;stroke-miterlimit:4;stroke-dasharray:none;stroke-opacity:1"
         id="path24" />
      <path
         d="m 1790.28,775.684 c -28.18,42.793 -81.54,64.863 -133.67,50.757 -31.07,-8.418 -48.92,-22.949 -60.14,-35.41"
         style="fill:none;stroke:#253686;stroke-width:19.04;stroke-linecap:butt;stroke-linejoin:miter;stroke-miterlimit:4;stroke-dasharray:none;stroke-opacity:1"
         id="path26" />
      <path
         d="m 1782.08,730.855 c 10.39,112.075 84.57,191.411 181.52,217.403 6.35,1.683 12.68,3.109 19.03,4.301"
         style="fill:none;stroke:#253686;stroke-width:19.04;stroke-linecap:butt;stroke-linejoin:miter;stroke-miterlimit:4;stroke-dasharray:none;stroke-opacity:1"
         id="path28" />
      <path
         d="m 1840.89,774.234 c 14.96,46.645 42.34,80.493 85.72,105.024"
         style="fill:none;stroke:#253686;stroke-width:11.72;stroke-linecap:butt;stroke-linejoin:miter;stroke-miterlimit:4;stroke-dasharray:none;stroke-opacity:1"
         id="path30" />
      <path
         d="m 1812.41,757.398 c 13.19,65.454 66.8,136.582 137.03,156.118"
         style="fill:none;stroke:#253686;stroke-width:14.64;stroke-linecap:butt;stroke-linejoin:miter;stroke-miterlimit:4;stroke-dasharray:none;stroke-opacity:1"
         id="path32" />
    </g>
  </g>
</svg>
