
        <svg xmlns="http://www.w3.org/2000/svg" xmlns:xlink="http://www.w3.org/1999/xlink" version="1.1" width="3147.0588235294117" 
        height="985.2941176470588" viewBox="0 0 3147.0588235294117 985.2941176470588">
			
			<g transform="scale(7.352941176470588) translate(10, 10)">
				<defs id="SvgjsDefs52272"></defs><g id="SvgjsG52273" featureKey="LwVBM5-0" transform="matrix(1.0232622319278981,0,0,1.0232622319278981,-11.98617051787759,5.847151935645423)" fill="#111111"><g xmlns="http://www.w3.org/2000/svg"><path d="M17.938,18.375c2.229-2.792,4.257-4.494,6.438-6.625c1.584-1.549,2.814-3.332,4.626-4.498   c5.021-3.231,10.907-4.842,17.615-4.024c1.874,0.229,1.81-2.597-0.061-2.835C33.184-1.309,22.886,6.085,15.812,17   C14.783,18.589,16.765,19.844,17.938,18.375z"></path><path d="M14.167,31.75c1.679-5.999,2.31-6.568,6.903-10.749c0.87-0.792,1.38-1.193,2.226-1.708   c1.611-0.981,3.205-1.231,4.481-0.609c0.526,0.256,1.661,0.972,2.53,1.188c1.89,0.471,3.677,0.292,5.304-0.731   c3.268-2.056,5.792-3.048,9.755-3.475c1.876-0.202,2.006-2.434,0.122-2.561c-3.628-0.244-5.446,0.611-8.353,1.86   c-1.375,0.59-2.439,1.402-4.085,1.798c-2.688,0.647-4.299-1.402-2.469-3.811c0.931-1.28,2.282-2.3,3.658-3.17   c4.237-2.683,14.297-5.061,16.432,2.622c0.337,1.213,1.522,2.153,3.507,2.195c2.791,0.059,5.893,0.747,7.354,1.495   c1.677,0.858,2.621-0.942,1.125-2.094c-2.491-1.918-5.039-1.719-7.87-2.236c-0.886-0.162-1.679-0.821-2.226-2.012   c-0.679-1.475-1.604-3.054-3.385-3.811c-4.55-1.933-9.908-1.555-14.877,0.976c-1.655,0.843-4.385,2.494-6.55,4.75   c-3.628,3.323-5.993,5.297-9.833,8.5c-3.521,2.936-5.203,5.165-6.167,10.417C11.412,32.428,13.583,33.833,14.167,31.75z"></path><path d="M24.187,32.401c1.924-3.116,4.175-5.542,6.547-8.321c1.218-1.426-0.968-3.022-2.195-1.585   c-3.991,4.674-8.408,8.645-9.4,14.95c-0.576,3.667-2.904,5.862-3.205,6.482c-1.317,2.712-1.834,5.584-1.948,8.574   c-0.072,1.888,2.854,1.88,2.927,0c0.204-5.307,2.897-8.875,4.826-13.54C22.661,36.73,22.851,34.563,24.187,32.401z"></path><path d="M72.585,23.327c-4.899-4.491-10.959-6.033-17.412-6.709c-6.017-0.631-14.36,0.58-19.173,4.592   c-4.602,3.835-6.378,9.011-10.656,13.104c-1.366,1.307,0.356,3.21,1.719,1.906c3.08-2.947,4.916-6.169,7.554-9.488   c4.205-5.287,10.779-6.967,17.298-7.336c13.44-0.762,23.062,8.742,29.06,19.75c0.901,1.658,3.43,0.181,2.526-1.477   C80.712,32.547,76.898,27.281,72.585,23.327z"></path><path d="M58.688,72.096c0.977-5.427,0.609-14.877-4.48-17.621c-5.269-2.839-9.908,1.737-9.387,7.957   c0.798,9.527-3.304,17.786-6.93,26.377c-0.725,1.717,1.795,3.211,2.526,1.477c2.125-5.032,4.37-9.999,6.03-15.211   c0.777-2.436,0.926-4.043,1.226-6.574c0.067-0.573,0.374-3.161,0.071-5.214c-0.381-2.582-0.152-4.938,1.463-6.128   c0.965-0.71,2.319-1.053,3.89,0.167c5.088,3.948,3.426,14.009,1.301,19.604c-2.141,5.631-7.209,10.523-8.533,16.606   c-0.4,1.84,2.421,2.622,2.822,0.776c0.889-4.088,3.642-8.114,5.896-11.553C56.773,79.42,57.982,76.016,58.688,72.096z"></path><path d="M37.926,36.438c3.803-3.061,6.429-5.31,11.439-6.499c9.263-2.197,18.074,5.321,21.529,13.257   c0.75,1.728,3.271,0.235,2.525-1.477c-3.417-7.854-10.29-13.486-18.807-14.829c-3.534-0.557-7.325,0.239-10.575,1.635   c-1.751,0.751-3.588,1.538-5.019,2.837c-0.81,0.735-1.547,1.497-2.308,2.19c-0.677,0.616-1.182-0.09-0.704-0.942   c1.436-2.554,2.994-4.951,6.162-5.88c1.807-0.529,1.038-3.354-0.777-2.822c-3.104,0.909-5.192,3.476-6.986,6.122   c-2.645,3.9-3.772,6.071-8.066,8.598c-6.699,3.942-8.241,13.81-8.538,20.845c-0.08,1.889,2.848,1.881,2.927,0   c0.169-4.024,0.935-7.832,2.226-11.638c0.678-1.999,3.001-5.086,5.979-7.051C32.496,38.437,36.16,37.86,37.926,36.438z"></path><path d="M45.5,22.467c-1.825,0.475-1.051,3.297,0.777,2.822c3.273-0.851,6.679-0.942,9.975-0.164   c1.835,0.433,2.614-2.389,0.777-2.822C53.227,21.404,49.281,21.485,45.5,22.467z"></path><path d="M61.484,23.768c-1.779-0.642-2.539,2.187-0.777,2.822C73.24,31.113,80.43,46.749,82.032,59.084   c0.239,1.844,3.17,1.867,2.927,0C83.174,45.334,75.407,28.792,61.484,23.768z"></path><path d="M86.13,42.943c-0.718-1.715-3.551-0.963-2.821,0.777c2.172,5.19,4.664,11.677,3.729,17.392   c-0.523,3.193-4.955,3.047-6.434,0.488c-0.83-1.44-1.096-3.392-1.457-4.994c-0.785-3.494-1.676-6.848-3.086-10.147   c-0.738-1.731-3.26-0.238-2.525,1.477c0.744,1.746,2.773,9.284,3.842,14.375c0.282,1.345,0.777,2.486,1.77,3.322   C83.046,68.925,84,71.811,84,77.938c0,0.263-0.102,1.535-0.131,2.146c-0.383,3.887-2.488,9.687-4.115,8.108   c-0.495-0.479,0.402-2.004,0.631-2.672c0.5-1.465,0.812-2.783,1.047-4.004c0.844-4.416,0.287-8.016-0.744-10.858   c-0.742-2.046-3.183-1.429-2.75,0.405c0.74,3.137,1.031,5.5,0.531,9.438c-0.359,2.838-1.396,4.896-1.943,7.459   c-0.455,2.129,1.246,5.033,4.101,3.761c6.06-2.705,6.756-12.326,6.164-19.564c-0.16-1.957,0.556-5.303,1.257-6.521   C92.07,58.632,88.635,48.927,86.13,42.943z"></path><path d="M33.659,44.021c3.226-1.354,5.557-2.263,8.382-4.392c5.379-4.055,11.039-5.967,17.338-2.836   c1.68,0.834,2.895-1.617,1.262-2.561c-4.791-2.769-9.178-2.923-14.041-0.694c-2.688,1.233-5.115,2.804-7.44,4.627   c-2.413,1.892-5.071,2.261-7.708,3.633C23.63,45.873,20.84,58.754,21.324,66.809c0.112,1.875,3.04,1.887,2.927,0   C23.821,59.684,26.314,47.105,33.659,44.021z"></path><path d="M40.271,54.613c2.154-4.687,7.487-10.089,13.174-8.77c4.386,1.018,7.834,6.987,9.147,10.777   c0.614,1.771,3.441,1.01,2.821-0.777C62.128,46.36,53.598,39.039,44.053,45.49C31.09,54.251,39.266,70.866,31.02,82.021   c-1.124,1.52,1.417,2.976,2.526,1.477c2.478-3.352,4.166-7.328,4.706-11.48C39.034,66.016,37.626,60.365,40.271,54.613z"></path><path d="M70.109,82.48c1.342-4.471,1.926-11.08,0.347-16.057c-0.296-0.932-0.793-3.841-0.658-5.378   c0.438-5.026-3.306-11.937-5.257-15.477c-0.911-1.653-3.439-0.176-2.527,1.477c1.725,3.125,8.01,11.894,4.397,15.031   c-0.08,0.069-0.701,0.284-1.099,0.284c-2.551,0.287-3.234-4.497-4.961-7.209c-1.01-1.588-3.25-0.242-2.232,1.354   c1.189,1.873,1.439,4.19,2.716,6.023c1.062,1.528,2.222,1.725,4.134,2.948c1.523,0.976,2.608,2.53,3.018,3.994   c1.068,3.811,0.953,6.773,0.215,10.202c-0.471,2.183-1.577,4.841-3.385,6.655c-0.504,0.505-1.409-0.221-1.098-0.885   c1.334-2.831,2.424-5.584,2.846-8.475c0.268-1.845-2.553-2.64-2.822-0.777c-0.954,6.572-4.358,14.072-8.592,19.109   c-1.205,1.436,0.697,3.37,2.068,2.069c1.219-1.156,1.156-1.438,2.25-3.72c-0.375,0.906,0.812-2.219,2.781-2.688   C66.51,89.954,68.882,86.573,70.109,82.48z"></path><path d="M61.523,68.62c1.108,0.793,2.588,2.381,2.683,3.901c0.116,1.873,2.66,1.877,2.622-0.457   c-0.046-2.775-2.072-4.939-3.842-5.763c-0.725-0.336-1.605-0.243-1.981,0.396C60.573,67.436,60.876,68.157,61.523,68.62z"></path><path d="M72.666,66.898c1.064,6.188,1.293,14.537-2.111,20.266c-1.287,2.164-4.336,4.242-7.461,5.398   c-1.77,0.653-0.895,2.721,0.969,2.405c2.22-0.375,5.028-1.901,6.227-2.935c6.949-5.997,6.652-17.479,5.199-25.912   C75.168,64.266,72.348,65.055,72.666,66.898z"></path><path d="M31.472,77.667c3.726-6.836,1.424-15.806,3.928-23.11c0.9-2.627-2.153-2.449-3.17,0.519   c-0.512,1.489-0.631,2.247-0.893,3.844c-0.205,1.247-1.059,2.862-1.983,3.604c-4.189,3.359-5.999,9.763-4.324,14.713   c0.601,1.777,3.172,0.758,2.565-1.034c-1.067-3.155-0.519-6.615,1.494-9.237c0.561-0.73,1.951-0.822,1.92,0.428   c-0.08,3.278-0.567,6.055-2.064,8.801C28.041,77.85,30.568,79.325,31.472,77.667z"></path><path d="M38.819,43.778c-6.709,3.224-11.706,8.095-12.046,15.22c-0.09,1.888,2.412,2.211,2.561,0.336   c0.548-6.92,6.264-10.485,10.764-13.155C41.719,45.218,40.524,42.959,38.819,43.778z"></path><path d="M43.25,40.987c-1.5,1.129-0.245,3.436,1.334,2.391c4.127-2.727,10.624-4.394,14.714-0.488   c1.364,1.303,3.308-1.172,1.87-2.399C55.471,35.632,48.608,36.956,43.25,40.987z"></path><path d="M62.509,73.823c0.243-2.316-2.505-2.542-2.723-0.69c-0.821,6.973-5.386,15.564-9.438,21.266   c-1.097,1.541,1.443,3.002,2.526,1.478c2.231-3.137,5.237-8.944,6.969-12.379C61.564,80.083,62.111,77.6,62.509,73.823z"></path><path d="M43.988,52.462c-1.043,1.558,0.636,3.459,1.693,1.892c1.981-2.939,6.545-4.471,9.415-1.392   c1.287,1.38,3.247-0.619,2.069-2.069C53.079,45.858,46.778,48.297,43.988,52.462z"></path><path d="M64.542,37.85c-1.435-1.233-3.157,0.737-1.87,2.114c3.76,4.023,6.301,8.658,8.1,14.396   c0.562,1.793,3.393,1.026,2.821-0.777C71.789,47.874,68.605,41.346,64.542,37.85z"></path><path d="M43.717,59.07c0.414-1.838-2.408-2.618-2.822-0.776c-0.989,4.39-0.522,8.81-0.768,13.261   c-0.271,4.928-3.402,10.062-5.871,14.195c-0.971,1.624,1.56,3.094,2.526,1.477c2.443-4.088,4.541-8.416,5.827-13.013   C43.981,69.314,42.596,64.047,43.717,59.07z"></path><path d="M54.359,63.742c-0.123-1.006-0.736-3.114-1.615-3.993c-0.366-0.366-0.885-0.671-1.708-0.549   c-1.158,0.396-1.676,1.401-1.372,2.927c0.714,3.566,0.162,5.645-0.543,9.081c-0.859,4.515-4.232,12.91-4.538,13.672   c-0.815,2.438-2.126,4.496-3.021,6.933c-0.653,1.775,2.177,2.533,2.822,0.777c0.966-2.629,2.069-5.597,3.208-7.426   C51.412,79.628,55.282,71.355,54.359,63.742z"></path><path d="M71.624,58.784c0.254,1.071,0.401,2.255,0.462,3.354c0.104,1.877,3.029,1.887,2.928,0   c-0.074-1.353-0.252-2.693-0.564-4.012C74.012,56.291,71.188,56.95,71.624,58.784z"></path><path d="M14.583,42.083c2.165-2.713,2.604-6.638,4.169-10.199c1.312-2.986,3.536-5.858,6.859-8.597   c1.458-1.202-0.059-3.232-1.555-2.104c-2.998,2.261-5.383,4.91-7.104,8.323c-1.454,2.883-2.522,7.181-4.313,10.286   C11.695,41.43,13.418,43.544,14.583,42.083z"></path><path d="M50.227,4.726c4.041,1.917,3.57,3.577,5.75,4.843c2.772,1.615,5.812,0.7,8.412,2.774c1.426,1.136,1.041,2.646,1.77,3.658   c0.582,0.809,0.979,0.987,1.75,1.63c1.871,1.558,4.104,2.643,5.924,4.262c2.081,1.851,2.887-0.997,1.809-2.082   c-1.553-1.56-3.273-2.594-5.092-3.829c-2.439-1.658-2.137-3.586-3.738-5.502c-1.369-1.64-4.115-2.352-6.063-2.773   c-3.685-0.797-5.653-4.059-9.042-5.508C49.989,1.466,48.525,3.919,50.227,4.726z"></path></g><path xmlns="http://www.w3.org/2000/svg" d="M72.912,92.393c-1.949,2.83-7.537,5.732-11.85,3.951c-1.75-0.723-2.285,1.897-0.531,2.562  c6.094,2.312,12.242-1.17,14.906-5.038C76.512,92.311,73.975,90.85,72.912,92.393L72.912,92.393z"></path><path xmlns="http://www.w3.org/2000/svg" d="M34.153,15.016c3.508-2.312,7.87-4.368,12.152-2.786c1.697,0.627,2.423-2.08,0.744-2.7  c-4.964-1.834-10.215,0.37-14.31,3.068C31.239,13.586,32.64,16.012,34.153,15.016L34.153,15.016z"></path></g><g id="SvgjsG52274" featureKey="textGroupContainer" transform="matrix(1,0,0,1,407,0)" fill="#111111"><rect xmlns="http://www.w3.org/2000/svg" y="0" height="1" width="1" opacity="0"></rect><rect xmlns="http://www.w3.org/2000/svg" y="0" x="-307" width="3" height="114"></rect></g><g id="SvgjsG52275" featureKey="YhTCwJ-0" transform="matrix(2.08579567685778,0,0,2.08579567685778,132.03935169575726,18.82131685823366)" fill="#111111"><path d="M5.62 10.4 q1.16 0 2.14 0.5 t1.46 1.4 l0.04 0 l0 -1.66 l1.56 0 l0 13.92 l-1.56 0 l0 -5.92 l-0.04 0 q-1.34 1.58 -3.36 1.6 q-2.14 0 -3.51 -1.37 t-1.41 -3.55 q0 -2.1 1.36 -3.5 t3.32 -1.42 z M2.62 15.32 q0 1.54 0.93 2.49 t2.39 0.99 q1.46 0 2.38 -0.97 t0.94 -2.51 q0 -1.52 -0.93 -2.5 t-2.41 -0.98 q-1.44 0 -2.36 0.97 t-0.94 2.51 z M18.668 10.64 l0 5.68 q0 1.08 0.51 1.77 t1.63 0.71 q1.44 0 2.17 -0.96 t0.73 -2.56 l0 -4.64 l1.56 0 l0 7.28 q0.02 0.56 0.08 2.08 l-1.48 0 q-0.02 -0.96 -0.04 -1.54 l-0.04 0 q-0.36 0.78 -1.21 1.28 t-1.93 0.5 q-1.72 -0.02 -2.63 -1.03 t-0.91 -2.71 l0 -5.86 l1.56 0 z M35.236000000000004 10.4 q2.04 0 2.97 0.96 t0.95 2.9 l0 4.2 q0 0.6 0.14 1.54 l-1.5 0 q-0.1 -0.18 -0.1 -1.4 l-0.04 0 q-1.06 1.6 -3.08 1.64 q-1.54 0 -2.51 -0.77 t-0.97 -2.01 q0 -1.7 1.4 -2.49 t4.38 -0.79 l0.72 0 l0 -0.26 q0 -2.04 -2.32 -2.08 q-1.68 0 -2.78 1.02 l-0.98 -1.02 q1.44 -1.4 3.72 -1.44 z M32.776 17.3 q0 1.58 2.06 1.62 q1.22 0 1.99 -0.78 t0.77 -2.28 l0 -0.36 l-1.72 0 q-1.38 0 -2.23 0.44 t-0.87 1.36 z M54.764 4.880000000000001 l0 15.12 l-1.56 0 l0 -1.66 l-0.04 0 q-0.48 0.9 -1.46 1.4 t-2.14 0.5 q-1.98 0 -3.31 -1.41 t-1.37 -3.51 q0 -2.14 1.37 -3.52 t3.55 -1.4 q2.02 0 3.36 1.6 l0.04 0 l0 -7.12 l1.56 0 z M46.564 15.32 q0 1.54 0.93 2.5 t2.39 0.98 q1.46 0 2.37 -0.96 t0.95 -2.52 q0 -1.52 -0.93 -2.5 t-2.41 -0.98 q-1.44 0 -2.35 0.97 t-0.95 2.51 z M74.34 10.4 q2.22 0 3.58 1.48 l-1.24 1.1 q-0.94 -1.14 -2.36 -1.14 q-1.46 0 -2.31 0.95 t-0.85 2.53 q0 1.5 0.91 2.48 t2.25 1 q1.54 0 2.38 -1.16 l1.16 1.1 q-1.3 1.48 -3.54 1.5 q-2.14 -0.02 -3.47 -1.36 t-1.37 -3.56 q0.02 -2.24 1.4 -3.58 t3.46 -1.34 z M86.668 10.4 q2.04 0 2.97 0.96 t0.95 2.9 l0 4.2 q0 0.6 0.14 1.54 l-1.5 0 q-0.1 -0.18 -0.1 -1.4 l-0.04 0 q-1.06 1.6 -3.08 1.64 q-1.54 0 -2.51 -0.77 t-0.97 -2.01 q0 -1.7 1.4 -2.49 t4.38 -0.79 l0.72 0 l0 -0.26 q0 -2.04 -2.32 -2.08 q-1.68 0 -2.78 1.02 l-0.98 -1.02 q1.44 -1.4 3.72 -1.44 z M84.20800000000001 17.3 q0 1.58 2.06 1.62 q1.22 0 1.99 -0.78 t0.77 -2.28 l0 -0.36 l-1.72 0 q-1.38 0 -2.23 0.44 t-0.87 1.36 z M101.456 10.4 q0.36 0 0.64 0.1 l-0.1 1.58 q-0.44 -0.12 -0.84 -0.12 q-1.36 0 -2.05 0.89 t-0.69 2.51 l0 4.64 l-1.56 0 l0 -7.28 q0 -0.28 -0.08 -2.08 l1.48 0 q0.04 1.4 0.04 1.54 l0.04 0 q0.38 -0.8 1.23 -1.29 t1.89 -0.49 z M111.56400000000001 10.4 q2.08 0 3.25 1.31 t1.19 3.71 l0 0.38 l-7.56 0 q0.12 1.3 0.98 2.14 t2.1 0.86 q1.9 0 2.96 -1.42 l1.18 0.92 q-0.74 0.96 -1.74 1.45 t-2.4 0.49 q-2.14 0 -3.44 -1.39 t-1.32 -3.53 q0 -2.12 1.33 -3.5 t3.47 -1.42 z M114.32400000000001 14.48 q-0.06 -1.22 -0.79 -1.93 t-2.05 -0.71 q-1.2 0 -2.02 0.68 t-1.02 1.96 l5.88 0 z"></path></g><g id="SvgjsG52276" featureKey="duLK5n-0" transform="matrix(0.4019791695418457,0,0,0.4019791695418457,117.27643751399253,77.86147074903309)" fill="#111111"><path d="M1.8 20 l0 -14.24 l1.8 0 l0 14.24 l-1.8 0 z M31.076 20 l-7.62 -11.26 l0 11.26 l-1.8 0 l0 -14.24 l1.96 0 l7.6 11.26 l0 -11.26 l1.8 0 l0 14.24 l-1.94 0 z M50.372 20 l0 -14.24 l4.6 0 c4.04 0 7.32 3.2 7.32 7.12 s-3.28 7.12 -7.32 7.12 l-4.6 0 z M54.972 18.26 c3.06 0 5.54 -2.44 5.54 -5.38 s-2.48 -5.38 -5.54 -5.38 l-2.82 0 l0 10.76 l2.82 0 z M79.42800000000001 20 l0 -14.24 l1.8 0 l0 14.24 l-1.8 0 z M98.08400000000003 5.76 l1.94 0 l4.48 11.66 l4.5 -11.66 l1.92 0 l-5.48 14.24 l-1.86 0 z M127.58000000000003 20 l0 -14.24 l1.8 0 l0 14.24 l-1.8 0 z M147.13600000000005 20 l0 -14.24 l4.6 0 c4.04 0 7.32 3.2 7.32 7.12 s-3.28 7.12 -7.32 7.12 l-4.6 0 z M151.73600000000005 18.26 c3.06 0 5.54 -2.44 5.54 -5.38 s-2.48 -5.38 -5.54 -5.38 l-2.82 0 l0 10.76 l2.82 0 z M184.45200000000006 5.76 l1.8 0 l0 9.02 c0 3 -2.44 5.42 -5.44 5.42 c-2.98 0 -5.42 -2.42 -5.42 -5.42 l0 -9.02 l1.78 0 l0 9.02 c0 2.02 1.64 3.68 3.64 3.68 c2.02 0 3.64 -1.66 3.64 -3.68 l0 -9.02 z M212.52800000000005 20 l-1.58 -4.14 l-5.82 0 l-1.58 4.14 l-1.92 0 l5.48 -14.24 l1.86 0 l5.5 14.24 l-1.94 0 z M210.24800000000005 14.1 l-2.2 -5.76 l-2.22 5.76 l4.42 0 z M230.62400000000002 20 l0 -14.24 l1.8 0 l0 12.5 l7.8 0 l0 1.74 l-9.6 0 z M280.15600000000006 20.14 c-0.48 0 -0.96 -0.06 -1.44 -0.16 c-1.48 -0.3 -2.94 -1.04 -4.24 -2.16 l1.18 -1.34 c1.06 0.92 2.24 1.54 3.42 1.78 c1 0.22 1.98 0.14 2.76 -0.22 c0.52 -0.24 1.42 -0.84 1.42 -2.06 c0 -1.5 -1.6 -2.04 -3.16 -2.34 c-0.14 -0.02 -2.38 -0.48 -3.28 -1 c-1.2 -0.72 -1.84 -1.8 -1.84 -3.12 c0 -0.74 0.24 -1.44 0.66 -2.06 c0.42 -0.56 1 -1.02 1.68 -1.34 c1 -0.48 2.18 -0.62 3.38 -0.42 c1.3 0.22 2.62 0.84 3.78 1.8 l-1.14 1.38 c-2.06 -1.7 -4.06 -1.74 -5.26 -1.18 c-0.82 0.38 -1.3 1.08 -1.3 1.8 c0 1.36 1.16 1.88 3 2.28 c0.76 0.18 2.34 0.44 3.28 0.98 c1.3 0.72 1.98 1.84 1.98 3.22 c0 0.82 -0.22 1.58 -0.68 2.24 c-0.42 0.6 -1.06 1.06 -1.78 1.42 c-0.76 0.38 -1.54 0.5 -2.42 0.5 z M310.59200000000004 5.76 l1.8 0 l0 9.02 c0 3 -2.44 5.42 -5.44 5.42 c-2.98 0 -5.42 -2.42 -5.42 -5.42 l0 -9.02 l1.78 0 l0 9.02 c0 2.02 1.64 3.68 3.64 3.68 c2.02 0 3.64 -1.66 3.64 -3.68 l0 -9.02 z M329.54800000000006 20 l0 -14.24 l4.96 0 c0.9 0 1.76 0.36 2.4 1 s1 1.5 1 2.4 c0 1.88 -1.54 3.38 -3.4 3.38 l-3.18 0 l0 7.46 l-1.78 0 z M334.50800000000004 10.8 c0.88 0 1.6 -0.74 1.6 -1.64 s-0.72 -1.66 -1.6 -1.66 l-3.18 0 l0 3.3 l3.18 0 z M354.34400000000005 20 l0 -14.24 l4.96 0 c0.9 0 1.76 0.36 2.4 1 s1 1.5 1 2.4 c0 1.88 -1.54 3.38 -3.4 3.38 l-3.18 0 l0 7.46 l-1.78 0 z M359.30400000000003 10.8 c0.88 0 1.6 -0.74 1.6 -1.64 s-0.72 -1.66 -1.6 -1.66 l-3.18 0 l0 3.3 l3.18 0 z M385.76000000000005 5.32 c4.1 0 7.46 3.34 7.46 7.46 c0 4.1 -3.36 7.42 -7.46 7.42 s-7.44 -3.32 -7.44 -7.42 c0 -4.12 3.34 -7.46 7.44 -7.46 z M385.76000000000005 18.44 c3.12 0 5.64 -2.56 5.64 -5.66 c0 -3.12 -2.52 -5.7 -5.64 -5.7 s-5.64 2.58 -5.64 5.7 c0 3.1 2.52 5.66 5.64 5.66 z M415.21600000000007 12.42 l5.5 7.58 l-2.06 0 l-5.44 -7.48 l-2.04 0 l0 7.48 l-1.72 0 l0 -14.24 l4.94 0 c0.9 0 1.74 0.36 2.38 1 s1 1.48 1 2.38 c0 1.58 -1.1 2.9 -2.56 3.28 z M411.17600000000004 7.48 l0 3.32 l3.22 0 c0.92 0 1.66 -0.74 1.66 -1.66 s-0.74 -1.66 -1.66 -1.66 l-3.22 0 z M438.2120000000001 20 l0 -12.48 l-3.76 0 l0 -1.76 l9.32 0 l0 1.76 l-3.76 0 l0 12.48 l-1.8 0 z M478.7240000000001 20 l0 -14.24 l9 0 l0 1.74 l-7.2 0 l0 3.34 l3.96 0 l0 1.76 l-3.96 0 l0 7.4 l-1.8 0 z M509.9600000000001 5.32 c4.1 0 7.46 3.34 7.46 7.46 c0 4.1 -3.36 7.42 -7.46 7.42 s-7.44 -3.32 -7.44 -7.42 c0 -4.12 3.34 -7.46 7.44 -7.46 z M509.9600000000001 18.44 c3.12 0 5.64 -2.56 5.64 -5.66 c0 -3.12 -2.52 -5.7 -5.64 -5.7 s-5.64 2.58 -5.64 5.7 c0 3.1 2.52 5.66 5.64 5.66 z M539.416 12.42 l5.5 7.58 l-2.06 0 l-5.44 -7.48 l-2.04 0 l0 7.48 l-1.72 0 l0 -14.24 l4.94 0 c0.9 0 1.74 0.36 2.38 1 s1 1.48 1 2.38 c0 1.58 -1.1 2.9 -2.56 3.28 z M535.3760000000001 7.48 l0 3.32 l3.22 0 c0.92 0 1.66 -0.74 1.66 -1.66 s-0.74 -1.66 -1.66 -1.66 l-3.22 0 z M579.7280000000001 20 l0 -14.24 l1.8 0 l0 12.5 l7.8 0 l0 1.74 l-9.6 0 z M606.304 20 l0 -14.24 l1.8 0 l0 14.24 l-1.8 0 z M626.4599999999999 20 l0 -14.24 l9 0 l0 1.74 l-7.2 0 l0 3.34 l3.96 0 l0 1.76 l-3.96 0 l0 7.4 l-1.8 0 z M651.6159999999999 20 l0 -14.24 l9 0 l0 1.72 l-7.2 0 l0 3.34 l6.28 0 l0 1.78 l-6.28 0 l0 5.64 l7.02 0 l0 1.76 l-8.82 0 z M677.332 17.72 c0.62 0 1.12 0.52 1.12 1.14 s-0.5 1.14 -1.12 1.14 c-0.64 0 -1.14 -0.52 -1.14 -1.14 s0.5 -1.14 1.14 -1.14 z"></path></g>
			</g>
		</svg>
	