<svg width="557" height="516" viewBox="0 0 557 516" fill="none" xmlns="http://www.w3.org/2000/svg">
<g clip-path="url(#clip0_56_2)">
<path d="M-45.71 50.8305V50.4705L-45.09 49.6805L-46.59 48.6705L-46.25 47.8805L-45.83 47.6705L-44.3 47.7205L-44.2 47.3705L-44.31 46.4205L-44.61 45.8305L-44.33 45.4205L-43.36 45.4705L-42.28 46.1705L-40.86 46.2405L-39.86 46.9605L-39.25 47.0505L-34.49 46.7305L-33.07 47.1805L-31.32 45.9805L-29.83 46.0105L-29.22 47.1705L-29.59 47.9705L-29 47.3705L-28.92 47.1105L-29.14 45.8205L-28.93 45.4305L-27.48 44.9105L-26.34 45.3305L-25.62 45.2705L-26.04 45.2205L-26.81 44.6505L-26.93 44.1405L-26.85 40.9705L-26.24 40.0105L-27.88 38.7905L-28.43 38.0105L-28.88 37.7305L-29.7 37.5805L-31.25 37.8405L-32.59 38.5605L-32.8 38.5405L-33.85 37.4905L-34.06 36.7705L-35.2 36.1605L-36.22 36.2505L-36.29 36.1305L-35.1 34.7105L-33.9 34.1605L-32.75 35.2905L-31.93 37.2305L-31.51 37.2705L-31.18 36.6705L-31.65 35.2105L-32.15 34.3105L-31.77 34.2205L-30.74 34.5705L-30.04 34.2005L-28.27 35.6805L-28.16 36.1605L-26.44 38.3605L-25.85 38.4905L-25.35 38.1005L-24.24 36.4405L-23.77 36.4805L-22.92 37.3905L-21.29 40.3405L-20.89 40.6605L-20.15 40.8805L-19.54 40.4705H-19L-18.45 41.2705L-16.91 41.9205L-16.17 41.9405L-15.64 41.7705L-14.59 41.2005L-14.19 40.6605L-13.01 40.8605L-12.89 41.2005L-13.64 41.6305L-13.81 41.8905L-13.76 42.1605L-13.42 42.4805L-12.64 42.8105L-12.04 42.5305L-11.72 42.1105L-11.47 42.0705L-9.99998 43.1905L-10.13 43.4005L-9.98 44.2905L-9.76999 44.4605L-7.99998 44.2005L-7.43999 44.4305L-6.40999 44.5205L-5.50999 44.4105L-4.70999 43.8005L-3.64 43.7405L-2.56 45.2405L-1.18999 45.9505L-0.249985 46.7305L0.930008 46.8405L1.35001 47.0305L1.29001 46.8205L1.73001 45.6805L2.40001 45.0105L2.96001 44.7705L3.59001 45.0505L5.20001 44.8605L6.03001 44.1905L5.78001 44.0505L5.16 44.4205L5.05 44.1505L5.28001 43.3205L6.28001 43.0505L7.02 43.0705L8.40001 41.9705L8.36 41.2005L8.76001 41.2105L9.13 41.6405L8.8 42.1705L6.95001 43.7405L7.41 44.2805L6.16 45.5605L6.11 45.9105L6.32001 46.4305L6.83 46.9105L7.38 46.6705L7.54001 46.2205L8.43001 45.4905L9.94 45.0505L9.02 46.2105L9.39001 46.7705L10.19 46.4005L10.38 46.7305L9.51001 47.9905L9.81001 48.7305L10.13 49.0305L10.58 48.7405L11.4 48.6505L11.55 48.9105L12.3 48.8405L12.88 48.3905L13.64 46.4605L13.35 46.0805L12.32 46.2105L11.66 45.9305L11.61 45.6605L12.74 44.5405L14.58 43.3105L15.79 43.0905L15.54 43.9205L16.22 45.8305L16.99 46.9505L17.48 46.9405L17.9 46.6405L17.87 46.4005L17.16 46.1405L17.22 45.9305L18.1 45.7105L19.2 46.2705L20.31 47.7705L18.42 49.0905L17.78 49.8305L16.68 51.6005L16.43 52.9405L15.06 52.4305L14.95 53.1705L15.62 54.4105L15.61 55.4805L15.43 56.5305L14.67 57.6705L14.57 57.3205L13.69 57.6205L13.73 55.6505L13.56 55.4805L13.22 55.5605L12.79 56.7205L11.86 57.5305L11.42 57.5605L11.27 57.1305L10.74 56.9205L9.61 57.3605L8.89001 57.9505L8.50002 58.6205L8.53001 58.9305L8.97 59.2705L8.68001 59.9205L8.20001 60.3205L8.00002 61.5705L8.47 62.9605L8.89001 63.1905L9.49001 63.0405L9.96001 62.5105L9.90001 63.3405L9.56001 64.5005L8.87001 65.5605L8.57001 67.5705L8.27 68.1505L7.01001 69.0005L5.58 70.8505L4.70001 72.3705L4.68001 73.1805L3.32001 74.1005L2.88 74.0905L3.55 76.0305L4.01001 76.7205L4.73001 77.3305L6.12001 77.8305L8.09001 79.0905L9.10001 80.0105L12.01 81.5205L12.32 81.7905L12.58 83.1605L13.18 83.8605L15.88 85.1505L16.99 86.0705L18 87.1705L20.87 87.2905L22.02 87.8905L24.54 89.6805L25.83 90.2305L26.43 90.2105L27.55 90.5805L28.54 91.0705L29.86 93.1705L31.4 94.4805V204.03L-42.06 204.04L-56.53 204.03L-66.24 204.1L-66.3 102.5V81.5105V75.6105L-65.33 75.9305L-64.29 76.8305L-64.41 78.8705L-64.23 79.0905L-63.52 78.2105L-63.93 75.5005L-63.81 75.2505L-62.69 75.5605L-61.29 76.2705L-59.05 78.7705L-58.96 79.3105L-58.36 79.0805L-59.1 78.1105L-59.5 77.2805L-59.64 76.4505L-59.4 75.9805L-59.28 75.2305L-57.61 75.5205L-56.92 75.2905L-56.05 74.4505L-57.99 75.0605L-58.97 74.4305L-59.75 73.4105L-59.93 72.8905L-59.53 72.6905L-58.67 72.6005L-57.96 72.1005L-57.92 71.8605L-59.14 72.2705L-60.44 72.0305L-61.36 71.5005L-62.41 70.5005L-62.28 69.6105L-61.63 68.3705L-60.96 67.4805L-58.35 65.8405L-57.76 63.0605L-57.82 62.5505L-57.31 60.5405L-56.54 59.7405L-56.44 60.4405L-56.06 60.6605L-55.01 60.4705L-53.68 59.5705L-52.59 58.4205L-52.7 58.0105L-53.38 57.0805L-53.75 56.7705L-54.12 56.6905L-54.21 56.4505L-54.11 54.4905L-53.93 54.0005L-53.48 53.8005L-53.33 54.0805L-53.01 54.2305L-52.6 54.1405L-51.9 53.6405L-51.62 53.0305L-51.72 51.5605L-51.61 51.1905L-49.93 50.4405L-48.93 51.5805L-47.97 51.5105L-48.89 51.2405L-49.2 50.0705L-48.91 49.3605L-48.83 48.4805L-49.16 48.2305L-48.63 48.0105L-47.09 48.5005L-45.71 50.8305ZM-45.03 43.0905L-46.09 42.2105L-48.08 41.3905L-50.08 39.8205L-50.89 37.6905L-51.47 35.5405L-51.39 34.7305L-51.16 34.5505L-49.65 35.8705L-49.2 36.6005L-47.77 37.0505L-46.25 36.6905L-45.66 36.1405L-44.52 36.6305L-43.25 35.6505L-42.92 35.6205L-42.7 36.3705L-42.14 37.1705L-42.09 36.8905L-42.46 35.9605L-42.33 35.4105L-41.61 34.8405L-40.02 35.4805L-38.82 37.0605L-38.73 37.8905L-41.5 40.8005L-41.85 40.8505L-43.19 41.7105L-45.03 43.0905ZM19.56 67.9005L19.73 67.6205L20.2 67.5905L19.92 68.9905L19.35 69.2105L17.85 68.8105L16.56 69.0005L13.8 68.3105L14.18 66.4005L14.1 65.5805L14.35 64.6505L14.66 64.1205L16.13 63.8405L16.48 63.5705L16.17 62.8705L17.08 62.1105L17.55 62.1405L17.47 62.6505L17.05 62.9405L17.45 64.1005L18.48 64.2805L18.84 63.9005L18.73 63.5205L18.93 63.2505L19.29 63.1505L19.61 63.3805L19.69 63.7905L18.62 64.8905L18.05 65.2605L17.38 66.7505L17.4 67.7805L17.71 68.0505L19.16 68.2705L19.56 67.9005ZM-50.09 41.9805L-51.89 41.2905L-54.4 41.9305L-55 41.8105L-55.17 41.5405L-55.25 41.2505L-54.65 40.1605L-54.15 40.4605L-53.74 40.4805L-53.34 40.0905L-53.37 38.5605L-53.55 38.0905L-52.66 36.5405L-51.7 36.3405L-50.1 40.3405L-49.33 40.5405L-48.52 41.2705L-48.77 41.8205L-50.09 41.9805ZM15.16 37.7705L15.2 37.2605L16.67 35.1305L17.6 33.2505L18.09 32.9905L17.56 35.0305L15.79 37.5105L15.55 37.7305L15.16 37.7705ZM-27.26 36.5405L-27.58 36.2005L-27.96 35.1505L-28.28 33.3205L-27.45 33.0005L-26.93 34.7105L-26.95 35.7905L-27.26 36.5405ZM21.14 86.3305L20.52 85.8705L19.84 84.8605L20.04 84.2805L20.66 83.6705L21.15 84.2805L21.56 85.6105L21.28 86.3205L21.14 86.3305ZM11.88 64.3505L11.91 63.9505L11.56 63.3405L11.28 63.5305L11.45 64.0605H10.99L10.82 63.8505L10.92 62.9205L11.87 62.1705L12.33 62.2505L12.81 62.9005L12.66 63.6105L12.3 64.1905L11.88 64.3505ZM11.68 40.3505V39.8405L12.67 39.0505L13.49 39.0105L14.93 37.8905L14.83 38.4405L13.74 39.2705L11.68 40.3505ZM15.39 84.2705L15.11 84.1305L15.33 83.1905L15.95 82.7705L16.26 82.9105L16.07 84.1405L15.39 84.2705Z" fill="#0B2149"/>
<path d="M151.5 332L148.761 331.111L145.63 328.125L145 327.028L145.044 324.472L146.174 320.917L152.37 318L155.13 319L156.37 319.931L158.543 320.444L160 321.042L158.935 321.653L156.739 321.458L154.978 322L153.848 323L152.5 326.458L153.022 330.278L152.848 330.819L151.5 332Z" fill="#0B2149"/>
<path d="M106.5 338L103.761 337.111L100.63 334.125L100 333.028L100.044 330.472L101.174 326.917L107.37 324L110.13 325L111.37 325.931L113.543 326.444L115 327.042L113.935 327.653L111.739 327.458L109.978 328L108.848 329L107.5 332.458L108.022 336.278L107.848 336.819L106.5 338Z" fill="#0B2149"/>
<path d="M161.17 351L141.784 341.272L140.797 341.192L141.683 339.667L141.794 338.694L140.787 336.648L140.092 335.766L139.528 331.333L138.34 330.581L136.507 329.799L135.57 330.16L134.029 329.869L133.012 330.039L131.995 331.303L131.008 331.393L129.175 332.035L127.705 331.935L125.268 331.173L124.291 330.41L123.163 330.24L122.478 330.33L122.095 330.731L120.947 331.223L118.681 331.022L115.559 330.43L114.794 330.11L113.505 328.876L112.709 328.254L112.437 328.224L111.612 328.405L110.655 328.926L109.698 328.836L109.326 328.535H107.986L106.617 328.886L106.415 329.127L106.032 330.511L106.204 331.875L104.27 332.416L103.847 332.306L102.498 331.524L100.201 328.846L99.6375 327.562L99.3858 327.301L98.7614 327.101L97.6536 326.118L96.8076 324.955L94.9345 323.962L93.2527 322.688L92.4772 322.407L92.024 322.508L91.3493 322.006L91.168 321.725L91.4198 320.963L90.9968 320.311L90.1106 320.091L89.2948 319.589L88.7913 318.486L88.4992 316.831L88.7611 315.517L88.7711 314.685L88.6302 314.474L86.3038 313.211L84.6724 313.1L83.3833 312.579L83.2322 312.218L82.5474 311.767L81.923 311.977L81.7317 312.248L81.3792 313.802L80.8857 314.424L79.9592 314.244L79.5866 313.812L79.6168 313.552L79.0327 311.997L78.0861 311.125L78.0357 309.239L76.515 306.692L75.6389 306.09L74.38 305.518L72.668 305.869L71.0466 305.448L70.0798 305.819L69.4655 306.662L68.9317 306.943L68.7404 306.682L67.5218 305.94L65.7292 305.107L63.8459 304.967L63.5136 304.877L63 304.375L63.0504 240.49L64.3495 240.48L86.3038 240.49H103.334H117.211H149.971L150.807 240.079L152.086 238.485L155.581 235.526L156.789 235.195L157.071 235.245L157.242 235.606L158.199 235.887L161.563 235.596L163.134 234.994L164.614 234.814L164.916 234.884L165.752 235.747L166.508 236.258L168.33 236.308L169.982 235.967L172.741 237.221L175.531 239.618L175.662 241.503L176.105 242.486L176.347 242.596L176.88 242.466L177.404 241.914L178.391 239.909L180.274 239.076L180.677 239.848L181.352 240.169L183.447 239.167L183.799 237.151L182.812 234.924L183.87 234.092L185.098 233.49L187.274 232.778L187.717 232.477L187.938 231.916L188.563 231.394L189.046 231.464L189.761 232.196L191.554 232.587L193.598 232.377L195.401 232.497L196.237 231.394L197.697 231.123L198.895 230.662L199.711 230L200.496 230.712L200.648 231.524L200.295 234.202L200.496 235.606L201 236.288L200.799 238.775L199.077 241.022L197.868 244.552L198.17 245.425L196.952 252.335L196.418 254.36L194.384 260.057L194.243 263.417L194.414 264.028L194.796 264.079L194.988 264.851L193.87 268.582L193.658 270.056L192.51 273.837L191.544 275.802L189.328 278.591L188.824 279.894L189.147 281.589L189.016 283.384L187.112 284.989L186.297 285.932L184.615 286.975L184.524 287.526L184.796 288.108L182.701 288.84L181.161 289.632L179.6 291.969L178.562 294.527L178.321 294.727L177.767 294.767L177.253 295.179L177.142 295.77L177.606 296.181L177.253 297.575L176.004 299.24L175.531 302.75L175.269 303.693L174.876 303.994L174.242 303.924L173.386 304.265L173.99 304.425L174.433 304.836L173.547 306.271L172.56 307.003L171.583 308.437L170.556 311.415L170.999 311.957L170.455 314.424L169.75 314.865L169.529 315.628L169.911 316.741L170.677 317.533L170.506 318.416L170.214 318.666L169.851 318.275L169.982 318.005L169.831 317.393L169.539 317.363L168.844 317.794L168.763 318.235L169.045 318.917L168.431 319.599L167.263 320.241L166.669 321.354L166.608 321.916L165.803 324.243L165.249 325.135L163.134 329.749L162.862 332.045L162.842 334.954L162.207 335.776L161.623 339.005L160.999 341.262L160.304 343.007L160.354 344.983L161.442 346.236L161.583 347.179L161.573 347.63L161.251 347.53L160.787 347.871L160.808 349.456L161.17 351ZM151.573 328.615L151.653 328.214L151.411 325.456L152.036 322.969L152.56 322.237L153.385 321.846L154.402 321.986L154.886 321.555L154.211 321.124L153.204 320.763L152.63 320.081L151.351 319.358L148.481 321.465L147.957 324.032L147.937 325.887L148.229 326.68L149.689 328.836L149.951 329.057L151.049 329.428L151.573 328.615Z" fill="#0B2149"/>
<path d="M13.01 306.55L11.93 308.29L11.05 308.68L10.12 310.27L9.00002 310.97L8.33 312.3L7.56001 314.63L7.83 314.76L8.31001 314.7L9.76001 313.68L9.91 314.37L9.74001 316.96L9.22 317.18L8.93001 316.63L8.02 315.62L7.37001 315.22L6.69 315.32L6.21001 316.45L5.82001 316.44L5.41 315.65L3.98001 313.78L2.37001 312.12L1.52 311.44L1.17001 311.33L0.0500031 311.72L0.480011 310.53L1.10001 309.64L1.15001 310.46L2.57001 311.98L3.14001 312.37L4.22 312.02L3.12001 311.58L2.98001 311.17L2.92001 310.83L3.10001 310.43L2.62001 307.73L1.79001 305.52L1.66 304.04L0.930008 302.91L-0.809998 300.95L-2.89999 299.25L-2.59999 298L-2.70999 297.1L-3.24998 295.56L-4.34999 293.29L-5.59 292.81L-7.59999 293.13L-8.45999 293.62L-9.12 292.88L-9.10999 292.55L-9.90999 290.42L-11.23 287.42L-10.36 287.48L-9.92999 287.88L-9.78 288.53L-9.03999 287.52L-8.81999 286.86L-9.03999 285.72L-9.81 284.63L-10.49 284.04L-10.8 283.99L-12.52 284.53L-13.22 285.2L-13.63 285.12L-13.61 284.08L-13.3 283.37L-12.75 283.59L-12.57 283.29L-13.92 281.41L-15.01 280.77L-15.69 280.16L-15.57 279.69L-16.31 279.46L-16.58 279.68L-16.74 280.33L-17.63 280.89L-21.09 280.65L-21.42 280.57L-22.18 279.75L-23.18 279.39L-24.71 277.94L-25.23 277.66L-27.41 277.4L-28.45 277.61L-29.26 278.36L-30.2 278.69L-30.88 278.74L-31.63 278.55L-33.46 276.7L-36.26 274.67L-40.65 272.4L-43 271.52L-43.36 271.56L-44.47 272.46L-46.3 273.17L-46.85 273.24L-52.61 272.81L-53.85 272.85L-56.16 273.03L-57.22 273.3L-63.8 273.86L-66.3 274.27L-66.24 204.09L-56.53 204.02L-42.06 204.03L31.4 204.02H63.97L64 240.57L63.95 304.27L63.67 303.9L63.63 358.3L62.36 358.17L61.5 358.43L60.71 358.4L58.88 357.42L56.99 355.52L55.71 352.93L54.44 351L53.66 350.45L53.05 350.48L51.1 347.86L50.42 346.5L50.76 345.8L50.73 345.25L50.22 343.98L50.42 342.73L51.19 342.09L51.61 341.01L51.6 339.2L51.2 337.77L49.3 333.14L46.3 329.14L44.32 327.01L43.16 326.07L43.69 326.24L46.65 328.83L48.61 331.52L49.44 333.23L49.32 332.3L48.82 330.89L48.41 330.28L47.12 328.79L43.34 325.17L43.32 323.99L43.99 323.72L44.81 324.43L44.71 326.1L44.88 326.33L45.9 326.22L46.18 325.06L46.31 323.29L46.13 322.02L44.57 321.25L43.73 322.08L43.13 322.26L42.49 322.23L41.94 322.47L41.72 323.01L41.83 323.36L42.45 323.56L42.66 323.82L42.17 324.45L39.24 324.2L38.47 324.52L37.82 325.31L37.23 325.72L33.31 325.93L32.42 325.26L33.07 324.11L34.51 323.39L36.17 321.6L36.48 319.85L36.35 319.39L36.46 318.55L36.99 317.39L36.63 315.25L36.88 314.07L36.79 313.49L36.13 312.35L34.39 310.22L33.79 308.06L32.41 305.71L32.15 305.77L31.49 307.31L31.78 307.89L31.62 308.44L30.59 309.5L30.21 310.81L30.06 313.25L28.69 317.71L28.68 318.81L27.88 319.46L26.34 318.76L25.55 318.56L25.13 318.64L23.09 319.41L22.63 320.16L22.37 320.33L20.86 320.1L20.02 320.84L19.4 321.07L19.05 320.9L18.74 320.38L19.14 319.73L19.88 319L20.14 318.37L20.32 316.51L20.83 315.76L21.74 316.12L22.67 315.87L23.63 315.81L23.82 316.11L24.75 316.53L25.29 316.24L25.51 315.69L25.99 312.55L25.8 310.1L25.93 307.67L25.48 306.02L25.64 305.8H26.17L26.49 305.18L27.04 303.36L27.13 302.42L29.03 299.99L30.25 298.79L30.71 298.66L30.89 298.19L30.54 296.66L29.44 294.55L29.77 293.57L30.39 293.13L30.97 292.9L31.67 292.88L31.97 292.64L31.89 291.98L31.56 291.35L30.97 291.1L30.34 288.24L29.77 286.97L29.47 285.42L28.89 284.98L28.8 287.07L29.05 287.21L29.3 287.65L29.37 289.02L29.01 290.88L28.44 290.91L27.06 291.35L25.9 292.61L24.78 294.84L24.72 295.91L24.52 296.51L22.88 299.58L22.14 300.2L20.82 300.25L20.05 299.78L19.34 300.84L19.54 300.98L19.12 301.42L16.04 303.05L14.23 304.47L13.61 305.11L13.55 305.53L13.01 306.55ZM30.44 326.73L32.09 327.18L32.62 327.9L32.63 328.6L31.84 329.31L30.55 328.68L28.81 328.55L27.28 329.27L27.08 329.55L27.22 330.47L26.91 330.78L25.49 331.48L24.43 330.4L23 330.13L22.6 330.26L22.48 330.75L22.17 330.93L20.88 330.81L19.45 331.03L17.41 331.09L17.06 330.51L15.52 329.23L15.47 328.76L15.98 327.26L19.96 326.08L20.81 326.07L21.83 325.83L23.97 324.88L26.24 325.07L26.88 325.68L26.87 326.76L27.02 326.96L28.06 327.1L29.13 327.71L29.77 327.76L30.44 326.73Z" fill="#0B2149"/>
<path d="M157.657 353.064L156.321 353.729L154.702 353.893L149.387 353.924L147.545 354.19L145.733 354.119L143.698 354.262L139.902 355.398L137.655 356.525L135.256 358.368L133.403 360.119L131.652 361.88L128.98 365.023L127.927 365.966L125.467 366.283L123.058 366.897L122.198 366.621L121.195 366.682L120.74 366.877L120.355 367.46L121.58 369.723L122.845 368.822L123.078 367.962L123.473 368.147L123.635 371.997L122.987 372.826L122.643 373L122.127 372.754L121.823 372.293L121.023 370.174L119.869 368.71L119.019 368.341L118.483 368.515L118.331 368.955L117.248 368.863L116.357 367.041L116.62 366.611L116.276 365.955L115.304 365.802L114.545 366.314L113.988 366.406L113.533 366.14L111.883 364.45L112.065 363.129L113.037 362.72L113.421 362.034L112.652 360.252L112.196 359.955L110.121 360.109L109.656 361.685L107.651 363.774L106.679 363.969L106.234 363.897L104.695 362.085H106.001L107.155 361.563L108.765 358.696L108.41 357.375L107.054 355.255L106.416 354.927L105.394 355.398L103.926 356.822L102.124 358.184L100.575 358.347L100.383 358.542L100.444 359.054L101.962 359.32L102.813 359.023L103.319 358.644L104.078 358.859L104.24 359.269L104.118 359.894L103.552 360.774L103.278 360.979L102.337 360.754L100.646 361.122L100.292 361.337L96.9819 363.6L94.5727 366.6L93.358 366.938L92.9531 367.225L92.7101 367.85L91.2828 368.914L90.8678 368.802L90.1896 367.993L89.5721 367.624L87.2945 366.887L86.7782 366.355L85.8469 365.771L85.0067 365.658L83.1543 364.901L80.2086 362.597L78.4979 361.911L77.2831 362.208L77.0807 362.443L76.0886 362.423L75.0156 361.798L73.9426 360.897L72.3635 360.549L71.5942 360.539L70.8046 360.764L70.1568 361.317V361.757L70.4908 362.423L69.6203 362.668L68.3347 362.034L67.3831 360.866L65.4699 359.054L64.488 358.399L63 357.702L63.0405 302L63.3239 302.379L63.8402 302.891L64.1742 302.983L66.0672 303.126L67.869 303.976L69.0939 304.734L69.2862 305L69.8227 304.713L70.4402 303.853L71.412 303.474L73.0417 303.905L74.7626 303.546L76.0279 304.13L76.9086 304.744L78.4371 307.345L78.4877 309.27L79.4393 310.161L80.0264 311.748L79.996 312.014L80.3706 312.454L81.3018 312.639L81.7979 312.004L82.1521 310.417L82.3445 310.14L82.9721 309.925L83.6604 310.386L83.8123 310.755L85.108 311.287L86.7478 311.4L89.0862 312.69L89.2279 312.905L89.2178 313.755L88.9546 315.096L89.2482 316.786L89.7543 317.912L90.5742 318.424L91.465 318.649L91.8902 319.315L91.6371 320.093L91.8193 320.38L92.4975 320.892L92.9531 320.789L93.7325 321.076L95.423 322.376L97.3058 323.39L98.1562 324.578L99.2696 325.581L99.8972 325.786L100.15 326.052L100.717 327.363L103.025 330.097L104.382 330.896L104.807 331.008L106.75 330.455L106.578 329.063L106.963 327.65L107.165 327.404L108.542 327.046H109.888L110.263 327.353L111.225 327.445L112.186 326.912L113.016 326.728L113.29 326.759L114.089 327.394L115.385 328.653L116.154 328.981L119.292 329.585L121.57 329.79L122.724 329.288L123.109 328.878L123.797 328.786L124.931 328.96L125.913 329.739L128.362 330.517L129.84 330.619L131.683 329.964L132.675 329.872L133.697 328.581L134.719 328.407L136.268 328.704L137.21 328.336L139.052 329.134L140.246 329.902L140.813 334.428L141.512 335.329L142.524 337.418L142.413 338.411L141.522 339.968L142.514 340.05L162 349.982L161.14 350.535L159.884 350.647L158.649 352.552L157.657 353.064ZM111.255 362.843L110.465 362.535L110.324 361.89L110.597 360.979L112.358 361.348L112.804 361.88L112.682 362.085L111.974 362.095L111.255 362.843ZM111.235 364.808L110.86 364.348L110.324 364.112L108.623 364.256L108.653 364.102L109.423 363.344L110.445 363.139L110.739 363.334L111.326 364.757L111.235 364.808Z" fill="#0B2149"/>
<path d="M162.014 166.54V166.72L162.689 167.362L162.125 165.427L161.41 163.963L161.42 163.411L161.843 162.298L162.276 161.736L162.76 161.606L163.143 161.766L163.979 163.05L164.473 164.444L165.803 164.985L167.536 166.169L168.775 166.73L168.141 165.236L168.131 164.354L168.433 163.742L169.229 163.882L170.005 165.036L169.682 165.778L169.763 166.349L171.244 168.445L170.549 173.128L171.164 174.391L171.033 176.076L171.758 177.54L172.645 178.022L173.461 178.142L173.773 178.854L174.519 179.415L175.043 180.92L175.819 181.341H176.182L176.696 181.702L177.854 183.126L178.6 183.346L179.184 183.808L179.013 184.078L179.084 184.409L179.386 184.53L179.92 184.008L179.94 183.366L180.202 183.116L180.686 183.256L181.824 184.56L183.417 185.974L184.253 188.45L185.583 190.616L187.175 191.83L188.717 192.431L189.261 193.053L189.583 193.825L189.694 195.259L191.488 198.218L192.989 198.669L194.067 198.739L194.491 200.504L194.36 201.567L193.916 202.018L193.977 203.422L194.219 204.094L194.581 204.435L194.914 204.525L195.498 205.949L197.07 206.661L197.11 206.952L196.587 208.085L195.871 210.993L196.073 211.775L196.345 215.355L196.647 216.087L196.798 220.369L196.123 220.58L195.458 221.512L195.79 223.177L196.99 224.099L197.876 225.202L198.561 227.539L199.489 228.832L199.811 229.705L199.569 231.339L200.113 232.703L200.617 233.405L199.801 234.067L198.602 234.528L197.141 234.799L196.304 235.902L194.501 235.782L192.455 235.992L190.662 235.601L189.946 234.869L189.462 234.799L188.838 235.32L188.616 235.882L188.173 236.183L185.996 236.895L184.767 237.496L183.709 238.329L184.696 240.555L184.344 242.57L182.248 243.573L181.573 243.252L181.17 242.48L179.285 243.313L178.298 245.318L177.774 245.87L177.24 246L176.998 245.89L176.554 244.907L176.423 243.022L173.632 240.625L170.871 239.372L169.219 239.713L167.395 239.662L166.639 239.151L165.803 238.289L165.501 238.218L164.019 238.399L162.447 239.001L159.082 239.291L158.125 239.011L157.953 238.65L157.671 238.599L156.462 238.93L152.965 241.889L151.686 243.483L150.849 243.894H118.071H104.145H87.1158L65.1491 243.884L63.8392 243.914L63.819 207.273H31V97.418L33.1261 99.1428L34.1741 99.5439L36.3204 100.055L37.9931 99.9551L38.517 100.336L40.22 101.048L42.0539 101.309L43.4847 103.284L43.7165 104.748L44.2707 105.811L44.7947 106.323L45.631 106.614L46.7293 106.744L47.8075 107.456L48.6943 108.348L50.8607 108.97L51.6063 109.411L52.6644 110.354L53.0977 110.534L54.3371 110.605L57.229 110.083L58.7304 109.532L59.6675 109.03L61.179 107.867L62.0053 107.576L62.5796 106.533L63.1943 104.167L63.3555 102.472L65.9553 99.1127L66.9629 96.8464L67.2853 95.2019L68.5046 92.013L68.2225 90.1178L68.8774 85.9663L70.7819 81.6242L71.1245 80.2504L70.0463 77.3022L69.5525 74.1435L69.7138 73.2209L70.3385 71.6265L70.4191 70.3831L70.1773 69.5106L69.0789 68.207L68.9882 66.8633L69.7843 63.5742L71.3865 60.4756L71.2655 59.9842L70.7617 59.4227L70.268 57.4973L70.3587 57.1764L70.4997 56.9257L71.6182 56.2238L72.0414 55.7124L72.5755 54.2383L73.2305 54.4389L73.5831 55.0405L73.5932 55.933L74.0567 56.6349L74.1474 56.1636L73.5327 54.3787L73.0491 54.0277L71.719 52.0422L72.0414 51.7815L71.8298 51.621L71.1144 51.5709L71.0237 52.2227L71.3663 52.684L70.7315 52.8845L70.3486 52.7141L70.3687 52.4634L71.3965 50.2472L72.3538 48.9336L72.1825 48.5525L72.6762 47.1486L73.1498 46.4467L73.6234 46.2361L73.8955 47.5598L75.0644 47.3291L75.155 47.0584L74.2683 46.196L74.228 45.7447L74.4698 44.4612L76.1526 39.6478L76.5456 37.191L76.3239 35.2557L76.4247 34.9849L76.8277 34.6941L78.5609 34.3933L79.1756 33.581L79.6693 32.3476L80.4855 32.3175L81.5133 32.7989L81.1707 33.3203L80.4452 33.9821L80.3646 34.9949L81.0599 34.1125L81.4528 34.1426L82.9341 35.3961L83.4077 36.4289L84.2541 39.8584L83.9719 41.1821L84.2743 43.4384L84.1936 44.7319L85.3827 45.7748L86.1384 45.835L86.8538 45.5141L87.1662 45.6344L87.9018 46.4367L86.8437 48.1314L86.6221 49.064L86.5717 50.2773L87.136 50.4378L87.4786 50.3475L88.4459 50.8188L88.7482 51.1497L88.7885 52.313L89.2722 52.8143L89.6853 52.8545L90.431 53.416L89.8264 54.8099L89.6853 55.9831L90.1589 56.2238L91.2371 56.1035L91.3479 56.3241L91.1766 58.7608L91.4286 61.0472L91.5091 61.4483L91.9424 61.8594L92.2246 62.4611L92.1339 63.504L91.5192 66.0711L92.2951 68.0767L93.2222 69.0494L93.3632 70.8544L93.7864 72.3485L94.2802 73.4014L94.653 73.8025L95.439 74.2237L96.7993 74.2337L98.3511 73.0304L101.434 71.6265L101.888 70.6137L102.321 70.714L103.006 71.7368L102.875 72.7998L103.399 74.2137L104.085 75.0259L105.737 75.6577L106.483 75.7078L107.168 77.222L109.868 78.4354L111.068 79.368L110.997 80.0298L110.171 81.4838L110.211 82.1457L110.644 82.8576L110.785 83.69L110.342 84.9835L110.957 86.1969L111.551 88.2125V90.2481L112.105 90.7997L112.68 92.1334L112.498 94.4398L112.085 95.0113L112.015 96.1746L112.116 96.5055L112.69 96.8665L116.428 101.509L116.791 101.209L117.809 101.038L118.071 101.359L117.224 102.953L117.275 103.304L118.051 104.628L118.907 106.624L119.491 108.759L119.693 110.334L119.491 111.417L119.653 112.58L119.582 113.332L118.575 115.458L118.655 116.551L120.872 119.439L122.202 119.94L122.121 121.214L121.628 122.357L121.487 123.571L121.587 123.952L122.222 124.794L123.179 125.536L123.452 126.057L124.731 126.89L125.709 127.351L126.908 127.381L128.248 128.715L128.994 128.745L130.293 129.166L131.029 129.858L132.279 130.119L134.233 129.968L134.395 129.627L133.901 128.775L134.526 129.487L135.584 131.382L136.017 133.588L136.279 134.12L136.833 134.711L137.428 134.852L137.931 134.731L137.76 133.799L137.841 133.398L138.506 133.408L138.828 133.749L138.959 135.022L139.483 135.514L140.138 135.794L141.509 135.734L142.859 136.125L143.725 137.168L143.373 137.309L143.463 137.619L144.108 138.412L144.975 139.114L145.549 138.863L145.59 138.181L145.247 137.87L145.398 137.469L146.154 137.75L147.806 139.224L148.854 139.414L149.227 139.926L149.922 141.871L150.336 141.982L150.668 142.904L150.053 142.754L149.529 142.222L149.086 142.012L148.552 142.232L147.746 143.225L148.421 145.03L149.741 146.404L150.527 146.945L151.696 147.356L153.147 148.48L153.741 149.232L153.631 150.094L154.013 151.538L154.558 151.999L154.981 153.383L155.606 154.476L156.23 155.068L156.089 157.284L157.087 160.834L157.842 162.659L158.538 163.652L159.011 164.033L159.042 165.226L158.709 165.727L159.445 165.356L160.029 164.875L160.301 164.424L162.014 166.54ZM195.972 204.826L195.498 204.726L195.055 204.134L194.46 201.978L195.045 200.554L195.78 199.341L195.77 198.308L195.619 198.047L196.073 197.104L197.211 196.192L197.715 195.209L197.806 194.678L197.695 194.267L197.04 193.204L196.828 193.083L197.241 192.321L198.179 191.709L198.269 194.156L198.521 194.708L199.045 195.049L199.156 195.47L196.486 201.727L196.002 203.302L196.163 204.274L195.972 204.826ZM43.5553 99.7445L43.4444 99.0826L43.7366 97.9294L44.3614 97.067L45.2783 96.3751L47.1727 96.1445L47.7672 95.8236L49.8732 96.1645L49.9337 96.8264L49.4601 97.047L48.7446 97.1974L48.271 96.8163L47.2634 97.2175L47.4246 97.5684L46.7495 98.6815L45.5302 99.1428L43.9482 99.4336L43.5553 99.7445ZM175.688 180.859L175.093 180.308L174.67 179.375L173.935 178.713L173.511 177.771L173.411 176.949L173.894 176.838L175.426 177.801L175.638 178.152L176.343 179.496L176.474 180.418L176.182 180.769L175.688 180.859ZM121.678 119.419L120.922 119.128L120.711 118.085L120.227 117.434L119.723 117.193L119.451 116.691L119.905 116.581L121.456 117.303L122.363 118.607L122.041 119.228L121.678 119.419ZM199.529 228.291L199.337 227.87L199.398 226.827L199.821 224.44L200.244 224.34L201 224.47L200.274 226.857L200.043 228.231L199.529 228.291ZM199.73 223.798L199.005 221.773V220.128L199.942 219.617L200.184 219.797L199.62 221.923L199.73 223.798ZM76.7572 32.9894L76.072 32.4379L76.0216 31.7459L76.6766 31.3147L77.13 31.2245L77.6641 32.0267L77.5936 32.4379L77.0696 32.5682L76.7572 32.9894ZM77.8152 27.434L77.0595 27.1131L76.8277 26.7521L77.251 26.1103L77.8556 26L78.2183 26.1705L78.4702 26.6117L77.8152 27.434ZM46.6185 104.097L46.3062 103.445L47.4246 102.402L47.9889 102.803L48.1703 103.635L46.8805 103.605L46.6185 104.097Z" fill="#0B2149"/>
<path d="M128.2 437.76L127.3 438.21L127.1 437.76L125.7 437.54L124.76 436.83L123.84 436.63L121.47 436.51L121.24 436.35L121.08 435.92L120.77 435.83L119.46 436.23L118.68 435.97L117.53 434.16L118.17 433.71L119.37 433.89L119.96 434.21L120.78 434.38L120.8 433.4L120.03 432.76L119.61 433.52L116.72 433.15L116.48 432.98L115.29 430.55L113.86 428.27L113.63 428.04L112.95 428.07L112.39 427.17L111.99 426.32L111.24 423.55L110.77 423.04L110.22 422.88L109.54 418.5L109.62 417.67L109.82 417.41L110.11 417.93L112.02 419.39L112.49 421.57L113.39 419.05L112.82 418.65L112.37 418.69L110.44 416.57L110.23 415.97L110.25 415.09L110.09 414.43L109.4 413.02L107.99 411.69L106.9 409.76L103.98 402.59L104.08 402.08L103.78 400.56L103.45 399.94L103.25 398.5L104.13 397.7L104.15 396.04L104.81 395.6L107.24 395.89L108.66 396.94L110.38 396.66L111.04 397.22L113.25 397.94L116.87 400.09L120.35 401.73L122.65 401.94L123.67 401.63L124.61 402.16L124.56 401.66L125.41 400.76L126.18 400.49L126.75 400.67L126.99 401.62L127.56 401.91L128.47 401.89L128.15 401.43L127.39 401.26L127.17 401.05L127.12 400.36L127.61 399.91L129.27 399.16L130.68 399.63L132.95 399.17L133.61 399.76L134.39 399.29L135.48 397.4L135.72 397.25L136.41 397.08L136.67 397.46L137.8 397.97L138.18 397.95L138.87 397.55L139.22 396.96L139.41 396.09L139.63 395.85L140.09 395.87L140.8 396.2L142.34 397.34L142.91 398.09L143.51 399.44L142.82 401.9L142.9 402.64L143.35 403.23L143.39 404.32L142.92 406.04L142.99 407.27L143.36 408.34L142.82 411.26L143.18 414.46L143.84 415.53L143.9 417.19L143.33 418L142.94 417.67L142.89 417.32L143.18 416.95L143.31 415.99L142.54 413.92L142.07 413.15L140.81 415.65L139.99 421.58L139.5 422.08L139.34 422.92L139.46 424.44L138.68 425.25L138.24 426.73L138.39 426.97L138.86 426.94L138.66 426.51L138.98 426.27L139.67 426.69L139.95 427.24L140.01 428.27L139.6 428.54L139.43 429.83L140.01 431.14L139.91 431.98L139.64 432L138.87 431.32L138.09 431.66L137.68 432.27L136.68 431.03L135.97 429.58L135.83 428.87L136.43 427.8L136.78 427.7L137.04 427.94L137.09 428.3L136.92 428.65L137.59 429.37L138.52 429.3L138.86 429.01L138.06 427.61L135.52 426.06L135.15 426.12L134.55 426.57L134.76 427.58L135.1 428.32L134.81 428.9L133.74 429.25L133.49 428.63L133.7 428.5L133.54 427L132.56 426.37L132.9 427.23L132.66 428.77L132.03 429.54L131.74 430.62L131.96 431.66L131.8 432.63L131.43 432.87L131.05 432.82L130.18 432.26L129.39 431.33L129.24 430.39L129.01 430.3L128.78 430.67L128.77 431.67L130.14 432.92L129.7 434.02L129.13 434.91L128.59 436.48L128.43 437.56L128.2 437.76ZM141.36 389.12L140.38 388.58L140.1 387.52L140.16 387.22L138.92 384.89L137.37 383.51L138.69 381.77L139.62 381.37L141.77 384.24L142.17 384.53L143 384.75L143.09 385.16L143.6 387.95L143.56 388.33L143.26 388.61L141.89 388.86L141.36 389.12ZM95.69 387.17L95.31 386.89L95.17 386.16L95.37 386.01V385.03L94.75 384.22L94.78 383.45L94.97 381.18L95.82 380.55L95.95 380.18L95.84 379.37L96.3 379.24L97.27 379.83L97.72 380.48L97.87 382.77L98.13 384.24L98.03 385.01L97.7 385.75L95.69 387.17ZM143.64 392.37L143.61 391.68L143.42 391.4L140.9 391.72L139.93 391.3L139.95 390.75L140.67 390.16L141.41 390.12L142.17 390.35L143.69 389.58L145.17 391.34L145.15 391.49L144.4 391.78L143.64 392.37ZM132.39 436.2L131.7 435.88L131.01 436.03L130.44 434.84L132.36 432.47L133.06 434.3L132.58 436.04L132.39 436.2ZM133.03 432.47L132.28 430.9L132.98 429.68L133.41 430.34L133.8 432.15L133.77 432.32L133.03 432.47ZM140.12 424.93L140.17 422.97L140.8 422.49L141.36 422.54L141.85 423.5L141.8 423.65L141.04 423.66L140.12 424.93ZM106.19 395.59L106 395.45L105.95 394.76L106.6 393.99L107.58 395.11L106.19 395.59Z" fill="#0B2149"/>
</g>
<rect x="1.5" y="1.5" width="57" height="57" stroke="#0B2149" stroke-width="3"/>
<rect x="58.5" y="1.5" width="57" height="57" stroke="#0B2149" stroke-width="3"/>
<rect x="1.5" y="58.5" width="57" height="57" stroke="#0B2149" stroke-width="3"/>
<rect x="58.5" y="58.5" width="57" height="57" stroke="#0B2149" stroke-width="3"/>
<rect x="115.5" y="1.5" width="57" height="57" stroke="#0B2149" stroke-width="3"/>
<rect x="115.5" y="115.5" width="57" height="57" stroke="#0B2149" stroke-width="3"/>
<rect x="1.5" y="115.5" width="57" height="57" stroke="#0B2149" stroke-width="3"/>
<rect x="172.5" y="115.5" width="57" height="57" stroke="#0B2149" stroke-width="3"/>
<rect x="58.5" y="115.5" width="57" height="57" stroke="#0B2149" stroke-width="3"/>
<rect x="115.5" y="58.5" width="57" height="57" stroke="#0B2149" stroke-width="3"/>
<rect x="115.5" y="172.5" width="57" height="57" stroke="#0B2149" stroke-width="3"/>
<rect x="1.5" y="172.5" width="57" height="57" stroke="#0B2149" stroke-width="3"/>
<rect x="172.5" y="58.5" width="57" height="57" stroke="#0B2149" stroke-width="3"/>
<rect x="172.5" y="172.5" width="57" height="57" stroke="#0B2149" stroke-width="3"/>
<rect x="58.5" y="172.5" width="57" height="57" stroke="#0B2149" stroke-width="3"/>
<rect x="229.5" y="229.5" width="57" height="57" stroke="#0B2149" stroke-width="3"/>
<rect x="229.5" y="286.5" width="57" height="57" stroke="#0B2149" stroke-width="3"/>
<rect x="1.5" y="457.5" width="57" height="57" stroke="#0B2149" stroke-width="3"/>
<rect x="1.5" y="229.5" width="57" height="57" stroke="#0B2149" stroke-width="3"/>
<rect x="58.5" y="229.5" width="57" height="57" stroke="#0B2149" stroke-width="3"/>
<rect x="1.5" y="286.5" width="57" height="57" stroke="#0B2149" stroke-width="3"/>
<rect x="58.5" y="286.5" width="57" height="57" stroke="#0B2149" stroke-width="3"/>
<rect x="115.5" y="229.5" width="57" height="57" stroke="#0B2149" stroke-width="3"/>
<rect x="115.5" y="343.5" width="57" height="57" stroke="#0B2149" stroke-width="3"/>
<rect x="1.5" y="343.5" width="57" height="57" stroke="#0B2149" stroke-width="3"/>
<rect x="172.5" y="229.5" width="57" height="57" stroke="#0B2149" stroke-width="3"/>
<rect x="172.5" y="343.5" width="57" height="57" stroke="#0B2149" stroke-width="3"/>
<rect x="58.5" y="343.5" width="57" height="57" stroke="#0B2149" stroke-width="3"/>
<rect x="115.5" y="286.5" width="57" height="57" stroke="#0B2149" stroke-width="3"/>
<rect x="115.5" y="400.5" width="57" height="57" stroke="#0B2149" stroke-width="3"/>
<rect x="1.5" y="400.5" width="57" height="57" stroke="#0B2149" stroke-width="3"/>
<rect x="172.5" y="286.5" width="57" height="57" stroke="#0B2149" stroke-width="3"/>
<rect x="172.5" y="400.5" width="57" height="57" stroke="#0B2149" stroke-width="3"/>
<rect x="58.5" y="400.5" width="57" height="57" stroke="#0B2149" stroke-width="3"/>
<rect x="57" width="500" height="516" fill="url(#paint0_linear_56_2)"/>
<defs>
<linearGradient id="paint0_linear_56_2" x1="92.5" y1="247" x2="533" y2="249.5" gradientUnits="userSpaceOnUse">
<stop stop-color="#F7EFEE" stop-opacity="0"/>
<stop offset="1" stop-color="#F7EFEE"/>
</linearGradient>
<clipPath id="clip0_56_2">
<rect width="442.489" height="415.551" fill="white" transform="translate(0 23)"/>
</clipPath>
</defs>
</svg>
