<svg width="276" height="488" viewBox="0 0 276 488" fill="none" xmlns="http://www.w3.org/2000/svg">
<g clip-path="url(#clip0_266_83)">
<path d="M196.557 118.768V118.43L197.14 117.687L195.73 116.738L196.05 115.995L196.445 115.798L197.883 115.845L197.977 115.516L197.873 114.623L197.591 114.069L197.855 113.683L198.766 113.73L199.781 114.388L201.116 114.454L202.056 115.131L202.629 115.215L207.103 114.915L208.438 115.337L210.083 114.21L211.483 114.238L212.057 115.328L211.709 116.08L212.264 115.516L212.339 115.272L212.132 114.059L212.329 113.693L213.692 113.204L214.764 113.599L215.441 113.542L215.046 113.495L214.322 112.959L214.209 112.48L214.284 109.501L214.858 108.598L213.316 107.452L212.799 106.718L212.376 106.455L211.606 106.314L210.149 106.559L208.889 107.235L208.692 107.217L207.705 106.23L207.508 105.553L206.436 104.98L205.477 105.064L205.412 104.951L206.53 103.617L207.658 103.1L208.739 104.162L209.51 105.985L209.904 106.023L210.215 105.459L209.773 104.087L209.303 103.241L209.66 103.156L210.628 103.485L211.286 103.137L212.95 104.528L213.053 104.98L214.67 107.047L215.224 107.17L215.694 106.803L216.738 105.243L217.179 105.28L217.978 106.136L219.51 108.908L219.886 109.209L220.582 109.416L221.155 109.031H221.663L222.18 109.783L223.627 110.394L224.323 110.412L224.821 110.253L225.808 109.717L226.184 109.209L227.293 109.397L227.406 109.717L226.701 110.121L226.541 110.365L226.588 110.619L226.908 110.92L227.641 111.23L228.205 110.967L228.505 110.572L228.74 110.534L230.122 111.587L230 111.785L230.141 112.621L230.338 112.781L232.002 112.537L232.528 112.753L233.496 112.837L234.342 112.734L235.094 112.161L236.1 112.104L237.115 113.514L238.403 114.181L239.286 114.915L240.395 115.018L240.79 115.197L240.734 114.999L241.147 113.928L241.777 113.298L242.303 113.072L242.896 113.335L244.409 113.157L245.189 112.527L244.954 112.396L244.371 112.743L244.268 112.49L244.484 111.709L245.424 111.456L246.12 111.474L247.417 110.441L247.379 109.717L247.755 109.726L248.103 110.13L247.793 110.628L246.054 112.104L246.486 112.612L245.311 113.815L245.264 114.144L245.462 114.633L245.941 115.084L246.458 114.858L246.608 114.435L247.445 113.749L248.864 113.335L247.999 114.426L248.347 114.952L249.099 114.604L249.278 114.915L248.46 116.099L248.742 116.794L249.043 117.076L249.466 116.804L250.236 116.719L250.377 116.964L251.082 116.898L251.628 116.475L252.342 114.661L252.069 114.304L251.101 114.426L250.481 114.163L250.434 113.909L251.496 112.856L253.225 111.7L254.363 111.493L254.128 112.273L254.767 114.069L255.491 115.121L255.951 115.112L256.346 114.83L256.318 114.604L255.65 114.36L255.707 114.163L256.534 113.956L257.568 114.482L258.611 115.892L256.835 117.133L256.233 117.828L255.199 119.492L254.964 120.751L253.677 120.272L253.573 120.968L254.203 122.133L254.194 123.139L254.024 124.126L253.31 125.197L253.216 124.868L252.389 125.15L252.426 123.299L252.267 123.139L251.947 123.214L251.543 124.304L250.669 125.066L250.255 125.094L250.114 124.69L249.616 124.492L248.554 124.906L247.877 125.46L247.511 126.09L247.539 126.382L247.952 126.701L247.68 127.312L247.229 127.688L247.041 128.863L247.482 130.169L247.877 130.386L248.441 130.245L248.883 129.747L248.827 130.527L248.507 131.617L247.858 132.613L247.576 134.503L247.294 135.048L246.11 135.847L244.766 137.585L243.939 139.014L243.92 139.775L242.642 140.64L242.228 140.631L242.858 142.454L243.29 143.103L243.967 143.676L245.274 144.146L247.125 145.33L248.075 146.195L250.81 147.614L251.101 147.868L251.346 149.156L251.91 149.814L254.447 151.026L255.491 151.891L256.44 152.925L259.138 153.038L260.218 153.602L262.587 155.284L263.8 155.801L264.363 155.782L265.416 156.13L266.347 156.591L267.587 158.565L269.035 159.796V262.764L199.988 262.774L186.387 262.764L177.261 262.83L177.204 167.334V147.605V142.059L178.116 142.36L179.094 143.206L178.981 145.124L179.15 145.33L179.817 144.503L179.432 141.956L179.545 141.721L180.598 142.013L181.913 142.68L184.019 145.03L184.103 145.537L184.667 145.321L183.972 144.409L183.596 143.629L183.464 142.849L183.69 142.407L183.803 141.702L185.372 141.975L186.021 141.759L186.839 140.969L185.015 141.543L184.094 140.95L183.361 139.992L183.192 139.503L183.568 139.315L184.376 139.23L185.043 138.76L185.081 138.535L183.934 138.92L182.712 138.695L181.848 138.196L180.861 137.256L180.983 136.42L181.594 135.254L182.224 134.418L184.677 132.876L185.231 130.263L185.175 129.784L185.654 127.895L186.378 127.143L186.472 127.801L186.829 128.008L187.816 127.829L189.066 126.983L190.091 125.902L189.987 125.517L189.348 124.643L189 124.351L188.653 124.276L188.568 124.051L188.662 122.208L188.831 121.748L189.254 121.56L189.395 121.823L189.696 121.964L190.081 121.879L190.739 121.409L191.003 120.836L190.909 119.454L191.012 119.107L192.591 118.402L193.531 119.473L194.433 119.407L193.569 119.154L193.277 118.054L193.55 117.387L193.625 116.559L193.315 116.324L193.813 116.118L195.26 116.578L196.557 118.768ZM197.197 111.493L196.2 110.666L194.33 109.895L192.45 108.42L191.689 106.418L191.144 104.397L191.219 103.635L191.435 103.466L192.854 104.707L193.277 105.393L194.621 105.816L196.05 105.478L196.604 104.961L197.676 105.421L198.87 104.5L199.18 104.472L199.387 105.177L199.913 105.929L199.96 105.666L199.612 104.792L199.734 104.275L200.411 103.739L201.906 104.34L203.034 105.825L203.118 106.606L200.515 109.341L200.186 109.388L198.926 110.196L197.197 111.493ZM257.906 134.813L258.066 134.55L258.508 134.521L258.245 135.837L257.709 136.044L256.299 135.668L255.086 135.847L252.492 135.198L252.849 133.403L252.774 132.632L253.009 131.758L253.301 131.26L254.682 130.997L255.011 130.743L254.72 130.085L255.575 129.371L256.017 129.399L255.942 129.878L255.547 130.151L255.923 131.241L256.891 131.41L257.229 131.053L257.126 130.696L257.314 130.442L257.652 130.348L257.953 130.564L258.028 130.95L257.023 131.984L256.487 132.331L255.857 133.732L255.876 134.7L256.167 134.954L257.53 135.16L257.906 134.813ZM192.441 110.45L190.749 109.801L188.39 110.403L187.826 110.29L187.666 110.036L187.591 109.764L188.155 108.739L188.625 109.021L189.01 109.04L189.386 108.673L189.358 107.235L189.188 106.794L190.025 105.337L190.927 105.149L192.431 108.908L193.155 109.096L193.916 109.783L193.681 110.3L192.441 110.45ZM253.771 106.493L253.808 106.013L255.19 104.011L256.064 102.244L256.525 102L256.026 103.917L254.363 106.248L254.137 106.455L253.771 106.493ZM213.899 105.337L213.598 105.017L213.241 104.03L212.94 102.31L213.72 102.009L214.209 103.617L214.19 104.632L213.899 105.337ZM259.391 152.135L258.809 151.703L258.169 150.754L258.357 150.209L258.94 149.635L259.401 150.209L259.786 151.459L259.523 152.126L259.391 152.135ZM250.688 131.476L250.716 131.1L250.387 130.527L250.124 130.705L250.283 131.203H249.851L249.691 131.006L249.785 130.132L250.678 129.427L251.111 129.502L251.562 130.113L251.421 130.78L251.082 131.326L250.688 131.476ZM250.5 108.918V108.438L251.43 107.696L252.201 107.658L253.554 106.606L253.46 107.123L252.436 107.903L250.5 108.918ZM253.987 150.199L253.724 150.068L253.93 149.184L254.513 148.789L254.804 148.921L254.626 150.077L253.987 150.199Z" fill="#0B2149"/>
<path d="M29.6007 257.745L29.7793 257.397L29.7887 256.016L27.5047 253.6L26.2922 251.326L25.183 248.515L24.1021 247.857L23.181 245.244L23.0964 244.746L23.2092 243.731L22.5795 242.688L21.2918 241.184L20.9252 240.112L20.8688 237.903L21.2824 236.832L21.5079 235.46L22.3821 232.64L23.087 231.23L24.5345 230.093L24.7883 229.143L24.9293 227.875L24.7037 226.408L25.2958 224.604L25.183 223.532L24.6285 222L23.792 220.816L23.6416 219.923L25.1078 216.953L26.4707 213.033L27.4577 211.567L28.0592 211.228L28.8111 211.097L28.9427 211.36L28.4352 212.319L27.937 215.204L28.595 216.595L28.2754 218.626L28.7172 219.077L30.9448 218.137L31.2267 216.962L31.8471 215.374L33.5296 212.45L33.7927 211.548L36.7723 209.894L37.8908 209.809L39.8552 208.832L41.9607 208.023L43.6713 206.003L44.2917 205.523L45.5794 204.969L46.7919 203.145L49.1887 202.027L49.4518 201.331L50.1004 200.974L50.7207 200.899L52.4126 200.297L53.7473 199.47L54.7812 198.596L55.6083 198.775L56.0501 199.216L56.5013 199.338L58.4469 198.295L59.4526 198.643L59.7816 199.019L60.4959 199.338L61.2573 199.479L61.9058 199.47L64.7538 198.887L66.4362 198.154L68.6733 196.002L69.7918 195.334L69.9328 195.607L70.3651 195.616L73.5327 195.09L74.6794 195.156L76.1456 194.667L77.6683 192.844L77.9691 192.026L78.9936 191.246L80.1027 191.142L82.6029 191.763L84.1068 192.345L86.184 191.274L90.8178 190.597L91.8141 190.268L97.3409 187.965L98.8636 187.176L101.411 185.052L103.573 182.128L105.114 178.811L106.524 176.912L106.402 176.047L106.768 175.239L107.013 175.004L107.68 175.164L108.188 174.891L108.94 174.29L109.485 173.491L110.114 173.18L112.248 171.498L112.558 170.746L112.502 170.163L112.201 169.881L111.393 169.656L110.932 168.97L110.819 166.958L110.218 165.398L110.246 163.321L110.566 162.052L111.402 160.614L112.652 159.429L113.348 158.988L114.645 158.978L114.128 157.822L114.56 157.239L114.842 157.127L115.068 157.343H115.312L116.459 156.948L116.562 156.647L116.299 156.262L116.544 155.237L116.835 154.908L117.371 154.796L117.906 154.203L117.963 153.621L118.179 153.273L118.903 153.01L119.598 153.705L119.382 153.978L118.875 153.921L118.536 155.096L119.185 155.98L119.965 156.469L120.172 157.277L122.127 160.933L124.636 164.947L124.862 165.821L125.05 164.89L124.702 164.214L124.74 163.377L125.304 161.666L124.843 160.256L125.031 159.448L125.68 159.429L126.977 160.999L127.729 161.676L128.095 161.836L128.349 161.695L127.954 161.507L127.484 160.924L127.118 159.458L128.086 158.348L127.747 158.17L126.967 158.405L126.807 158.292L126.309 157.23L125.191 156.017L125.247 154.861L124.1 154.88L123.32 154.175L124.016 154.147L125.52 154.485L126.215 153.433L126.3 152.887L126.197 152.474L125.059 152.248L124.693 151.919L124.664 150.989L124.805 150.688L126.394 150.34L127.212 150.979L126.986 151.478L126.46 151.619L127.55 152.765L128.086 152.878L128.105 152.465L128.838 151.468L130.078 151.647L130.624 151.891L130.896 152.07L131.263 152.944L131.545 153.141L132.597 153.198L133.124 152.596L134.054 153.047L135.107 153.151L136.639 152.934L137.729 153.414L138.312 153.169L137.523 153.094L136.319 152.53L135.483 152.333L134.947 152.295L134.111 152.54H133.481L133.302 152.352L133.049 151.214L133.603 149.955L134.017 149.861L134.505 150.603L135.267 150.077L135.192 149.109L135.492 148.009L136.639 146.853L136.066 146.618L135.511 146.778L134.684 148.188L134.205 148.197L133.312 147.427L133.02 145.359L133.894 143.357L134.214 143.216L135.163 143.761L135.925 143.366L136.103 143.103L135.991 141.082L136.423 140.979L138.538 142.06L139.365 142.859L141.282 143.789L140.211 142.84L140.154 142.605L140.643 141.712L140.427 141.486L139.553 141.477L138.538 141.853L138.425 141.251L138.801 140.725L139.196 140.537L139.487 140.725L139.891 140.029L139.572 139.945L138.237 140.828L137.955 140.819L137.654 140.02L137.983 139.597L138.425 139.39L139.026 139.569L139.243 139.503L139.778 139.127L139.628 138.77L140.239 138.338L140.944 139.926L141.122 140.039L141.226 139.588L141.094 138.685L142.297 139.39L142.326 139.766L142.73 139.964L143.679 139.917L143.886 139.719L143.707 139.569L143.397 139.597L143.125 139.353L143.425 139.061L142.316 138.272L141.31 137.774L141.649 137.379L141.921 137.285L140.831 135.668L141.931 134.098L142.88 133.309L143.416 133.534L145.465 133.581L145.568 132.303L145.371 131.072L145.503 130.367L145.766 130.17L146.894 130.705L146.01 134.446L146.198 134.249L146.828 132.078L148.059 132.707L147.871 133.835L148.069 134.202L148.67 134.578L149.572 133.572L150.052 133.234L150.343 131.438L151.123 129.85L151.161 129.192L150.494 127.481L149.845 127.068L150.353 126.955L151.17 127.077L151.875 127.434L151.791 128.224L151.264 128.45L151.612 129.596L152.044 129.718L152.59 130.273L152.853 129.859L152.665 129.305L153.069 128.365L154.065 127.575L154.789 127.472L154.31 128.647L155.466 130.141L155.795 130.235L156.847 129.126L157.722 127.538L157.28 125.696L158.426 125.235L159.423 125L160.053 125.508L160.635 126.259L160.457 126.654L161.18 127.547L161.434 127.143L161.444 126.805L162.337 126.767L164.207 127.369L165.184 128.75L166.585 129.69L169.64 133.939L170.081 133.722L171.811 135.208L171.999 136.232L171.51 136.937L170.786 139.381L170.89 140.49L170.824 142.492L170.288 143.563L170.777 143.281L171.059 142.887L171.416 140.575L171.924 140.781L172.694 141.543L172.995 142.539L173.042 141.524L172.356 140.33L172.027 139.014L173.193 137.416L173.399 137.454L173.672 138.798L174.64 138.826L174.744 138.347L174.339 137.614L174.02 136.232L175.533 135.8L180.27 136.984V142.53V162.259L180.327 257.745L180.204 323.747L178.09 324.668L175.655 326.087L171.867 327.807L170.128 328.503L167.328 329.048L163.22 330.636L161.077 331.012L156.612 331.219L153.68 330.937L151.433 330.288L150.306 330.843L149.319 330.627L147.627 331.548L144.657 333.992L143.933 334.311L142.485 334.622L139.355 336.351L138.171 337.413L136.818 338.231L133.312 338.804L132.08 339.293L131.141 340.064L130.285 341.154L129.223 344.237L128.744 346.258L127.766 346.944L126.845 347.912L126.497 348.608L126.488 348.937L126.037 349.435L124.505 350.478L122.747 350.346L122.484 350.45L121.873 351.277L121.403 351.634L120.707 351.86L120.021 350.243L119.175 349.886L117.408 350.487L116.233 350.318L114.842 350.375L114.654 350.563L113.197 350.713L112.389 350.553L111.816 350.779L111.449 351.202L111.336 351.822L109.983 351.963L109.588 351.831L109.804 351.371L109.503 350.309L108.911 349.547L108.705 349.472L107.915 349.613L107.351 350.149L106.524 350.384L103.892 349.435L103.262 349.388L101.984 349.359L99.0798 349.867H97.1529L96.4292 350.252L93.8632 350.61L92.6037 351.305L90.9306 350.882L88.4022 350.751L86.4472 351.352L85.6953 352.179L84.4452 352.847L83.9094 353.458L83.0635 354.943L82.9225 355.695L81.475 357.114L80.2813 357.819L78.956 357.349L77.2453 357.189L75.4877 358.383L75.2809 358.693L75.6381 359.088L75.2809 359.492L74.4538 359.999L72.8089 360.535L72.2074 361.156L71.8972 361.973L70.8163 362.782L68.7766 363.872L66.2859 364.323L66.2483 364.577L66.4926 364.84L67.9025 365.15L67.2728 365.507L66.502 365.366L65.7407 364.765L65.1579 364.549L64.5188 364.586L64.1992 364.812L63.9642 365.667L63.1841 365.047L61.1351 364.182L57.2344 364.163L56.6986 364.661L56.4637 364.671L54.9504 364.182L53.7003 364.379L52.2528 363.966L49.7714 362.312L47.29 361.738L46.6791 360.3L45.664 359.125L43.9721 357.396L42.4212 356.362L40.5696 355.394L39.827 355.309L39.0845 355.488L38.6145 356.099L37.4584 354.867L37.4678 353.805L36.9321 350.008L36.8945 347.884L37.3362 345.835L37.7686 345.957L38.3984 346.897L39.6109 347.414L40.579 347.329L41.4061 347.029L41.7445 346.831L44.63 342.677L44.1883 339.255L43.4269 335.496L43.6619 334.678L44.4421 333.71L44.4045 334.095L43.8217 334.744L43.8029 335.232L44.2165 336.407L44.4984 336.83L44.6864 336.699L44.6676 336.041L45.1376 334.311L44.8368 331.285L45.0718 329.734L44.8932 328.578L44.9496 326.162L44.5642 324.047L44.3199 323.38L41.8291 318.84L41.1241 316.735L40.532 315.363L39.0751 312.825L37.8438 309.676L37.919 309.356L37.5994 306.969L36.9227 304.638L36.7159 304.459L36.7629 299.901L37.1295 297.767L36.6219 295.991L36.3587 295.568L36.1989 294.477L35.6632 293.209L33.4638 290.596L33.1818 289.74L33.1066 287.842L32.2795 286.169L30.2868 283.189L29.5161 282.719L28.7266 281.591L28.1156 278.837L28.2472 277.982L28.5856 277.183L28.3882 275.989L27.89 274.25L26.4989 271.365L25.0891 268.724L22.9084 265.575L19.7973 262.266L19.2239 260.452L19.6939 259.512L19.6281 258.469L19.6657 258.196L19.8631 258.055L20.0323 260.255L20.3424 260.894L20.662 259.089L22.1753 260.96L22.3821 261.571L22.5043 263.498L22.7392 264.193L23.4912 265.152L23.8108 265.218L23.839 264.926L24.4969 264.475L24.9293 264.578L25.6624 263.488L25.7188 261.552L24.9857 260.574L23.5852 259.653L22.5513 258.582L21.9591 256.138L20.9252 254.465L21.1038 253.534L21.7241 252.547L22.0155 252.764L22.9648 254.474L24.0457 255.405L24.4217 256.467L24.1773 257.802L23.8953 258.112L23.9235 259.071L24.2243 259.945L24.7413 259.992L25.0891 259.616L25.9068 258.037L26.4425 260.687L26.7245 261.411L27.8524 262.924L29.1307 261.919L29.4033 261.007L29.0931 260.565L28.8957 259.766L29.2435 257.576L29.6007 257.745ZM19.0453 259.371L18.7446 259.127L17.2313 256.834L16.47 255.301L16 253.534L16.0658 252.547L16.47 251.965L16.9775 252.087L16.7707 252.585L16.8083 252.895L18.0114 256.335L19.0453 258.215L19.2521 258.958L19.0453 259.371ZM134.515 143.047L134.43 142.755L133.885 142.248L133.97 141.778L134.223 141.373L134.891 141.101L135.774 142.577L134.515 143.047ZM41.1147 201.096L40.767 200.805L40.5132 201.049L40.438 200.965L40.4474 200.391L41.4907 198.981L41.8291 198.775L41.9513 198.84L42.0922 199.583L42.0453 199.912L41.4531 200.833L41.1147 201.096ZM140.803 134.681L140.267 134.39L140.333 133.591L140.568 132.989L141.047 132.491L141.517 133.018L141.282 134.164L140.916 134.343L140.803 134.681Z" fill="#0B2149"/>
<path d="M249.545 355.37L248.53 357.006L247.703 357.372L246.829 358.867L245.776 359.525L245.146 360.775L244.423 362.965L244.676 363.087L245.128 363.031L246.491 362.072L246.631 362.72L246.472 365.155L245.983 365.362L245.71 364.845L244.855 363.895L244.244 363.519L243.605 363.613L243.154 364.675L242.787 364.666L242.402 363.924L241.058 362.166L239.544 360.606L238.746 359.966L238.417 359.863L237.364 360.23L237.768 359.111L238.351 358.275L238.398 359.045L239.732 360.474L240.268 360.841L241.283 360.512L240.249 360.098L240.118 359.713L240.061 359.393L240.231 359.017L239.779 356.479L238.999 354.402L238.877 353.011L238.191 351.949L236.556 350.107L234.591 348.509L234.873 347.334L234.77 346.488L234.262 345.04L233.228 342.907L232.063 342.456L230.173 342.756L229.365 343.217L228.745 342.522L228.754 342.211L228.002 340.209L226.762 337.39L227.579 337.446L227.983 337.822L228.124 338.433L228.82 337.484L229.027 336.863L228.82 335.792L228.096 334.767L227.457 334.213L227.166 334.166L225.549 334.673L224.891 335.303L224.506 335.228L224.525 334.25L224.816 333.583L225.333 333.79L225.502 333.508L224.233 331.741L223.209 331.139L222.569 330.566L222.682 330.124L221.987 329.908L221.733 330.115L221.583 330.726L220.746 331.252L217.494 331.026L217.184 330.951L216.469 330.18L215.529 329.842L214.091 328.479L213.603 328.216L211.554 327.972L210.576 328.169L209.815 328.874L208.931 329.184L208.292 329.231L207.587 329.052L205.867 327.314L203.235 325.406L199.109 323.272L196.9 322.445L196.562 322.482L195.519 323.328L193.798 323.996L193.281 324.061L187.868 323.657L186.702 323.695L184.531 323.864L183.534 324.118L177.35 324.644L175 325.03L175.056 259.066L184.183 259L197.784 259.009L266.83 259H297.444L297.472 293.354L297.425 353.227L297.162 352.879L297.124 404.011L295.93 403.889L295.122 404.133L294.38 404.105L292.66 403.184L290.883 401.398L289.68 398.964L288.486 397.15L287.753 396.633L287.18 396.661L285.347 394.198L284.708 392.92L285.027 392.262L284.999 391.745L284.52 390.552L284.708 389.377L285.431 388.775L285.826 387.76L285.817 386.059L285.441 384.715L283.655 380.363L280.835 376.603L278.974 374.601L277.884 373.718L278.382 373.877L281.164 376.312L283.006 378.84L283.787 380.447L283.674 379.573L283.204 378.248L282.819 377.675L281.606 376.274L278.053 372.872L278.034 371.762L278.664 371.509L279.435 372.176L279.341 373.746L279.501 373.962L280.459 373.859L280.722 372.768L280.845 371.105L280.675 369.911L279.209 369.187L278.42 369.967L277.856 370.136L277.254 370.108L276.737 370.334L276.53 370.841L276.634 371.17L277.217 371.358L277.414 371.603L276.953 372.195L274.199 371.96L273.476 372.261L272.865 373.003L272.31 373.389L268.626 373.586L267.789 372.956L268.4 371.875L269.754 371.199L271.314 369.516L271.605 367.871L271.483 367.439L271.586 366.649L272.085 365.559L271.746 363.548L271.981 362.438L271.897 361.893L271.276 360.822L269.641 358.82L269.077 356.79L267.78 354.581L267.535 354.637L266.915 356.085L267.188 356.63L267.037 357.147L266.069 358.143L265.712 359.374L265.571 361.668L264.283 365.86L264.274 366.894L263.522 367.505L262.074 366.847L261.332 366.659L260.937 366.734L259.02 367.458L258.587 368.163L258.343 368.322L256.924 368.106L256.134 368.802L255.551 369.018L255.222 368.858L254.931 368.369L255.307 367.758L256.003 367.072L256.247 366.48L256.416 364.732L256.895 364.027L257.751 364.365L258.625 364.13L259.527 364.074L259.706 364.356L260.58 364.751L261.087 364.478L261.294 363.961L261.745 361.01L261.567 358.707L261.689 356.423L261.266 354.872L261.416 354.665H261.915L262.215 354.083L262.732 352.372L262.817 351.488L264.603 349.204L265.75 348.076L266.182 347.954L266.351 347.513L266.022 346.074L264.988 344.091L265.298 343.17L265.881 342.756L266.426 342.54L267.084 342.522L267.366 342.296L267.291 341.676L266.981 341.083L266.426 340.848L265.834 338.16L265.298 336.967L265.016 335.51L264.471 335.096L264.387 337.061L264.622 337.192L264.857 337.606L264.922 338.893L264.584 340.642L264.048 340.67L262.751 341.083L261.661 342.268L260.608 344.364L260.552 345.369L260.364 345.933L258.822 348.819L258.127 349.402L256.886 349.449L256.162 349.007L255.495 350.003L255.683 350.135L255.288 350.548L252.393 352.081L250.692 353.415L250.109 354.017L250.053 354.412L249.545 355.37ZM265.928 374.338L267.479 374.761L267.977 375.438L267.987 376.096L267.244 376.763L266.031 376.171L264.396 376.049L262.958 376.725L262.77 376.988L262.902 377.853L262.61 378.145L261.275 378.803L260.279 377.787L258.935 377.534L258.559 377.656L258.446 378.116L258.155 378.286L256.942 378.173L255.598 378.38L253.681 378.436L253.352 377.891L251.904 376.688L251.857 376.246L252.337 374.836L256.078 373.727L256.877 373.718L257.835 373.492L259.847 372.599L261.98 372.778L262.582 373.351L262.573 374.366L262.714 374.554L263.691 374.686L264.697 375.259L265.298 375.306L265.928 374.338Z" fill="#0B2149"/>
<path d="M391.802 224.096V224.266L392.437 224.869L391.906 223.05L391.234 221.674L391.243 221.156L391.641 220.109L392.048 219.582L392.503 219.459L392.863 219.61L393.649 220.816L394.113 222.126L395.363 222.635L396.992 223.748L398.157 224.275L397.561 222.871L397.551 222.042L397.835 221.467L398.583 221.599L399.313 222.683L399.01 223.38L399.085 223.917L400.478 225.887L399.824 230.289L400.402 231.476L400.279 233.06L400.961 234.436L401.794 234.888L402.561 235.002L402.855 235.671L403.556 236.199L404.048 237.612L404.777 238.008H405.118L405.601 238.348L406.691 239.686L407.391 239.893L407.941 240.327L407.78 240.581L407.846 240.892L408.13 241.005L408.632 240.515L408.651 239.912L408.897 239.677L409.352 239.808L410.422 241.034L411.919 242.363L412.705 244.691L413.955 246.727L415.451 247.867L416.9 248.433L417.412 249.017L417.715 249.743L417.819 251.091L419.505 253.871L420.916 254.295L421.93 254.361L422.327 256.02L422.204 257.019L421.788 257.443L421.844 258.763L422.072 259.394L422.413 259.715L422.725 259.8L423.275 261.138L424.752 261.807L424.79 262.081L424.297 263.146L423.625 265.879L423.814 266.614L424.07 269.979L424.354 270.667L424.496 274.692L423.862 274.89L423.237 275.766L423.549 277.331L424.676 278.198L425.51 279.235L426.154 281.431L427.025 282.647L427.328 283.467L427.101 285.003L427.612 286.285L428.086 286.945L427.319 287.567L426.192 288L424.818 288.255L424.032 289.292L422.337 289.178L420.414 289.376L418.728 289.009L418.056 288.321L417.601 288.255L417.014 288.745L416.806 289.273L416.389 289.556L414.343 290.225L413.188 290.79L412.193 291.573L413.122 293.665L412.79 295.559L410.82 296.502L410.185 296.2L409.807 295.475L408.036 296.257L407.107 298.142L406.615 298.66L406.113 298.783L405.886 298.679L405.469 297.756L405.346 295.984L402.722 293.731L400.127 292.553L398.574 292.873L396.86 292.826L396.149 292.345L395.363 291.535L395.079 291.469L393.687 291.639L392.209 292.204L389.046 292.477L388.146 292.213L387.985 291.874L387.72 291.827L386.584 292.138L383.297 294.919L382.094 296.417L381.308 296.804H350.499H337.41H321.403L300.756 296.794L299.525 296.822L299.506 262.382H268.659V159.127L270.657 160.749L271.642 161.126L273.66 161.606L275.232 161.512L275.724 161.87L277.325 162.539L279.049 162.784L280.394 164.641L280.611 166.017L281.132 167.016L281.625 167.497L282.411 167.77L283.443 167.893L284.457 168.562L285.29 169.401L287.326 169.985L288.027 170.4L289.022 171.286L289.429 171.456L290.594 171.522L293.312 171.032L294.723 170.513L295.604 170.042L297.025 168.949L297.801 168.675L298.341 167.695L298.919 165.471L299.071 163.878L301.514 160.72L302.461 158.59L302.764 157.044L303.91 154.047L303.645 152.266L304.261 148.364L306.051 144.282L306.373 142.991L305.359 140.22L304.895 137.251L305.047 136.384L305.634 134.885L305.71 133.717L305.483 132.897L304.45 131.671L304.365 130.408L305.113 127.317L306.619 124.404L306.505 123.943L306.032 123.415L305.568 121.605L305.653 121.303L305.786 121.068L306.837 120.408L307.235 119.927L307.737 118.542L308.352 118.73L308.684 119.296L308.693 120.135L309.129 120.794L309.214 120.351L308.636 118.674L308.182 118.344L306.932 116.478L307.235 116.233L307.036 116.082L306.363 116.035L306.278 116.647L306.6 117.081L306.003 117.269L305.644 117.109L305.662 116.874L306.629 114.791L307.528 113.556L307.367 113.198L307.831 111.878L308.277 111.218L308.722 111.02L308.977 112.265L310.076 112.048L310.161 111.793L309.328 110.983L309.29 110.559L309.517 109.352L311.099 104.828L311.468 102.519L311.26 100.7L311.355 100.445L311.733 100.172L313.362 99.889L313.94 99.1256L314.404 97.9663L315.171 97.938L316.138 98.3904L315.815 98.8805L315.134 99.5026L315.058 100.455L315.711 99.6251L316.081 99.6534L317.473 100.832L317.918 101.802L318.714 105.026L318.448 106.27L318.733 108.391L318.657 109.607L319.774 110.587L320.485 110.643L321.157 110.342L321.451 110.455L322.142 111.209L321.148 112.802L320.939 113.678L320.892 114.819L321.422 114.97L321.744 114.885L322.654 115.328L322.938 115.639L322.976 116.732L323.43 117.203L323.819 117.241L324.519 117.769L323.951 119.079L323.819 120.182L324.264 120.408L325.277 120.295L325.381 120.502L325.22 122.793L325.457 124.942L325.533 125.319L325.94 125.705L326.205 126.271L326.12 127.251L325.542 129.664L326.272 131.549L327.143 132.463L327.276 134.16L327.673 135.564L328.137 136.554L328.488 136.931L329.227 137.327L330.505 137.336L331.964 136.205L334.862 134.885L335.288 133.933L335.695 134.028L336.339 134.989L336.216 135.988L336.709 137.317L337.353 138.081L338.906 138.674L339.607 138.722L340.251 140.145L342.789 141.285L343.916 142.162L343.85 142.784L343.073 144.151L343.111 144.773L343.518 145.442L343.651 146.224L343.234 147.44L343.812 148.58L344.371 150.475V152.388L344.892 152.907L345.432 154.16L345.261 156.328L344.873 156.865L344.807 157.959L344.901 158.27L345.441 158.609L348.955 162.973L349.296 162.69L350.252 162.53L350.499 162.832L349.703 164.33L349.75 164.66L350.48 165.904L351.285 167.78L351.834 169.787L352.023 171.267L351.834 172.285L351.986 173.379L351.919 174.085L350.972 176.084L351.048 177.111L353.132 179.825L354.382 180.297L354.306 181.494L353.842 182.568L353.709 183.709L353.804 184.067L354.401 184.859L355.3 185.556L355.556 186.046L356.759 186.829L357.678 187.262L358.805 187.29L360.064 188.544L360.765 188.572L361.987 188.968L362.678 189.618L363.853 189.863L365.69 189.722L365.842 189.402L365.378 188.6L365.965 189.27L366.959 191.051L367.367 193.125L367.613 193.624L368.134 194.18L368.693 194.312L369.166 194.199L369.005 193.323L369.081 192.946L369.706 192.955L370.009 193.275L370.132 194.472L370.625 194.934L371.24 195.198L372.528 195.142L373.798 195.509L374.612 196.49L374.281 196.621L374.366 196.914L374.972 197.658L375.786 198.318L376.326 198.082L376.364 197.441L376.042 197.149L376.184 196.772L376.895 197.036L378.448 198.422L379.433 198.601L379.783 199.081L380.437 200.91L380.825 201.014L381.138 201.881L380.56 201.739L380.067 201.24L379.651 201.042L379.149 201.249L378.391 202.182L379.026 203.879L380.266 205.17L381.005 205.679L382.104 206.066L383.468 207.121L384.026 207.828L383.922 208.639L384.282 209.996L384.793 210.43L385.191 211.73L385.778 212.758L386.366 213.314L386.233 215.397L387.171 218.733L387.881 220.449L388.535 221.382L388.98 221.74L389.008 222.862L388.696 223.333L389.387 222.984L389.936 222.532L390.192 222.108L391.802 224.096ZM423.72 260.082L423.275 259.988L422.858 259.432L422.299 257.406L422.848 256.067L423.54 254.927L423.53 253.956L423.388 253.711L423.814 252.825L424.885 251.967L425.358 251.043L425.443 250.544L425.339 250.158L424.724 249.158L424.525 249.045L424.913 248.329L425.794 247.754L425.879 250.054L426.116 250.572L426.608 250.893L426.713 251.289L424.203 257.17L423.748 258.65L423.9 259.564L423.72 260.082ZM280.46 161.314L280.356 160.692L280.63 159.608L281.218 158.798L282.079 158.147L283.86 157.93L284.419 157.629L286.398 157.949L286.455 158.571L286.01 158.779L285.338 158.92L284.892 158.562L283.945 158.939L284.097 159.269L283.462 160.315L282.316 160.749L280.829 161.022L280.46 161.314ZM404.654 237.556L404.096 237.037L403.698 236.161L403.006 235.539L402.609 234.653L402.514 233.88L402.969 233.776L404.408 234.681L404.607 235.011L405.27 236.274L405.393 237.141L405.118 237.471L404.654 237.556ZM353.889 179.807L353.179 179.533L352.98 178.553L352.525 177.94L352.052 177.714L351.796 177.243L352.222 177.139L353.681 177.818L354.533 179.043L354.23 179.628L353.889 179.807ZM427.063 282.138L426.883 281.742L426.94 280.762L427.338 278.518L427.735 278.424L428.446 278.547L427.764 280.79L427.546 282.081L427.063 282.138ZM427.252 277.915L426.57 276.011V274.466L427.451 273.985L427.679 274.154L427.148 276.153L427.252 277.915ZM311.667 98.5695L311.023 98.0511L310.976 97.4007L311.591 96.9954L312.018 96.9106L312.52 97.6646L312.453 98.0511L311.961 98.1736L311.667 98.5695ZM312.662 93.3478L311.951 93.0462L311.733 92.7069L312.131 92.1037L312.7 92L313.04 92.1602L313.277 92.5749L312.662 93.3478ZM283.339 165.405L283.046 164.792L284.097 163.812L284.627 164.189L284.798 164.971L283.585 164.943L283.339 165.405Z" fill="#0B2149"/>
</g>
<rect x="-1.5" y="1.5" width="53.3953" height="53.3953" transform="matrix(-1 0 0 1 320.698 15)" stroke="#0B2149" stroke-width="3"/>
<rect x="-1.5" y="1.5" width="53.3953" height="53.3953" transform="matrix(-1 0 0 1 267.123 15)" stroke="#0B2149" stroke-width="3"/>
<rect x="-1.5" y="1.5" width="53.3953" height="53.3953" transform="matrix(-1 0 0 1 320.698 68.5756)" stroke="#0B2149" stroke-width="3"/>
<rect x="-1.5" y="1.5" width="53.3953" height="53.3953" transform="matrix(-1 0 0 1 267.123 68.5756)" stroke="#0B2149" stroke-width="3"/>
<rect x="-1.5" y="1.5" width="53.3953" height="53.3953" transform="matrix(-1 0 0 1 213.547 122.151)" stroke="#0B2149" stroke-width="3"/>
<rect x="-1.5" y="1.5" width="53.3953" height="53.3953" transform="matrix(-1 0 0 1 320.698 122.151)" stroke="#0B2149" stroke-width="3"/>
<rect x="-1.5" y="1.5" width="53.3953" height="53.3953" transform="matrix(-1 0 0 1 159.971 122.151)" stroke="#0B2149" stroke-width="3"/>
<rect x="-1.5" y="1.5" width="53.3953" height="53.3953" transform="matrix(-1 0 0 1 106.396 122.151)" stroke="#0B2149" stroke-width="3"/>
<rect x="-1.5" y="1.5" width="53.3953" height="53.3953" transform="matrix(-1 0 0 1 106.396 176)" stroke="#0B2149" stroke-width="3"/>
<rect x="-1.5" y="1.5" width="53.3953" height="53.3953" transform="matrix(-1 0 0 1 267.123 122.151)" stroke="#0B2149" stroke-width="3"/>
<rect x="-1.5" y="1.5" width="53.3953" height="53.3953" transform="matrix(-1 0 0 1 213.547 68.5756)" stroke="#0B2149" stroke-width="3"/>
<rect x="-1.5" y="1.5" width="53.3953" height="53.3953" transform="matrix(-1 0 0 1 213.547 175.727)" stroke="#0B2149" stroke-width="3"/>
<rect x="-1.5" y="1.5" width="53.3953" height="53.3953" transform="matrix(-1 0 0 1 320.698 175.727)" stroke="#0B2149" stroke-width="3"/>
<rect x="-1.5" y="1.5" width="53.3953" height="53.3953" transform="matrix(-1 0 0 1 159.971 68.5756)" stroke="#0B2149" stroke-width="3"/>
<rect x="-1.5" y="1.5" width="53.3953" height="53.3953" transform="matrix(-1 0 0 1 159.971 175.727)" stroke="#0B2149" stroke-width="3"/>
<rect x="-1.5" y="1.5" width="53.3953" height="53.3953" transform="matrix(-1 0 0 1 267.123 175.727)" stroke="#0B2149" stroke-width="3"/>
<rect x="-1.5" y="1.5" width="53.3953" height="53.3953" transform="matrix(-1 0 0 1 106.396 229.302)" stroke="#0B2149" stroke-width="3"/>
<rect x="-1.5" y="1.5" width="53.3953" height="53.3953" transform="matrix(-1 0 0 1 106.396 282.878)" stroke="#0B2149" stroke-width="3"/>
<rect x="-1.5" y="1.5" width="53.3953" height="53.3953" transform="matrix(-1 0 0 1 320.698 229.302)" stroke="#0B2149" stroke-width="3"/>
<rect x="-1.5" y="1.5" width="53.3953" height="53.3953" transform="matrix(-1 0 0 1 267.123 229.302)" stroke="#0B2149" stroke-width="3"/>
<rect x="-1.5" y="1.5" width="53.3953" height="53.3953" transform="matrix(-1 0 0 1 320.698 282.878)" stroke="#0B2149" stroke-width="3"/>
<rect x="-1.5" y="1.5" width="53.3953" height="53.3953" transform="matrix(-1 0 0 1 267.123 282.878)" stroke="#0B2149" stroke-width="3"/>
<rect x="-1.5" y="1.5" width="53.3953" height="53.3953" transform="matrix(-1 0 0 1 213.547 229.302)" stroke="#0B2149" stroke-width="3"/>
<rect x="-1.5" y="1.5" width="53.3953" height="53.3953" transform="matrix(-1 0 0 1 213.547 336.453)" stroke="#0B2149" stroke-width="3"/>
<rect x="-1.5" y="1.5" width="53.3953" height="53.3953" transform="matrix(-1 0 0 1 320.698 336.453)" stroke="#0B2149" stroke-width="3"/>
<rect x="-1.5" y="1.5" width="53.3953" height="53.3953" transform="matrix(-1 0 0 1 159.971 229.302)" stroke="#0B2149" stroke-width="3"/>
<rect x="-1.5" y="1.5" width="53.3953" height="53.3953" transform="matrix(-1 0 0 1 159.971 336.453)" stroke="#0B2149" stroke-width="3"/>
<rect x="-1.5" y="1.5" width="53.3953" height="53.3953" transform="matrix(-1 0 0 1 53.3954 336.453)" stroke="#0B2149" stroke-width="3"/>
<rect x="-1.5" y="1.5" width="53.3953" height="53.3953" transform="matrix(-1 0 0 1 106.396 336.453)" stroke="#0B2149" stroke-width="3"/>
<rect x="-1.5" y="1.5" width="53.3953" height="53.3953" transform="matrix(-1 0 0 1 267.123 336.453)" stroke="#0B2149" stroke-width="3"/>
<rect x="-1.5" y="1.5" width="53.3953" height="53.3953" transform="matrix(-1 0 0 1 213.547 282.878)" stroke="#0B2149" stroke-width="3"/>
<rect x="-1.5" y="1.5" width="53.3953" height="53.3953" transform="matrix(-1 0 0 1 320.698 390.029)" stroke="#0B2149" stroke-width="3"/>
<rect x="-1.5" y="1.5" width="53.3953" height="53.3953" transform="matrix(-1 0 0 1 159.971 282.878)" stroke="#0B2149" stroke-width="3"/>
<rect x="-1.5" y="1.5" width="53.3953" height="53.3953" transform="matrix(-1 0 0 1 267.123 390.029)" stroke="#0B2149" stroke-width="3"/>
<rect x="-1.5" y="1.5" width="53.3953" height="53.3953" transform="matrix(-1 0 0 1 213.395 390)" stroke="#0B2149" stroke-width="3"/>
<rect x="-1.5" y="1.5" width="53.3953" height="53.3953" transform="matrix(-1 0 0 1 53.3954 229)" stroke="#0B2149" stroke-width="3"/>
<rect x="-1.5" y="1.5" width="53.3953" height="53.3953" transform="matrix(-1 0 0 1 53.3954 176)" stroke="#0B2149" stroke-width="3"/>
<rect x="-1.5" y="1.5" width="53.3953" height="53.3953" transform="matrix(-1 0 0 1 53.3954 283)" stroke="#0B2149" stroke-width="3"/>
<rect x="81.3685" width="469.961" height="485" fill="url(#paint0_linear_266_83)"/>
<defs>
<linearGradient id="paint0_linear_266_83" x1="114.736" y1="232.161" x2="528.772" y2="234.511" gradientUnits="userSpaceOnUse">
<stop stop-color="#F7EFEE" stop-opacity="0"/>
<stop offset="1" stop-color="#F7EFEE"/>
</linearGradient>
<clipPath id="clip0_266_83">
<rect width="415.905" height="390.586" fill="white" transform="matrix(-1 0 0 1 431.905 97)"/>
</clipPath>
</defs>
</svg>
