<svg width="467" height="383" viewBox="0 0 467 383" fill="none" xmlns="http://www.w3.org/2000/svg">
<path d="M80.5001 228.261C100.5 271.261 146 310.802 197.5 322.761C331 353.761 482.492 270.088 370.5 2.26105" stroke="#0B2149" stroke-width="8" stroke-dasharray="33 33"/>
<path d="M20.25 194.261C17.4375 194.261 15.0469 193.276 13.0781 191.308C11.1094 189.339 10.125 186.948 10.125 184.136H3.375V147.011C3.375 145.155 4.03594 143.565 5.35781 142.244C6.67969 140.922 8.26875 140.261 10.125 140.261H57.375V153.761H67.5L77.625 167.261V184.136H70.875C70.875 186.948 69.8906 189.339 67.9219 191.308C65.9531 193.276 63.5625 194.261 60.75 194.261C57.9375 194.261 55.5469 193.276 53.5781 191.308C51.6094 189.339 50.625 186.948 50.625 184.136H30.375C30.375 186.948 29.3906 189.339 27.4219 191.308C25.4531 193.276 23.0625 194.261 20.25 194.261ZM20.25 187.511C21.2063 187.511 22.0078 187.187 22.6547 186.54C23.3016 185.894 23.625 185.092 23.625 184.136C23.625 183.18 23.3016 182.378 22.6547 181.731C22.0078 181.084 21.2063 180.761 20.25 180.761C19.2938 180.761 18.4922 181.084 17.8453 181.731C17.1984 182.378 16.875 183.18 16.875 184.136C16.875 185.092 17.1984 185.894 17.8453 186.54C18.4922 187.187 19.2938 187.511 20.25 187.511ZM10.125 177.386H12.825C13.7812 176.373 14.8781 175.558 16.1156 174.939C17.3531 174.32 18.7312 174.011 20.25 174.011C21.7688 174.011 23.1469 174.32 24.3844 174.939C25.6219 175.558 26.7188 176.373 27.675 177.386H50.625V147.011H10.125V177.386ZM60.75 187.511C61.7062 187.511 62.5078 187.187 63.1547 186.54C63.8016 185.894 64.125 185.092 64.125 184.136C64.125 183.18 63.8016 182.378 63.1547 181.731C62.5078 181.084 61.7062 180.761 60.75 180.761C59.7938 180.761 58.9922 181.084 58.3453 181.731C57.6984 182.378 57.375 183.18 57.375 184.136C57.375 185.092 57.6984 185.894 58.3453 186.54C58.9922 187.187 59.7938 187.511 60.75 187.511ZM57.375 170.636H71.7188L64.125 160.511H57.375V170.636Z" fill="#0B2149"/>
<path d="M107.542 193.969L116.126 150.559C116.405 149.209 117.033 148.197 118.01 147.523C118.988 146.848 120.011 146.511 121.081 146.511C122.151 146.511 123.14 146.743 124.047 147.209C124.955 147.674 125.688 148.372 126.246 149.302L129.038 153.769C129.875 155.118 130.957 156.34 132.283 157.433C133.609 158.527 135.133 159.329 136.854 159.841V154.886H141.042V193.969H136.854V165.634C134.621 165.122 132.55 164.308 130.643 163.191C128.735 162.074 127.083 160.702 125.688 159.073L124.013 167.448L129.875 173.032V193.969H124.292V177.219L118.429 171.636L113.404 193.969H107.542ZM108.728 166.401L102.796 165.285C102.051 165.145 101.47 164.761 101.051 164.133C100.632 163.505 100.493 162.796 100.632 162.005L102.726 151.047C103.005 149.558 103.796 148.384 105.099 147.523C106.402 146.662 107.798 146.371 109.286 146.65L112.497 147.279L108.728 166.401ZM125.688 145.115C124.152 145.115 122.838 144.568 121.744 143.475C120.651 142.381 120.104 141.067 120.104 139.532C120.104 137.996 120.651 136.682 121.744 135.588C122.838 134.495 124.152 133.948 125.688 133.948C127.223 133.948 128.537 134.495 129.631 135.588C130.724 136.682 131.271 137.996 131.271 139.532C131.271 141.067 130.724 142.381 129.631 143.475C128.537 144.568 127.223 145.115 125.688 145.115Z" fill="#0B2149"/>
<path d="M92 228.261C92 234.612 86.8513 239.761 80.5 239.761C74.1487 239.761 69 234.612 69 228.261C69 221.91 74.1487 216.761 80.5 216.761C86.8513 216.761 92 221.91 92 228.261Z" fill="#0B2149"/>
</svg>
